<?xml version="1.0" encoding="utf-8"?>
<!-- Generator: Adobe Illustrator 27.6.1, SVG Export Plug-In . SVG Version: 6.00 Build 0)  -->
<svg version="1.1" id="Layer_1" xmlns="http://www.w3.org/2000/svg" xmlns:xlink="http://www.w3.org/1999/xlink" x="0px" y="0px"
	 viewBox="0 0 191.36 102.43" enable-background="new 0 0 191.36 102.43" xml:space="preserve">
<g>
	<g>
		<path fill="#FFFFFF" d="M48.21,43.74c-1.77-1.8-3.96-2.54-6.41-2.44c-1.32,0.06-2.48,0.53-3.38,1.61c-1.05,1.28-1,3.13,0.15,4.32
			c1.28,1.32,2.96,1.87,4.55,2.59c1.99,0.9,4.06,1.68,5.94,2.81c4.31,2.6,5.8,8.28,3.4,12.62c-1.55,2.81-3.99,4.51-6.99,5.02
			c-5.34,0.91-10.28-0.2-14.61-3.77c-0.17-0.14-0.32-0.3-0.56-0.52c1.52-1.52,3.01-3.01,4.52-4.52c0.74,0.51,1.54,1.16,2.42,1.63
			c2.17,1.16,4.49,1.64,6.9,1.07c2.03-0.48,3.18-2.32,2.74-4.21c-0.23-1-0.86-1.7-1.69-2.12c-1.63-0.83-3.31-1.53-4.95-2.33
			c-1.73-0.85-3.55-1.55-5.12-2.66c-5.67-4.02-5.05-12.83,1.02-16.13c2.94-1.6,6.01-1.65,9.17-1.19c2.6,0.38,4.84,1.57,6.85,3.29
			c0.15,0.13,0.28,0.27,0.46,0.46C51.15,40.76,49.71,42.22,48.21,43.74"/>
	</g>
	<g>
		<path fill="#FFFFFF" d="M138.53,56.79c0.99-1.46,1.98-2.92,2.98-4.38c0.99-1.46,1.98-2.92,3.04-4.48
			c-0.28-0.04-0.46-0.09-0.64-0.09c-1.89-0.01-3.78-0.02-5.67,0.02c-0.27,0.01-0.64,0.22-0.8,0.46c-0.88,1.32-1.7,2.68-2.56,4.04
			c-2.5-4.58-1.79-11.57,3.21-15.59c5.01-4.03,12.02-3.33,16.13,1.54c4.11,4.87,4.03,12.19-0.23,16.88
			C149.66,59.96,142.88,60.22,138.53,56.79"/>
	</g>
	<g>
		<path fill="#FFFFFF" d="M95.23,49.32v-0.95c0-3.76,0.01-7.51-0.01-11.27c0-0.62,0.15-0.86,0.78-0.84
			c1.51,0.04,3.03,0.01,4.57,0.01c0.03,0.25,0.08,0.43,0.08,0.6c-0.01,7.72,0.03,15.44-0.05,23.15c-0.06,5.29-4.47,10.05-9.52,10.49
			c-4.93,0.43-9.1-1.92-11.11-6.48c-2.04-4.64-1.2-10.94,4.06-14.38c3.34-2.18,6.87-2.31,10.46-0.66
			C94.68,49.09,94.88,49.17,95.23,49.32 M95.23,59.27c0.02-3.12-2.37-5.66-5.4-5.72c-2.86-0.05-5.4,2.54-5.43,5.53
			c-0.03,3.22,2.39,5.81,5.45,5.83C92.77,64.94,95.21,62.38,95.23,59.27z"/>
	</g>
	<g>
		<path fill="#FFFFFF" d="M61,60.92c0.59,3.3,5.65,6.03,9.22,2.1c1.44,1.07,2.89,2.15,4.39,3.27c-0.88,1.3-2.01,2.22-3.27,2.96
			c-3.72,2.21-8.73,1.81-12.02-1.03c-3.65-3.14-4.85-7.26-3.68-11.97c1.09-4.37,3.98-7.13,8.17-8.06
			c6.68-1.47,11.86,3.35,12.83,8.39c0.24,1.24,0.18,2.55,0.25,3.83c0.03,0.6-0.38,0.54-0.75,0.54c-3.66-0.01-7.31-0.03-10.97-0.04
			C63.79,60.92,62.42,60.92,61,60.92 M70.8,56.63c-0.85-2.04-2.66-3.06-5.09-2.97c-1.88,0.07-3.66,1.32-4.2,2.97H70.8z"/>
	</g>
	<g>
		<path fill="#FFFFFF" d="M108.46,60.92c0.61,3.28,5.6,6.04,9.24,2.1c1.44,1.08,2.88,2.16,4.39,3.28c-1.03,1.47-2.35,2.5-3.87,3.26
			c-6.3,3.15-13.75-0.63-15.25-7.73c-1.51-7.17,3.52-13.71,10.5-13.88c5.04-0.12,10.14,3.95,10.81,9.62
			c0.1,0.86,0.03,1.75,0.07,2.62c0.03,0.61-0.19,0.79-0.77,0.79c-2.87-0.04-5.74-0.04-8.61-0.05
			C112.81,60.91,110.66,60.92,108.46,60.92 M118.26,56.63c-1.05-2.17-2.86-3.17-5.28-2.97c-1.83,0.15-3.59,1.43-4.04,2.97H118.26z"
			/>
	</g>
	<g>
		<path fill="#FFFFFF" d="M144.57,69.92h-2.85c-1.18,0-2.36-0.02-3.53,0.01c-0.45,0.01-0.7-0.16-0.93-0.57
			c-0.99-1.78-2.01-3.53-3.02-5.29c-0.11-0.19-0.23-0.37-0.41-0.64c-1.07,1.8-2.15,3.49-3.09,5.25c-0.5,0.93-1.05,1.33-2.12,1.27
			c-1.86-0.11-3.72-0.03-5.76-0.03c0.83-1.23,1.58-2.35,2.34-3.47c1.71-2.51,3.41-5.02,5.14-7.52c0.28-0.41,0.11-0.65-0.09-0.95
			c-2.01-3.07-4.03-6.14-6.04-9.2c-0.15-0.23-0.28-0.46-0.52-0.85h1.64c1.52,0,3.04,0.01,4.56-0.01c0.4,0,0.65,0.12,0.89,0.5
			c4.55,7.07,9.11,14.13,13.67,21.19C144.48,69.66,144.49,69.71,144.57,69.92"/>
	</g>
	<g>
		<path fill="#FFFFFF" d="M148.75,64.31c1.5,0.02,2.66,1.24,2.67,2.79c0,1.56-1.22,2.82-2.73,2.8c-1.47-0.01-2.67-1.28-2.66-2.8
			C146.03,65.5,147.21,64.3,148.75,64.31 M148.71,69.61c1.35,0.02,2.43-1.1,2.43-2.51c0-1.34-1.1-2.47-2.4-2.48
			c-1.31-0.01-2.35,1.09-2.35,2.49C146.38,68.54,147.35,69.59,148.71,69.61z"/>
	</g>
	<g>
		<path fill="#FFFFFF" d="M149.58,68.74c-0.07-0.92-0.3-1.64-1.34-1.31c-0.07,0.39-0.15,0.78-0.23,1.18
			c-0.09-0.01-0.18-0.03-0.26-0.04v-3c0.7,0.14,1.55-0.39,2.05,0.48c0.15,0.26-0.09,0.78-0.18,1.32c0.06,0.25,0.18,0.72,0.3,1.19
			C149.8,68.62,149.69,68.68,149.58,68.74 M148.18,67.24c0.5-0.21,0.88-0.33,1.2-0.53c0.08-0.05,0.04-0.55-0.05-0.59
			c-0.35-0.15-0.74-0.2-1.15-0.3V67.24z"/>
	</g>
</g>
</svg>
