<?xml version="1.0" encoding="utf-8"?>
<!-- Generator: Adobe Illustrator 27.6.1, SVG Export Plug-In . SVG Version: 6.00 Build 0)  -->
<svg version="1.1" id="Layer_1" xmlns="http://www.w3.org/2000/svg" xmlns:xlink="http://www.w3.org/1999/xlink" x="0px" y="0px"
	 viewBox="0 0 191.36 102.43" enable-background="new 0 0 191.36 102.43" xml:space="preserve">
<g>
	<g>
		<path fill="#FFFFFF" d="M56.63,63.94c-0.08,0.55-0.13,1.06-0.24,1.55c-0.14,0.6-0.53,0.99-1.12,1.06
			c-0.46,0.06-0.95,0.11-1.4,0.03c-0.89-0.17-1.39-0.84-1.57-1.73c-0.17-0.83-0.27-1.67-0.37-2.51c-0.03-0.26-0.12-0.38-0.34-0.49
			c-2.87-1.4-5.51-3.19-7.85-5.43c-1.06-1.01-2.05-2.09-2.81-3.38c-1.12-1.9-0.84-3.61,0.85-4.98c1.41-1.14,3.02-1.84,4.7-2.42
			c1.61-0.56,3.23-1.04,4.92-1.27c0.67-0.09,0.67-0.12,0.68-0.83c0.02-2.23,0.25-4.43,0.6-6.62c0.1-0.61,0.27-1.22,0.46-1.81
			c0.19-0.59,0.6-0.7,1.08-0.33c0.68,0.53,1.03,1.29,1.3,2.1c0.6,1.78,0.75,3.64,0.81,5.51c0.01,0.44,0,0.88,0,1.36
			c0.56,0,1.05,0.01,1.55,0c3.33-0.04,6.56,0.55,9.69,1.74c1.43,0.55,2.66,1.43,3.46,2.84c1.63,2.88-0.98,5.65-3.09,5.65
			c-0.6,0-1.2-0.21-1.78-0.36c-0.14-0.04-0.33-0.25-0.34-0.39c-0.01-0.14,0.16-0.33,0.29-0.43c0.41-0.29,0.88-0.5,1.27-0.82
			c0.87-0.73,0.79-1.44-0.25-1.86c-0.93-0.37-1.89-0.66-2.85-0.9c-2.47-0.62-4.99-0.99-7.53-1.06c-0.1,0-0.2,0-0.34,0
			c0.08,4.04,0.16,8.07,0.25,12.19c1.44,0.16,2.86,0.4,4.28,0.47c2.47,0.12,4.93,0,7.36-0.52c2.55-0.54,4.94-1.49,7-3.23
			c2.04-1.72,3.02-3.98,3.03-6.72c0.01-1.76-0.6-3.34-1.34-4.87c-1.77-3.62-4.44-6.39-7.5-8.79c-3.48-2.73-7.29-4.83-11.34-6.45
			c-3.78-1.51-7.66-2.6-11.68-3.13c-3.11-0.41-6.23-0.54-9.34-0.1c-0.75,0.11-1.48,0.34-2.21,0.53c-0.15,0.04-0.28,0.13-0.43,0.2
			c0,0.04,0,0.08,0,0.11c0.24,0.05,0.48,0.11,0.73,0.16c0.32,0.06,0.64,0.08,0.95,0.17c0.18,0.05,0.37,0.16,0.51,0.3
			c0.41,0.39,0.33,0.94-0.21,1.04c-0.66,0.13-1.35,0.12-2.03,0.11c-0.3,0-0.61-0.12-0.9-0.22c-0.77-0.26-1.04-0.75-0.81-1.57
			c0.43-1.56,1.34-2.7,2.8-3.28c1.59-0.63,3.27-0.91,4.94-1.15c4.38-0.63,8.69-0.13,12.95,0.99c5.84,1.54,11.33,3.94,16.37,7.39
			c3.83,2.61,7.28,5.68,10.01,9.58c1.15,1.64,2.09,3.41,2.74,5.32c1.04,3.07,0.85,6.09-0.56,9.02c-1.58,3.28-4.04,5.53-7.24,6.96
			c-4.44,1.98-9.07,2.62-13.84,2.07c-1.31-0.15-2.6-0.47-3.89-0.71C56.86,63.99,56.74,63.97,56.63,63.94 M51.88,48.4
			c-0.05-0.02-0.09-0.04-0.12-0.04c-0.36,0.02-0.72,0.05-1.08,0.08c-2.3,0.17-4.57,0.52-6.79,1.2c-0.68,0.21-1.35,0.53-1.97,0.89
			c-0.46,0.26-0.53,0.71-0.26,1.19c0.2,0.36,0.45,0.69,0.72,0.99c2.24,2.44,4.97,4.14,7.9,5.51c0.52,0.24,1.06,0.42,1.6,0.64V48.4z"
			/>
	</g>
	<g>
		<path fill="#FFFFFF" d="M144.7,56.65c0.69-0.99,1.34-1.91,1.98-2.84c1.6-2.31,3.48-4.37,5.5-6.27c0.57-0.53,1.25-0.95,1.93-1.32
			c1.15-0.63,2.18-0.37,3.06,0.64c0.92,1.06,1.35,2.35,1.49,3.73c0.49,4.87-1.45,8.49-5.27,11.12c-1.81,1.24-3.77,2.04-5.97,2.08
			c-0.82,0.01-0.82,0.02-1.08,0.85c-1.13,3.57-1.91,7.24-2.62,10.92c-0.19,1.01-0.41,2.02-0.62,3.02c-0.14,0.66-0.61,0.89-1.18,0.59
			c-0.82-0.43-1.6-0.92-2.05-1.81c-0.37-0.72-0.47-1.51-0.48-2.31c-0.03-1.75,0.29-3.45,0.56-5.17c0.5-3.1,1.49-6.05,2.56-8.98
			c0.07-0.2,0.12-0.48,0.04-0.66c-1.13-2.76-0.96-5.5,0.06-8.23c0.96-2.57,2.4-4.83,4.12-6.9c0.29-0.35,0.64-0.66,1-0.93
			c0.46-0.35,0.96-0.1,0.91,0.49c-0.05,0.69-0.17,1.41-0.42,2.04c-0.39,0.97-0.88,1.9-1.39,2.8c-0.84,1.49-1.59,3.01-2,4.7
			C144.66,54.99,144.49,55.76,144.7,56.65 M148.87,59c0.43-0.04,0.76-0.02,1.08-0.1c3.14-0.78,5.33-2.65,6.22-5.99
			c0.25-0.95,0.28-1.94-0.05-2.89c-0.2-0.58-0.54-0.67-0.94-0.22c-0.72,0.81-1.48,1.6-2.1,2.49c-1.29,1.89-2.49,3.84-3.72,5.77
			C149.2,58.33,149.07,58.62,148.87,59z"/>
	</g>
	<g>
		<path fill="#FFFFFF" d="M102,43.83c2.46,0.05,4.37,0.18,6.18,0.94c0.3,0.12,0.59,0.28,0.87,0.45c0.28,0.17,0.37,0.44,0.28,0.77
			c-0.22,0.87-0.8,1.38-1.59,1.51c-1.21,0.2-2.44,0.3-3.67,0.4c-2.06,0.15-4.12,0.23-6.18,0.41c-0.87,0.08-1.73,0.33-2.59,0.54
			c-0.21,0.05-0.39,0.27-0.58,0.41c0.21,0.14,0.4,0.37,0.62,0.4c0.97,0.17,1.94,0.29,2.92,0.43c2.14,0.31,4.29,0.61,6.43,0.94
			c0.4,0.06,0.8,0.21,1.18,0.35c1.81,0.65,2.71,2.08,2.99,3.98c0.4,2.78-0.84,5.14-3.34,6.19c-3.99,1.68-7.78,1.16-11.28-1.44
			c-0.54-0.41-1.02-0.97-1.4-1.55c-1-1.53-0.52-3.37,1.05-4.25c1.13-0.64,2.37-0.81,3.62-0.75c1.98,0.11,3.93,0.46,5.76,1.32
			c0.2,0.1,0.41,0.19,0.59,0.32c0.34,0.24,0.4,0.62,0.11,0.93c-0.19,0.2-0.42,0.38-0.66,0.5c-1.51,0.71-3.02,0.96-4.61,0.22
			c-0.94-0.43-1.92-0.79-2.91-1.05c-0.41-0.11-0.95,0.03-1.36,0.22c-0.73,0.34-0.78,1.12-0.14,1.62c0.7,0.54,1.53,0.76,2.38,0.82
			c2.28,0.15,4.53-0.05,6.67-0.94c0.71-0.29,1.38-0.71,2.04-1.13c0.53-0.34,0.73-0.92,0.48-1.32c-0.18-0.28-0.45-0.52-0.73-0.69
			c-0.83-0.52-1.77-0.77-2.72-0.91c-1.96-0.27-3.93-0.48-5.89-0.71c-0.96-0.12-1.93-0.19-2.88-0.38c-1.85-0.36-2.55-1.6-2.07-3.52
			c0.38-1.5,1.35-2.46,2.59-3.17c1.48-0.84,3.09-1.29,4.75-1.53C100.11,43.98,101.32,43.9,102,43.83"/>
	</g>
	<g>
		<path fill="#FFFFFF" d="M133.07,50.48c1.12,0,2.2,0,3.28,0c0.38,0,0.77-0.01,1.16,0.01c0.73,0.04,1.14,0.44,1.24,1.2
			c0.03,0.28,0.06,0.57,0.05,0.86c-0.02,0.7-0.31,1.05-0.97,1.09c-0.96,0.06-1.91,0.05-2.87,0.09c-0.89,0.03-1.79,0.08-2.68,0.14
			c-0.14,0.01-0.34,0.14-0.38,0.26c-0.36,1.05-0.69,2.12-1.06,3.3c0.57-0.06,1.04-0.08,1.51-0.15c1.63-0.26,3.26-0.56,4.9-0.82
			c1.21-0.19,2.31,1.06,2.01,2.32c-0.07,0.3-0.3,0.62-0.53,0.81c-2.15,1.77-4.52,3.09-7.27,3.38c-2.3,0.24-4.03-1.11-4.51-3.64
			c-0.24-1.26-0.05-2.49,0.43-3.67c0-0.01,0.01-0.02,0.01-0.04c0.55-0.97,0.64-1.97,0.37-3.07c-0.25-1.01,0.1-1.53,1.07-1.69
			c0.45-0.08,0.68-0.32,0.82-0.73c0.27-0.77,0.54-1.54,0.81-2.31c0.02-0.05,0.02-0.1,0.03-0.17c-0.47-0.14-0.94-0.27-1.39-0.43
			c-0.6-0.21-1.14-0.51-1.48-1.11c-0.41-0.72-0.26-1.22,0.51-1.42c1-0.25,2.02-0.47,3.04-0.61c1.87-0.26,3.75-0.47,5.63-0.68
			c0.58-0.06,1.18-0.08,1.75-0.01c1.51,0.21,2.46,1.22,3.1,2.59c0.32,0.7,0.11,1.18-0.59,1.45c-1.07,0.41-2.19,0.48-3.31,0.53
			c-1.21,0.05-2.41,0.06-3.62,0.05c-0.28,0-0.39,0.1-0.46,0.37C133.47,49.09,133.27,49.77,133.07,50.48"/>
	</g>
	<g>
		<path fill="#FFFFFF" d="M114.31,51.2c-0.05,0.47-0.13,0.94-0.15,1.41c-0.09,2.1-0.14,4.2-0.25,6.3c-0.04,0.78-0.15,1.55-0.28,2.32
			c-0.1,0.62-0.37,1.18-1.05,1.26c-0.69,0.08-1.26-0.21-1.66-0.83c-0.52-0.81-0.68-1.73-0.74-2.67c-0.16-2.81,0.21-5.57,0.87-8.29
			c0.33-1.39,0.8-2.74,1.22-4.1c0.08-0.27,0.24-0.52,0.4-0.75c0.43-0.62,1.03-0.75,1.62-0.28c0.36,0.29,0.68,0.66,0.93,1.05
			c1.34,2.05,2.67,4.12,3.99,6.19c0.53,0.82,1.04,1.66,1.55,2.49c0.07,0.11,0.12,0.24,0.22,0.32c0.13,0.11,0.28,0.18,0.42,0.27
			c0.04-0.15,0.11-0.31,0.1-0.46c-0.03-2.73-0.54-5.39-1.2-8.02c-0.4-1.59-0.8-3.17-1.18-4.77c-0.06-0.26-0.07-0.55-0.04-0.82
			c0.04-0.49,0.41-0.78,0.84-0.6c0.39,0.17,0.79,0.41,1.08,0.72c1.18,1.26,2.08,2.72,2.74,4.35c1.1,2.73,1.7,5.56,1.59,8.53
			c-0.06,1.65-0.28,3.27-1.15,4.72c-0.57,0.95-1.32,1.62-2.42,1.78c-0.66,0.1-1.23-0.07-1.7-0.57c-0.93-1-1.64-2.17-2.29-3.37
			c-1.01-1.89-1.97-3.81-2.95-5.71c-0.1-0.19-0.25-0.35-0.38-0.52C114.41,51.17,114.36,51.18,114.31,51.2"/>
	</g>
	<g>
		<path fill="#FFFFFF" d="M85.35,40.46c-0.11,0.2-0.21,0.4-0.33,0.6c-0.1,0.18-0.2,0.36-0.33,0.52c-0.41,0.49-0.88,0.5-1.32,0.03
			c-0.54-0.59-0.77-1.3-0.74-2.1c0.02-0.52-0.09-0.97-0.38-1.39c-1.29-1.88-1.24-3.87-0.06-5.71c2.24-3.49,5.4-5.4,9.46-5.48
			c1.34-0.03,2.5,0.5,3.39,1.6c0.11,0.14,0.33,0.23,0.51,0.26c1.56,0.29,2.82,1.6,2.96,3.19c0.11,1.24-0.28,2.38-1.01,3.32
			c-2.2,2.81-4.92,4.81-8.38,5.52C87.85,41.08,86.62,40.89,85.35,40.46 M86.92,37.45c0.21,0.05,0.31,0.09,0.42,0.1
			c2.74,0.21,5.22-0.51,7.37-2.36c0.63-0.54,1.18-1.17,1.38-2.04c0.3-1.27-0.58-2.3-1.8-2.02c-0.64,0.15-1.3,0.4-1.86,0.74
			c-1.6,0.98-2.96,2.29-4.17,3.75C87.8,36.19,87.4,36.8,86.92,37.45z M88.51,30.82c-0.03-0.04-0.03-0.05-0.04-0.05
			c-0.04,0-0.08-0.01-0.11,0c-1.98,0.33-3.41,1.49-4.41,3.25c-0.37,0.64-0.41,1.34,0.02,2.07C85.2,34.03,86.78,32.35,88.51,30.82z"
			/>
	</g>
	<g>
		<path fill="#FFFFFF" d="M89.82,56.11c0,1.4,0,2.79,0,4.19c0,0.07-0.01,0.13-0.01,0.19c-0.08,1.25-0.49,1.82-1.36,1.91
			c-1.43,0.15-2.35-0.34-2.58-1.56c-0.21-1.13-0.31-2.3-0.35-3.45c-0.1-3-0.03-6,0.33-8.99c0.12-0.99,0.33-1.98,0.52-2.96
			c0.05-0.25,0.15-0.5,0.26-0.73c0.35-0.73,0.76-0.83,1.41-0.34c0.59,0.44,0.84,1.11,0.94,1.81c0.21,1.48,0.4,2.97,0.52,4.46
			c0.14,1.82,0.19,3.65,0.29,5.47C89.78,56.1,89.8,56.11,89.82,56.11"/>
	</g>
</g>
</svg>
