<?xml version="1.0" encoding="utf-8"?>
<!-- Generator: Adobe Illustrator 27.6.1, SVG Export Plug-In . SVG Version: 6.00 Build 0)  -->
<svg version="1.1" id="Layer_1" xmlns="http://www.w3.org/2000/svg" xmlns:xlink="http://www.w3.org/1999/xlink" x="0px" y="0px"
	 viewBox="0 0 191.36 102.43" enable-background="new 0 0 191.36 102.43" xml:space="preserve">
<g>
	<g>
		<path fill="#FFFFFF" d="M71.91,82.23c1.51,1.23,1.9,3.02,0.67,4.66c-1.18,1.57-3.04,1.6-4.48,0.42c-0.47-0.39-0.97-0.9-1.3-1.42
			l0.67-0.79c0.23,0.5,0.6,0.92,1,1.27c1.04,0.85,2.21,0.72,3.02-0.37c0.74-0.98,0.84-2.16-0.18-2.98c-0.25-0.2-0.51-0.37-0.83-0.48
			l-0.79,1.05l0.62,0.52l-0.54,0.72l-1.55-1.27l1.77-2.38C70.71,81.4,71.33,81.77,71.91,82.23"/>
	</g>
	<g>
		<polygon fill="#FFFFFF" points="68.4,79.08 63.95,83.24 63.07,82.21 66.73,78.78 65.02,76.78 65.81,76.04 		"/>
	</g>
	<g>
		<path fill="#FFFFFF" d="M63.57,72.45c1.02,1.7,0.53,3.28-1.04,4.31c-1.53,1.01-3.16,0.79-4.16-0.87
			c-1.02-1.69-0.54-3.28,1.04-4.33C60.95,70.53,62.56,70.77,63.57,72.45 M59.16,75.38c0.61,1.03,1.83,0.7,2.65,0.15
			c0.81-0.53,1.62-1.55,1-2.58c-0.63-1.05-1.81-0.72-2.65-0.17C59.3,73.35,58.51,74.33,59.16,75.38z"/>
	</g>
	<g>
		<path fill="#FFFFFF" d="M60.28,65.91l0.81,2.12l-5.55,2.32l-0.9-2.38c-0.37-0.96-0.42-2.05,0.65-2.49c0.7-0.3,1.32-0.04,1.74,0.61
			c-0.16-0.77,0.07-1.53,0.83-1.84C59.16,63.7,59.86,64.76,60.28,65.91 M55.56,68.06l0.28,0.72l1.58-0.66l-0.23-0.63
			c-0.21-0.57-0.61-1.09-1.26-0.81C55.34,66.94,55.36,67.55,55.56,68.06z M57.93,67.27l0.21,0.55l1.74-0.72l-0.23-0.61
			c-0.23-0.59-0.65-1.22-1.33-0.92C57.54,65.89,57.68,66.64,57.93,67.27z"/>
	</g>
	<g>
		<path fill="#FFFFFF" d="M58.01,57.27l-1.37,0.85l0.51,2.62l1.56,0.24l0.26,1.35l-6.31-1.11l-0.35-1.79l5.41-3.57L58.01,57.27z
			 M53.34,60.16l2.88,0.48l-0.39-2.04L53.34,60.16z"/>
	</g>
	<g>
		<polygon fill="#FFFFFF" points="57.68,53.93 51.71,54.08 51.67,52.7 56.59,52.57 56.52,49.88 57.58,49.86 		"/>
	</g>
	<g>
		<path fill="#FFFFFF" d="M58.98,40.96c-0.49,1.93-1.93,2.63-3.72,2.14c-1.76-0.5-2.7-1.9-2.23-3.79c0.49-1.93,1.93-2.65,3.72-2.16
			C58.54,37.67,59.47,39.07,58.98,40.96 M53.92,39.56c-0.3,1.18,0.76,1.88,1.69,2.14c0.93,0.26,2.18,0.19,2.48-0.98
			c0.3-1.2-0.72-1.88-1.69-2.16C55.45,38.31,54.24,38.35,53.92,39.56z"/>
	</g>
	<g>
		<path fill="#FFFFFF" d="M61.86,32.82l-1.81-0.18c-0.61-0.07-0.83-0.02-1.12,0.59l-0.21,0.46l2.23,1.12l-0.56,1.23l-5.39-2.71
			l1.05-2.3c0.44-0.96,1.23-1.75,2.3-1.2c0.74,0.37,0.93,1.18,0.7,1.95c0.33-0.46,0.67-0.55,1.21-0.5l2.18,0.2L61.86,32.82z
			 M56.64,31.9l-0.28,0.61l1.56,0.79l0.26-0.57c0.26-0.57,0.37-1.25-0.26-1.58C57.29,30.81,56.93,31.29,56.64,31.9z"/>
	</g>
	<g>
		<path fill="#FFFFFF" d="M65.23,27.42c-1.12,1.62-2.81,2.08-4.41,0.88c-1.53-1.16-1.63-3.13-0.56-4.68c0.35-0.52,0.83-1.03,1.3-1.4
			l0.77,0.66c-0.47,0.26-0.86,0.66-1.16,1.11c-0.77,1.12-0.6,2.34,0.46,3.15c0.97,0.74,2.09,0.79,2.85-0.3
			c0.19-0.28,0.33-0.55,0.42-0.88l-1.04-0.79l-0.46,0.66l-0.7-0.53l1.16-1.68l2.34,1.77C65.97,26.15,65.66,26.82,65.23,27.42"/>
	</g>
	<g>
		<path fill="#FFFFFF" d="M70.96,20.79l-1.41-0.77l-1.86,1.82l0.63,1.53l-0.95,0.94l-2.42-6.21l1.26-1.25l5.74,2.93L70.96,20.79z
			 M66.15,18.14l1.12,2.82l1.46-1.44L66.15,18.14z"/>
	</g>
	<g>
		<polygon fill="#FFFFFF" points="75.7,16.84 71.26,13.72 73.84,18.05 72.84,18.71 69.69,13.39 71.33,12.32 75.79,15.45 
			73.21,11.09 74.21,10.44 77.35,15.77 		"/>
	</g>
	<g>
		<polygon fill="#FFFFFF" points="79.65,14.7 77.3,8.93 78.53,8.38 80.86,14.15 		"/>
	</g>
	<g>
		<path fill="#FFFFFF" d="M86.03,12.49c-1.86,0.53-3.44-0.2-3.97-2.21c-0.49-1.9,0.58-3.52,2.34-4.02c0.46-0.13,1.04-0.2,1.49-0.2
			l0.21,1.01c-0.39-0.05-0.86-0.02-1.25,0.09c-1.23,0.35-1.77,1.46-1.46,2.71c0.33,1.29,1.28,1.93,2.55,1.57
			c0.42-0.13,0.83-0.31,1.16-0.61l0.3,0.96C87.05,12.12,86.5,12.36,86.03,12.49"/>
	</g>
	<g>
		<polygon fill="#FFFFFF" points="96.93,6.52 96.8,11.68 95.47,11.64 95.59,6.48 93.71,6.44 93.75,5.34 98.82,5.45 98.79,6.57 		"/>
	</g>
	<g>
		<polygon fill="#FFFFFF" points="100.44,11.95 101.51,5.8 105.34,6.52 105.17,7.47 102.62,6.98 102.34,8.6 104.78,9.06 104.6,10 
			102.18,9.52 101.88,11.25 104.5,11.75 104.34,12.69 		"/>
	</g>
	<g>
		<polygon fill="#FFFFFF" points="109.91,14.64 109.35,11.71 107.06,13.54 105.71,13 108.84,10.74 107.99,7.22 109.42,7.77 
			109.94,10.4 111.96,8.75 113.28,9.26 110.43,11.36 111.38,15.19 		"/>
	</g>
	<g>
		<polygon fill="#FFFFFF" points="117.23,12.74 114.79,17.22 113.63,16.52 116.07,12.06 114.46,11.09 114.97,10.13 119.38,12.76 
			118.85,13.72 		"/>
	</g>
	<g>
		<polygon fill="#FFFFFF" points="117.85,19.35 121.46,14.37 122.51,15.2 118.9,20.19 		"/>
	</g>
	<g>
		<polygon fill="#FFFFFF" points="121.32,21.68 125.53,17.25 126.48,18.23 123,21.88 124.83,23.78 124.08,24.57 		"/>
	</g>
	<g>
		<polygon fill="#FFFFFF" points="125.18,25.95 129.98,22.23 132.3,25.51 131.56,26.08 130.01,23.89 128.76,24.86 130.22,26.94 
			129.5,27.51 128.03,25.43 126.69,26.46 128.27,28.73 127.54,29.3 		"/>
	</g>
	<g>
		<path fill="#FFFFFF" d="M131.14,37.02c-0.21-0.61-0.37-1.25-0.4-1.9l0.97-0.33c-0.07,0.61,0.05,1.2,0.25,1.77
			c0.19,0.55,0.58,1.05,1.18,0.83c0.42-0.17,0.44-0.88,0.46-1.36l0.04-0.7c0.03-0.81,0.25-1.47,1.02-1.77
			c1.21-0.48,2.07,0.68,2.44,1.75c0.18,0.5,0.3,1.01,0.35,1.55l-0.93,0.31c0.02-0.48-0.09-1-0.25-1.46
			c-0.18-0.48-0.54-1.11-1.11-0.88c-0.39,0.15-0.4,0.74-0.42,1.18l-0.02,0.72c-0.02,0.88-0.19,1.6-1.07,1.95
			C132.44,39.16,131.54,38.18,131.14,37.02"/>
	</g>
	<g>
		<polygon fill="#FFFFFF" points="137.88,42.81 133.07,43.84 132.8,42.47 137.62,41.44 137.25,39.51 138.27,39.29 139.29,44.5 
			138.25,44.72 		"/>
	</g>
	<g>
		<path fill="#FFFFFF" d="M133.75,51.7l1.48-0.61l-0.09-2.65l-1.51-0.52l-0.04-1.36l6.04,2.17l0.05,1.82l-5.88,2.6L133.75,51.7z
			 M138.81,49.66l-2.76-0.96l0.07,2.1L138.81,49.66z"/>
	</g>
	<g>
		<polygon fill="#FFFFFF" points="133.1,58.37 138.27,56.92 133.45,56.11 133.63,54.89 139.53,55.89 139.22,57.89 134.05,59.37 
			138.86,60.18 138.67,61.39 132.79,60.4 		"/>
	</g>
	<g>
		<path fill="#FFFFFF" d="M131.42,64.88l0.7-1.97l5.59,2.23l-0.79,2.17c-0.68,1.9-2.04,2.6-3.86,1.88
			C131.15,68.41,130.73,66.79,131.42,64.88 M136.14,66.75l0.25-0.68l-3.88-1.55L132.33,65c-0.47,1.33-0.07,2.27,1.21,2.78
			C134.67,68.25,135.69,68.01,136.14,66.75z"/>
	</g>
	<g>
		<path fill="#FFFFFF" d="M127.32,73.41l1.55,0.33l1.32-2.28l-1-1.29l0.67-1.18l3.93,5.29l-0.9,1.57l-6.29-1.2L127.32,73.41z
			 M132.63,74.58l-1.81-2.39l-1.04,1.79L132.63,74.58z"/>
	</g>
	<g>
		<path fill="#FFFFFF" d="M123.41,78.53l1.69,0.7c0.58,0.24,0.79,0.26,1.23-0.26l0.32-0.39l-1.86-1.71l0.86-1.01l4.48,4.15
			l-1.62,1.92c-0.67,0.81-1.63,1.33-2.53,0.5c-0.61-0.57-0.58-1.4-0.18-2.08c-0.44,0.35-0.79,0.33-1.3,0.13l-2.06-0.81L123.41,78.53
			z M128.19,80.9l0.42-0.5l-1.3-1.2l-0.4,0.48c-0.4,0.48-0.69,1.11-0.16,1.6C127.29,81.75,127.76,81.4,128.19,80.9z"/>
	</g>
	<g>
		<path fill="#FFFFFF" d="M119.56,82.25l1.58-1.31l3.69,4.92l-1.74,1.44c-1.51,1.25-3.02,1.14-4.23-0.48
			C117.61,85.14,118.03,83.52,119.56,82.25 M122.69,86.41l0.54-0.44l-2.56-3.41l-0.39,0.31c-1.07,0.88-1.18,1.9-0.33,3.04
			C120.7,86.89,121.7,87.24,122.69,86.41z"/>
	</g>
	<g>
		<path fill="#FFFFFF" d="M85.4,95.92c-1.86-0.5-2.92-1.97-2.42-4c0.46-1.93,2.16-2.78,3.95-2.3c0.58,0.15,1.23,0.42,1.74,0.76
			l-0.3,1.01c-0.4-0.37-0.91-0.59-1.41-0.74c-1.28-0.33-2.32,0.3-2.63,1.64c-0.3,1.22,0.07,2.34,1.32,2.67
			c0.32,0.09,0.61,0.13,0.95,0.09l0.32-1.31l-0.77-0.2l0.21-0.88l1.91,0.5l-0.7,2.95C86.82,96.18,86.1,96.1,85.4,95.92"/>
	</g>
	<g>
		<path fill="#FFFFFF" d="M92.85,97.08c-1.9-0.13-2.83-1.46-2.7-3.41c0.12-1.9,1.25-3.13,3.11-3c1.9,0.13,2.85,1.46,2.72,3.41
			C95.83,95.99,94.71,97.21,92.85,97.08 M93.16,91.64c-1.16-0.07-1.6,1.14-1.67,2.14c-0.07,1.01,0.25,2.27,1.39,2.36
			c1.18,0.07,1.62-1.11,1.67-2.14C94.64,92.95,94.36,91.72,93.16,91.64z"/>
	</g>
	<g>
		<polygon fill="#FFFFFF" points="100.29,91.83 100.78,96.93 99.47,97.08 98.98,91.98 97.13,92.16 97.03,91.05 102.05,90.54 
			102.15,91.63 		"/>
	</g>
	<g>
		<path fill="#FFFFFF" d="M106.63,95.94c-0.58,0.17-1.19,0.26-1.79,0.22l-0.21-1.01c0.56,0.13,1.12,0.07,1.67-0.07
			c0.53-0.15,1.04-0.5,0.88-1.12c-0.11-0.46-0.77-0.53-1.23-0.61l-0.63-0.11c-0.74-0.11-1.33-0.41-1.55-1.2
			c-0.32-1.29,0.84-2.03,1.86-2.32c0.47-0.13,0.97-0.2,1.46-0.2l0.19,0.99c-0.44-0.07-0.93-0.02-1.37,0.09
			c-0.46,0.13-1.07,0.44-0.93,1.03c0.11,0.4,0.65,0.5,1.05,0.53l0.67,0.07c0.83,0.11,1.48,0.37,1.7,1.29
			C108.74,94.81,107.74,95.62,106.63,95.94"/>
	</g>
	<g>
		<polygon fill="#FFFFFF" points="76.62,90.28 77.14,89.11 78.38,89.72 77.86,90.89 		"/>
	</g>
	<g>
		<polygon fill="#FFFFFF" points="113.2,90.87 112.69,89.73 113.92,89.1 114.45,90.26 		"/>
	</g>
	<g>
		<path fill="#FFFFFF" d="M95.67,16.17c-18.34,0-33.18,15.59-33.18,34.8c0,19.23,14.86,34.8,33.18,34.8s33.18-15.59,33.18-34.8
			C128.85,31.75,113.99,16.17,95.67,16.17 M95.04,73.66H83.66V48.68l-7.48,7.85l-8.04-8.44l18.76-19.68l8.15,8.55V73.66z
			 M115.19,56.51l-7.47-7.83v24.98H96.34v-36.7l8.13-8.53l18.76,19.64L115.19,56.51z"/>
	</g>
</g>
</svg>
