<?xml version="1.0" encoding="utf-8"?>
<!-- Generator: Adobe Illustrator 27.6.1, SVG Export Plug-In . SVG Version: 6.00 Build 0)  -->
<svg version="1.1" id="Layer_1" xmlns="http://www.w3.org/2000/svg" xmlns:xlink="http://www.w3.org/1999/xlink" x="0px" y="0px"
	 viewBox="0 0 191.36 102.43" enable-background="new 0 0 191.36 102.43" xml:space="preserve">
<g>
	<g>
		<path fill-rule="evenodd" clip-rule="evenodd" fill="#FFFFFF" d="M91.77,38.28l9.66,8.52l-0.56-14.04l-3.12,4.86
			c-2.29-4.56-6.33-9.63-13.44-13.29c-16.35-8.41-31.89-4.41-41.38,4.52c-9.49,8.93-20.42,25.64-7.23,50.76
			c0,0-13.82-27.11,8.76-48.13c0,0,6.75-7.13,18.26-8.71c11.6-1.59,24.73,2.72,33.87,15.14L91.77,38.28z M44.27,51.51
			c-0.01-1.15,0.06-2.36,0.22-3.61c0.42-3.28,1.24-5.72,2.11-7.49c-4.05,4.4-6.32,9.65-7.17,15.78
			C40.59,54.79,42.21,53.2,44.27,51.51z M73.99,37.04c2.17,1.87,3.63,3.88,4.59,5.51c2.27-2.34,4.16-4.77,3.89-6.14
			C82.2,35.01,78.67,35.53,73.99,37.04z M81.33,34.64c-5.87-3.65-12.62-4.84-20.7-2.64c1.65,0.04,3.55,0.25,5.53,0.8
			c0.71-0.95,0.99-1.56,0.99-1.56S67,31.89,66.52,32.9c1.46,0.43,2.94,1.04,4.39,1.91c0.84,0.5,1.61,1.04,2.31,1.6
			C76.75,35.22,79.6,34.57,81.33,34.64z M51.6,42.62c0.04,1.28,0.31,2.45,0.63,3.41c-2.29,1.35-4.33,2.71-6.1,4.04
			c0.22-3.02,0.73-5.5,1.38-7.54C48.28,42.65,49.72,42.8,51.6,42.62z M64.93,39.66c-0.52-0.6-1.2-1.29-2.07-2
			c-0.96,0.86-2.13,1.72-3.55,2.51c-2.41,1.34-4.69,2.01-6.62,2.32c-0.01,1.21,0.07,2.28,0.17,3.17c1.02-0.59,2.08-1.17,3.2-1.75
			C59.11,42.33,62.1,40.9,64.93,39.66z M63.53,37.03L63.53,37.03c0.91,0.94,1.54,1.73,1.97,2.38c2-0.87,3.91-1.63,5.68-2.28
			c-1.46-0.93-3.11-1.79-4.95-2.52c-0.19-0.07-0.37-0.15-0.56-0.21C65.16,35.2,64.46,36.11,63.53,37.03z M56.82,34.21
			c0,0,2.89-0.48,5.92,2.08c0.93-0.75,1.69-1.48,2.29-2.13c-3.27-1.15-5.63-1.38-7.3-1.23c-1.16,0.41-2.34,0.9-3.55,1.45
			c-1.46,0.87-2.81,1.79-4.04,2.77c-0.9,1.26-1.84,2.99-2.6,5.32c0.74,0.01,2.11-0.06,4.07-0.56c0.14-3.82,1.99-6.35,1.99-6.35
			c-0.56,2.23-0.81,4.26-0.87,6.03c1.5-0.47,3.28-1.18,5.31-2.24c1.51-0.79,2.79-1.61,3.87-2.41
			C60.58,35.97,58.91,35.02,56.82,34.21z M40.34,75.23c-2.09-4.72-3.06-9.7-3.05-14.58l0-0.01c-0.06-0.23-0.05-0.5,0.01-0.81
			c0.29-11.69,6.22-22.61,15.94-27.44c15.37-7.63,29.61-1.91,38.34,11.94c-2.56-3.3-5.27-6.11-8.19-8.29
			c0.35,1.62-0.99,4.3-4.33,7.38c0.77,1.46,1.06,2.44,1.06,2.44s-0.48-0.83-1.47-2.07c-1.75,1.56-4.01,3.2-6.81,4.86
			c0,0,3.3-2.64,6.23-5.58c-1.33-1.56-3.31-3.55-5.99-5.38c-1.95,0.7-4.03,1.53-6.12,2.44c0.63,1.18,0.48,1.7,0.48,1.7
			s-0.26-0.59-0.94-1.49c-3.82,1.69-7.63,3.62-10.62,5.44c-0.61,0.37-1.21,0.75-1.8,1.13c0.21,1.16,0.42,1.81,0.42,1.81
			s-0.39-0.58-0.81-1.56c-2.44,1.6-4.68,3.26-6.63,4.84c-0.08,3.11,0.14,6.74,0.79,10.94c0,0-2.05-3.8-2.48-9.54
			c-2.36,2.03-4.16,3.85-5.18,5.12c-0.06,0.78-0.1,1.57-0.13,2.38c1.84,0.71,6.19,0.71,6.44,0.66c0,0-4.04,0.82-6.46,0.3
			C38.99,65.99,39.46,70.44,40.34,75.23z M61.98,55.2h-3.75v1.45h2.03v3.37c-0.26,0.14-0.8,0.25-1.57,0.25
			c-2.3,0-3.92-1.59-3.92-4.6c0-3.03,1.74-4.57,4.15-4.57c1.08,0,1.78,0.2,2.33,0.45l0.4-1.48c-0.58-0.3-1.58-0.5-2.73-0.5
			c-3.52,0-6.02,2.31-6.02,6.17c0,1.9,0.65,6,5.73,6c1.4,0,2.69-0.34,3.35-0.61V55.2z M65.8,49.12h-1.78v12.51h1.78V49.12z
			 M73.55,57.31c0,1.72-0.8,3.13-2.09,3.13c-1.31,0-2.09-1.42-2.09-3.1c0-1.48,0.58-3.13,2.1-3.13
			C72.96,54.21,73.55,55.89,73.55,57.31z M71.53,52.85c-2.24,0-3.99,1.64-3.99,4.54c0,2.78,1.67,4.41,3.87,4.41
			c1.9,0,3.96-1.33,3.96-4.54C75.38,54.63,73.85,52.85,71.53,52.85z M78.92,56.54c0-1.14,0.83-2.25,1.95-2.25
			c1.41,0,2.1,1.36,2.1,2.98c0,1.84-0.75,3.07-2.12,3.07c-1.17,0-1.94-1.03-1.94-2.12V56.54z M78.92,54.24v-5.11h-1.78v10.21
			c0,0.78-0.03,1.72-0.06,2.29h1.52l0.09-1.29h0.05c0.57,1.01,1.41,1.47,2.5,1.47c1.75,0,3.55-1.47,3.55-4.6
			c0-2.62-1.34-4.35-3.27-4.35c-1.18,0-2.06,0.51-2.57,1.39H78.92z M90.74,58.73c0,1-0.8,1.75-1.77,1.75
			c-0.66,0-1.24-0.42-1.24-1.37c0-1.53,1.61-1.79,3.01-1.79V58.73z M92.47,56.34c0-1.82-0.69-3.49-3.18-3.49
			c-1.14,0-2.14,0.33-2.73,0.72l0.37,1.2c0.54-0.36,1.31-0.59,2.06-0.59c1.71,0,1.71,1.28,1.71,1.92c-2.9,0-4.73,1.06-4.73,3.2
			c0,1.33,0.91,2.51,2.49,2.51c1.06,0,1.89-0.5,2.37-1.17h0.05l0.12,1h1.61c-0.11-0.56-0.12-1.31-0.12-2.04V56.34z M96.5,49.12
			h-1.78v12.51h1.78V49.12z M104.07,55.22v-4.1c0.22-0.06,0.65-0.11,1.24-0.11c1.28,0,2.35,0.53,2.35,2.07
			c0,1.28-0.92,2.14-2.4,2.14H104.07z M107.34,55.92c1.18-0.45,2.1-1.5,2.1-3.03c0-0.97-0.32-1.79-0.94-2.34
			c-0.74-0.67-1.81-0.95-3.35-0.95c-1.06,0-2.1,0.11-2.86,0.25v11.77h1.77v-5.05h1.08c1.24,0,1.81,0.61,2.14,2.2
			c0.29,1.47,0.57,2.51,0.74,2.85h1.84c-0.23-0.45-0.52-1.68-0.88-3.24c-0.28-1.26-0.77-2.11-1.64-2.43V55.92z M112.57,56.45
			c0.09-1,0.65-2.31,1.95-2.31c1.37,0,1.78,1.28,1.77,2.31H112.57z M117.25,60.01c-0.55,0.23-1.2,0.41-2.14,0.41
			c-1.34,0-2.52-0.73-2.57-2.67h5.38c0.03-0.22,0.05-0.47,0.05-0.76c0-2.12-0.95-4.13-3.33-4.13c-2.4,0-3.81,2.04-3.81,4.6
			c0,2.62,1.47,4.35,4.02,4.35c1.15,0,2.09-0.23,2.69-0.51L117.25,60.01z M125.15,60.01c-0.4,0.17-0.89,0.34-1.6,0.34
			c-1.47,0-2.57-1.12-2.57-3.01c0-1.68,0.92-3.06,2.58-3.06c0.72,0,1.21,0.19,1.52,0.34l0.35-1.39c-0.37-0.19-1.08-0.39-1.89-0.39
			c-2.72,0-4.38,1.96-4.38,4.57c0,2.68,1.6,4.38,4.04,4.38c0.98,0,1.78-0.25,2.18-0.44L125.15,60.01z M131.81,53.04l-1.37,4.83
			c-0.15,0.58-0.32,1.22-0.45,1.72h-0.05c-0.12-0.5-0.29-1.15-0.46-1.72l-1.54-4.83h-1.95l2.9,7.92c0.08,0.17,0.09,0.28,0.09,0.37
			c0,0.23-0.66,1.98-2.5,2.65l0.46,1.53c0.41-0.09,1.2-0.39,1.97-1.11c1.01-1,1.72-2.59,2.72-5.41l2.04-5.96H131.81z M140.4,60.01
			c-0.4,0.17-0.89,0.34-1.6,0.34c-1.47,0-2.57-1.12-2.57-3.01c0-1.68,0.92-3.06,2.58-3.06c0.72,0,1.21,0.19,1.52,0.34l0.35-1.39
			c-0.37-0.19-1.08-0.39-1.89-0.39c-2.72,0-4.38,1.96-4.38,4.57c0,2.68,1.6,4.38,4.04,4.38c0.98,0,1.78-0.25,2.18-0.44L140.4,60.01z
			 M144.03,49.12h-1.78v12.51h1.78V49.12z M147.51,56.45c0.09-1,0.65-2.31,1.95-2.31c1.37,0,1.78,1.28,1.77,2.31H147.51z
			 M152.2,60.01c-0.55,0.23-1.2,0.41-2.14,0.41c-1.34,0-2.52-0.73-2.57-2.67h5.38c0.03-0.22,0.05-0.47,0.05-0.76
			c0-2.12-0.95-4.13-3.33-4.13c-2.4,0-3.81,2.04-3.81,4.6c0,2.62,1.47,4.35,4.02,4.35c1.15,0,2.09-0.23,2.69-0.51L152.2,60.01z
			 M159.93,58.1c0,1.2-0.75,2.23-1.9,2.23c-1.35,0-2.09-1.29-2.09-2.98c0-1.7,0.75-3.07,2.12-3.07c1,0,1.87,0.83,1.87,2.23V58.1z
			 M161.71,49.12h-1.78V54h-0.03c-0.37-0.65-1.15-1.15-2.24-1.15c-1.89,0-3.53,1.65-3.53,4.57c0,2.65,1.46,4.38,3.38,4.38
			c1.2,0,2.12-0.64,2.57-1.51h0.05l0.09,1.34h1.57c-0.03-0.59-0.06-1.51-0.06-2.29V49.12z M90.74,64.06
			c-0.51-0.27-1.35-0.55-2.47-0.55c-2.33,0-3.82,1.42-3.82,3.31c0,1.62,1.18,2.7,2.93,3.41c1.4,0.59,2,1.22,2,2.23
			c0,1.08-0.78,1.81-2.18,1.81c-0.97,0-1.92-0.31-2.55-0.7l-0.4,1.51c0.57,0.39,1.74,0.72,2.84,0.72c2.64,0,4.1-1.5,4.1-3.49
			c0-1.64-0.91-2.68-2.8-3.52c-1.49-0.65-2.15-1.15-2.15-2.17c0-0.76,0.58-1.59,1.98-1.59c0.97,0,1.71,0.31,2.09,0.53L90.74,64.06z
			 M93.35,67.04h-1.2v1.36h1.2v4.44c0,1.12,0.2,1.84,0.63,2.31c0.37,0.42,0.97,0.66,1.67,0.66c0.6,0,1.08-0.08,1.38-0.2l-0.06-1.39
			c-0.22,0.06-0.43,0.11-0.78,0.11c-0.75,0-1.08-0.51-1.08-1.57V68.4h2.01v-1.36h-2.01v-2.12l-1.77,0.56V67.04z M102.86,72.73
			c0,1-0.8,1.75-1.77,1.75c-0.66,0-1.24-0.42-1.24-1.37c0-1.53,1.61-1.79,3.01-1.79V72.73z M104.6,70.34c0-1.82-0.69-3.49-3.18-3.49
			c-1.14,0-2.14,0.33-2.73,0.72l0.37,1.2c0.54-0.36,1.31-0.59,2.06-0.59c1.71,0,1.71,1.28,1.71,1.92c-2.9,0-4.73,1.06-4.73,3.2
			c0,1.33,0.91,2.51,2.49,2.51c1.06,0,1.89-0.5,2.37-1.17h0.05l0.12,1h1.61c-0.11-0.56-0.12-1.31-0.12-2.04V70.34z M113.83,70.38
			c0-2.65-1.47-3.52-2.8-3.52c-1.28,0-2.17,0.73-2.57,1.47h-0.05l-0.09-1.28h-1.55c0.03,0.73,0.06,1.47,0.06,2.42v6.17h1.78v-5.18
			c0-1.37,0.94-2.11,1.81-2.11c1.21,0,1.61,1.03,1.61,2.25v5.04h1.78V70.38z M121.36,72.11c0,1.2-0.75,2.23-1.9,2.23
			c-1.35,0-2.09-1.29-2.09-2.98c0-1.7,0.75-3.07,2.12-3.07c1,0,1.87,0.83,1.87,2.23V72.11z M123.14,63.12h-1.78v4.88h-0.03
			c-0.37-0.66-1.15-1.15-2.24-1.15c-1.89,0-3.53,1.65-3.53,4.57c0,2.65,1.46,4.38,3.38,4.38c1.2,0,2.12-0.64,2.57-1.51h0.05
			l0.09,1.34h1.57c-0.03-0.59-0.06-1.51-0.06-2.29V63.12z M129.61,72.73c0,1-0.8,1.75-1.77,1.75c-0.66,0-1.24-0.42-1.24-1.37
			c0-1.53,1.61-1.79,3.01-1.79V72.73z M131.34,70.34c0-1.82-0.69-3.49-3.18-3.49c-1.14,0-2.14,0.33-2.73,0.72l0.37,1.2
			c0.54-0.36,1.31-0.59,2.06-0.59c1.71,0,1.71,1.28,1.71,1.92c-2.9,0-4.73,1.06-4.73,3.2c0,1.33,0.91,2.51,2.49,2.51
			c1.06,0,1.89-0.5,2.37-1.17h0.05l0.12,1h1.61c-0.11-0.56-0.12-1.31-0.12-2.04V70.34z M137.84,66.9c-0.15-0.03-0.28-0.05-0.45-0.05
			c-0.92,0-1.81,0.67-2.2,1.76h-0.06l-0.06-1.57h-1.55c0.05,0.8,0.06,1.62,0.06,2.62v5.97h1.78v-4.55c0-1.5,0.75-2.49,1.95-2.49
			c0.2,0,0.37,0.02,0.52,0.05V66.9z M144.51,72.11c0,1.2-0.75,2.23-1.9,2.23c-1.35,0-2.09-1.29-2.09-2.98c0-1.7,0.75-3.07,2.12-3.07
			c1,0,1.87,0.83,1.87,2.23V72.11z M146.29,63.12h-1.78v4.88h-0.03c-0.37-0.66-1.15-1.15-2.24-1.15c-1.89,0-3.53,1.65-3.53,4.57
			c0,2.65,1.46,4.38,3.38,4.38c1.2,0,2.12-0.64,2.57-1.51h0.05l0.09,1.34h1.57c-0.03-0.59-0.06-1.51-0.06-2.29V63.12z M53.59,79.52
			L48.4,65.95l12.66,5.69l-3.6,1.61c2.13,1.29,5.71,3.24,10.48,4.98c8.06,2.95,20.65,1.2,20.65,1.2s-6.85,4.71-18.77,2.87
			c-7.91-1.22-12.4-4.65-14.53-6.81L53.59,79.52z"/>
	</g>
	<g>
		<path fill="#FFFFFF" d="M75.27,82.73c-1.78,0-3.6-0.14-5.44-0.43c-3.5-0.54-6.68-1.57-9.43-3.05c-1.09-0.58-2.11-1.24-3.04-1.95
			c-0.75-0.57-1.44-1.18-2.06-1.81l-1.7,4.03l0,0L48.4,65.95l12.66,5.69l-3.6,1.61c2.16,1.31,5.74,3.24,10.48,4.98
			c1.84,0.67,4.07,1.16,6.63,1.43c1.73,0.19,3.62,0.28,5.63,0.28c0.36,0,0.73,0,1.09-0.01c4.11-0.07,7.27-0.5,7.3-0.51
			c0,0-0.44,0.3-1.26,0.71c-0.76,0.38-2,0.93-3.66,1.42c-1.86,0.55-3.84,0.91-5.89,1.07C76.96,82.69,76.12,82.73,75.27,82.73z
			 M55.29,75.49c0.62,0.63,1.31,1.24,2.06,1.81c0.93,0.71,1.96,1.37,3.04,1.95c2.76,1.48,5.93,2.51,9.43,3.05
			c2.72,0.42,5.4,0.53,7.96,0.33c2.05-0.16,4.03-0.52,5.89-1.07c1.65-0.49,2.9-1.04,3.66-1.42c0.82-0.41,1.25-0.7,1.26-0.71
			c-0.03,0-3.19,0.44-7.3,0.51c-0.37,0.01-0.73,0.01-1.09,0.01c-2,0-3.89-0.09-5.63-0.28c-2.56-0.28-4.79-0.76-6.63-1.43
			c-4.74-1.74-8.32-3.67-10.48-4.98l3.6-1.61L48.4,65.95l5.19,13.57L55.29,75.49z M35.69,79.6c-1.6-3.04-2.9-6.08-3.87-9.03
			c-0.91-2.78-1.55-5.55-1.9-8.24c-0.33-2.52-0.41-5.04-0.24-7.47c0.16-2.27,0.53-4.52,1.12-6.71c0.54-2.01,1.28-4.02,2.18-5.95
			c0.83-1.76,1.82-3.51,2.95-5.2c1.91-2.85,4.26-5.6,6.99-8.17c2.42-2.28,5.17-4.18,8.17-5.66c3.13-1.54,6.48-2.59,9.95-3.11
			c3.68-0.55,7.46-0.5,11.23,0.15c4.04,0.69,8.09,2.07,12.03,4.1c1.71,0.88,3.32,1.88,4.78,2.98c1.35,1.01,2.61,2.13,3.75,3.33
			c1.97,2.07,3.63,4.42,4.91,6.99l3.12-4.86l0.56,14.04l-9.66-8.52h0l4.81-0.39c-2.21-3.01-4.74-5.64-7.51-7.83
			c-2.62-2.07-5.48-3.75-8.5-4.99c-4.21-1.74-8.71-2.63-13.22-2.63c-1.55,0-3.1,0.1-4.64,0.32c-2.63,0.36-5.22,1.04-7.71,2.03
			c-1.99,0.79-3.92,1.77-5.74,2.92c-1.62,1.02-2.84,1.99-3.58,2.62c-0.8,0.69-1.23,1.13-1.23,1.14c-1.38,1.28-2.66,2.63-3.82,4
			c-1.11,1.32-2.13,2.7-3.04,4.1c-1.69,2.61-3.05,5.4-4.04,8.28c-1.66,4.86-2.32,10.1-1.95,15.56c0.14,2.15,0.45,4.33,0.91,6.5
			c0.37,1.73,0.83,3.46,1.38,5.12C34.81,77.85,35.67,79.56,35.69,79.6C35.69,79.6,35.69,79.6,35.69,79.6S35.69,79.6,35.69,79.6
			S35.69,79.6,35.69,79.6z M66.16,19.7c-1.72,0-3.43,0.13-5.12,0.38c-3.47,0.52-6.81,1.56-9.95,3.11c-3,1.48-5.75,3.38-8.17,5.66
			c-2.73,2.57-5.08,5.31-6.99,8.17c-1.13,1.68-2.12,3.43-2.95,5.2c-0.91,1.93-1.64,3.93-2.18,5.95c-0.59,2.18-0.96,4.44-1.12,6.71
			c-0.17,2.43-0.09,4.95,0.24,7.47c0.35,2.69,0.99,5.46,1.9,8.24c0.97,2.95,2.27,5.98,3.86,9.02c-0.03-0.07-0.89-1.77-1.81-4.56
			c-0.55-1.67-1.01-3.39-1.38-5.12c-0.46-2.17-0.76-4.35-0.91-6.5c-0.37-5.46,0.29-10.7,1.95-15.56c0.99-2.89,2.35-5.68,4.04-8.28
			c0.91-1.4,1.93-2.78,3.04-4.1c1.16-1.38,2.44-2.72,3.82-4c0,0,0.43-0.45,1.23-1.14c0.74-0.63,1.96-1.6,3.58-2.62
			c1.82-1.15,3.75-2.13,5.74-2.92c2.49-0.98,5.08-1.67,7.71-2.03c6.03-0.83,12.2-0.03,17.86,2.31c3.02,1.25,5.87,2.93,8.5,4.99
			c2.77,2.19,5.3,4.82,7.51,7.83l-4.81,0.39l9.66,8.52l-0.56-14.04l-3.12,4.86c-1.29-2.56-2.94-4.91-4.91-6.99
			c-1.14-1.2-2.4-2.32-3.75-3.33c-1.47-1.1-3.07-2.1-4.78-2.98c-3.94-2.03-7.99-3.41-12.03-4.1C70.23,19.88,68.18,19.7,66.16,19.7z
			 M142.08,75.8c-0.47,0-0.92-0.1-1.34-0.31c-0.41-0.2-0.77-0.5-1.07-0.89c-0.31-0.39-0.55-0.85-0.71-1.38
			c-0.17-0.55-0.26-1.16-0.26-1.8c0-1.38,0.37-2.55,1.06-3.38c0.64-0.77,1.52-1.19,2.48-1.19c1,0,1.84,0.43,2.24,1.15h0.03l0-4.88
			l1.78,0v10.21c0,0.82,0.03,1.75,0.06,2.29l-1.57,0l-0.09-1.34l-0.05,0c-0.23,0.45-0.57,0.82-1,1.08
			C143.19,75.65,142.65,75.8,142.08,75.8z M142.23,66.85c-0.96,0-1.84,0.42-2.47,1.19c-0.69,0.83-1.06,2-1.06,3.38
			c0,0.65,0.09,1.25,0.26,1.8c0.16,0.53,0.4,0.99,0.71,1.38c0.3,0.38,0.66,0.68,1.07,0.88c0.41,0.21,0.86,0.31,1.34,0.31
			c0.57,0,1.11-0.15,1.56-0.43c0.43-0.26,0.77-0.64,1-1.08h0.05l0.09,1.34l1.57,0c-0.03-0.55-0.06-1.47-0.06-2.29V63.12h-1.78
			l0,4.88l-0.03,0C144.07,67.28,143.23,66.85,142.23,66.85z M127.32,75.8c-0.75,0-1.38-0.26-1.84-0.76
			c-0.42-0.46-0.65-1.08-0.65-1.75c0-0.52,0.11-1,0.33-1.4c0.21-0.39,0.53-0.73,0.95-1c0.41-0.26,0.91-0.46,1.49-0.6
			c0.58-0.13,1.24-0.2,1.96-0.2c0-0.32,0-0.8-0.21-1.2c-0.25-0.48-0.76-0.72-1.49-0.72c-0.73,0-1.5,0.22-2.06,0.59l-0.37-1.2
			c0.32-0.21,0.72-0.38,1.17-0.51c0.5-0.14,1.03-0.21,1.57-0.21c1.15,0,1.99,0.36,2.52,1.06c0.44,0.58,0.66,1.4,0.66,2.43v3.24
			c0,0.73,0.01,1.48,0.12,2.04l-1.61,0l-0.12-1l-0.05,0c-0.25,0.35-0.58,0.64-0.96,0.84C128.3,75.69,127.82,75.8,127.32,75.8z
			 M127.86,68.18c0.74,0,1.24,0.24,1.49,0.72c0.21,0.4,0.21,0.88,0.21,1.2c-0.73,0-1.39,0.07-1.96,0.2
			c-0.58,0.13-1.08,0.33-1.49,0.6c-0.41,0.27-0.73,0.6-0.95,1c-0.22,0.41-0.33,0.88-0.33,1.4c0,0.67,0.23,1.3,0.65,1.75
			c0.46,0.5,1.09,0.76,1.84,0.76c0.51,0,0.98-0.11,1.4-0.33c0.38-0.2,0.72-0.49,0.96-0.84h0.05l0.12,1l1.61,0
			c-0.11-0.56-0.12-1.31-0.12-2.04v-3.24c0-1.03-0.22-1.85-0.66-2.43c-0.53-0.7-1.38-1.06-2.52-1.06c-0.54,0-1.06,0.07-1.57,0.21
			c-0.45,0.13-0.85,0.3-1.17,0.5l0.37,1.2C126.35,68.4,127.12,68.18,127.86,68.18z M118.93,75.8c-0.47,0-0.92-0.1-1.34-0.31
			c-0.41-0.2-0.77-0.5-1.07-0.89c-0.31-0.39-0.55-0.85-0.71-1.38c-0.17-0.55-0.26-1.16-0.26-1.8c0-1.38,0.37-2.55,1.06-3.38
			c0.64-0.77,1.52-1.19,2.48-1.19c1,0,1.84,0.43,2.24,1.15h0.03l0-4.88l1.78,0v10.21c0,0.81,0.03,1.74,0.06,2.29l-1.57,0l-0.09-1.34
			l-0.05,0c-0.23,0.45-0.57,0.82-1,1.08C120.04,75.65,119.5,75.8,118.93,75.8z M119.08,66.85c-0.96,0-1.84,0.42-2.47,1.19
			c-0.69,0.83-1.06,2-1.06,3.38c0,0.65,0.09,1.25,0.26,1.8c0.16,0.53,0.4,0.99,0.71,1.38c0.3,0.38,0.66,0.68,1.07,0.88
			c0.41,0.21,0.86,0.31,1.34,0.31c0.57,0,1.11-0.15,1.56-0.43c0.43-0.26,0.77-0.64,1-1.08h0.05l0.09,1.34l1.57,0
			c-0.03-0.55-0.06-1.48-0.06-2.29V63.12h-1.78l0,4.88l-0.03,0C120.92,67.28,120.08,66.85,119.08,66.85z M100.57,75.8
			c-0.75,0-1.38-0.26-1.84-0.76c-0.42-0.46-0.65-1.08-0.65-1.75c0-0.52,0.11-1,0.33-1.4c0.21-0.39,0.53-0.73,0.95-1
			c0.41-0.26,0.91-0.46,1.49-0.6c0.58-0.13,1.24-0.2,1.96-0.2c0-0.32,0-0.8-0.21-1.2c-0.25-0.48-0.76-0.72-1.49-0.72
			c-0.73,0-1.5,0.22-2.06,0.59l-0.37-1.2c0.32-0.21,0.72-0.38,1.17-0.51c0.5-0.14,1.03-0.21,1.57-0.21c1.15,0,1.99,0.36,2.52,1.06
			c0.44,0.58,0.66,1.4,0.66,2.43v3.24c0,0.73,0.01,1.48,0.12,2.04l-1.61,0l-0.12-1l-0.05,0c-0.25,0.35-0.58,0.64-0.96,0.84
			C101.55,75.69,101.08,75.8,100.57,75.8z M101.11,68.18c0.74,0,1.24,0.24,1.49,0.72c0.21,0.4,0.21,0.88,0.21,1.2
			c-0.73,0-1.39,0.07-1.96,0.2c-0.58,0.13-1.08,0.33-1.49,0.6c-0.41,0.27-0.73,0.6-0.95,1c-0.22,0.41-0.33,0.88-0.33,1.4
			c0,0.67,0.23,1.3,0.65,1.75c0.46,0.5,1.09,0.76,1.84,0.76c0.51,0,0.98-0.11,1.4-0.33c0.38-0.2,0.72-0.49,0.96-0.84h0.05l0.12,1
			l1.61,0c-0.11-0.56-0.12-1.31-0.12-2.04v-3.24c0-1.03-0.22-1.85-0.66-2.43c-0.53-0.7-1.38-1.06-2.52-1.06
			c-0.54,0-1.07,0.07-1.57,0.21c-0.45,0.13-0.85,0.3-1.17,0.5l0.37,1.2C99.61,68.4,100.38,68.18,101.11,68.18z M95.66,75.8
			c-0.71,0-1.3-0.23-1.67-0.65c-0.22-0.24-0.37-0.53-0.48-0.91c-0.1-0.38-0.15-0.83-0.15-1.4V68.4l-1.2,0l0-1.36l1.2,0v-1.56
			l1.77-0.56l0,2.12l2.01,0l0,1.36l-2.01,0l0,4.35c0,0.54,0.08,0.93,0.26,1.18c0.18,0.26,0.44,0.39,0.82,0.39
			c0.34,0,0.55-0.04,0.78-0.11l0.06,1.39C96.72,75.73,96.23,75.8,95.66,75.8z M93.35,68.4l0,4.44c0,0.56,0.05,1.02,0.15,1.4
			c0.1,0.37,0.26,0.67,0.48,0.91c0.37,0.42,0.96,0.65,1.67,0.65c0.57,0,1.06-0.07,1.38-0.2l-0.06-1.39
			c-0.23,0.07-0.44,0.11-0.78,0.11c-0.38,0-0.64-0.13-0.82-0.39c-0.17-0.26-0.26-0.64-0.26-1.19V68.4l2.01,0l0-1.36l-2.01,0l0-2.12
			l-1.77,0.56l0,1.56h-1.2l0,1.36L93.35,68.4z M87.09,75.8c-1.04,0-2.24-0.3-2.84-0.72l0.4-1.51c0.33,0.2,0.72,0.37,1.15,0.5
			c0.46,0.13,0.95,0.2,1.4,0.2c0.67,0,1.23-0.17,1.61-0.5c0.37-0.32,0.57-0.77,0.57-1.31c0-0.51-0.15-0.92-0.47-1.27
			c-0.31-0.35-0.8-0.65-1.52-0.96c-0.92-0.38-1.64-0.84-2.12-1.37c-0.54-0.59-0.81-1.28-0.81-2.05c0-0.47,0.09-0.91,0.27-1.31
			c0.18-0.4,0.44-0.75,0.77-1.05c0.34-0.3,0.74-0.53,1.21-0.69c0.48-0.17,1.01-0.25,1.58-0.25c1.24,0,2.08,0.34,2.47,0.55h0l0,0
			l-0.43,1.5c-0.35-0.2-1.08-0.53-2.09-0.53c-1.37,0-1.98,0.8-1.98,1.59c0,0.5,0.16,0.88,0.52,1.22c0.32,0.3,0.81,0.59,1.63,0.95
			c0.97,0.43,1.66,0.91,2.11,1.46c0.46,0.57,0.69,1.25,0.69,2.06c0,0.5-0.09,0.97-0.27,1.39c-0.18,0.43-0.45,0.8-0.79,1.11
			C89.4,75.46,88.35,75.8,87.09,75.8z M84.64,73.57l-0.4,1.51c0.61,0.42,1.8,0.72,2.84,0.72c1.26,0,2.31-0.35,3.04-1
			c0.34-0.31,0.61-0.68,0.79-1.11c0.18-0.42,0.27-0.89,0.27-1.39c0-0.81-0.23-1.49-0.69-2.06c-0.45-0.55-1.14-1.03-2.11-1.46
			c-0.83-0.36-1.32-0.65-1.63-0.95c-0.36-0.34-0.52-0.71-0.52-1.22c0-0.79,0.61-1.59,1.98-1.59c1.01,0,1.74,0.33,2.09,0.53l0.43-1.5
			c-0.39-0.2-1.23-0.55-2.47-0.55c-0.57,0-1.1,0.08-1.58,0.25c-0.46,0.16-0.87,0.39-1.21,0.69c-0.33,0.3-0.59,0.65-0.77,1.05
			c-0.18,0.4-0.27,0.85-0.27,1.31c0,0.77,0.27,1.46,0.81,2.05c0.49,0.53,1.2,0.99,2.12,1.37c0.72,0.31,1.21,0.61,1.52,0.96
			c0.32,0.36,0.47,0.76,0.47,1.27c0,0.54-0.2,0.99-0.57,1.31c-0.38,0.33-0.94,0.5-1.62,0.5c-0.45,0-0.94-0.07-1.4-0.2
			C85.37,73.95,84.97,73.78,84.64,73.57z M133.59,75.63l0-5.97c0-1.09-0.02-1.88-0.06-2.62l1.55,0l0.06,1.58l0.06,0
			c0.19-0.53,0.5-0.97,0.9-1.29c0.39-0.31,0.84-0.47,1.3-0.47c0.18,0,0.3,0.02,0.45,0.05l0,0v1.73c-0.16-0.03-0.33-0.05-0.52-0.05
			c-1.19,0-1.95,0.98-1.95,2.49v4.55L133.59,75.63z M135.07,67.04l-1.55,0c0.04,0.74,0.06,1.52,0.06,2.62v5.97l1.78,0l0-4.55
			c0-1.52,0.77-2.5,1.95-2.5c0.2,0,0.37,0.02,0.52,0.05l0-1.73c-0.14-0.03-0.27-0.05-0.45-0.05c-0.46,0-0.91,0.16-1.3,0.47
			c-0.4,0.32-0.71,0.76-0.9,1.29h-0.06L135.07,67.04z M112.05,75.63l0-5.04c0-0.67-0.12-1.2-0.35-1.58
			c-0.27-0.44-0.7-0.67-1.26-0.67c-0.88,0-1.81,0.74-1.81,2.11v5.18l-1.78,0l0-6.18c0-0.94-0.03-1.68-0.06-2.39l0-0.03l1.55,0
			l0.09,1.28l0.05,0c0.39-0.71,1.26-1.47,2.57-1.47c0.74,0,1.41,0.27,1.89,0.77c0.28,0.29,0.5,0.66,0.65,1.09
			c0.17,0.48,0.25,1.04,0.25,1.67v5.25L112.05,75.63z M110.44,68.35c0.57,0,0.99,0.22,1.26,0.67c0.23,0.38,0.35,0.91,0.35,1.58v5.04
			l1.78,0l0-5.25c0-0.63-0.08-1.19-0.25-1.67c-0.15-0.43-0.37-0.8-0.65-1.09c-0.48-0.5-1.15-0.77-1.89-0.77
			c-1.3,0-2.18,0.76-2.57,1.47h-0.05l-0.09-1.28l-1.55,0l0,0.02c0.03,0.71,0.06,1.45,0.06,2.39v6.17l1.78,0l0-5.18
			C108.62,69.09,109.56,68.35,110.44,68.35z M40.34,75.23L40.34,75.23c-1.02-2.31-1.8-4.74-2.31-7.23
			c-0.49-2.41-0.74-4.88-0.74-7.35l0-0.01c-0.06-0.23-0.05-0.5,0.01-0.81c0.07-2.9,0.49-5.77,1.25-8.54
			c0.75-2.75,1.82-5.36,3.19-7.75c2.83-4.96,6.81-8.81,11.51-11.15c3.75-1.86,7.54-2.97,11.25-3.3c3.57-0.32,7.07,0.09,10.41,1.22
			c6.51,2.18,12.27,7.03,16.68,14.02C87.18,37.34,81.41,32.49,74.9,30.3c-2.61-0.88-5.32-1.32-8.09-1.32c-0.77,0-1.55,0.03-2.32,0.1
			c-3.71,0.33-7.49,1.44-11.25,3.3c-4.7,2.33-8.68,6.19-11.51,11.15c-1.36,2.39-2.44,5-3.19,7.75c-0.76,2.77-1.17,5.64-1.25,8.54
			c-0.06,0.31-0.07,0.58-0.01,0.81l0,0.01c-0.01,2.47,0.24,4.94,0.74,7.35C38.54,70.48,39.31,72.91,40.34,75.23
			c-0.45-2.43-0.78-4.76-1-6.93c-0.22-2.25-0.33-4.41-0.31-6.42c0.69,0.15,1.97,0.27,4.14,0.04c1.29-0.14,2.3-0.34,2.32-0.34
			c0,0,0,0,0,0c-0.01,0-1.02,0.21-2.32,0.35c-1.2,0.13-2.89,0.22-4.14-0.04c-0.02,2.01,0.09,4.17,0.31,6.42
			C39.56,70.47,39.89,72.8,40.34,75.23L40.34,75.23z M127.84,74.48c-0.35,0-0.65-0.11-0.87-0.33c-0.24-0.24-0.37-0.6-0.37-1.04
			c0-0.36,0.09-0.67,0.27-0.93c0.16-0.22,0.4-0.41,0.71-0.54c0.49-0.22,1.15-0.32,2.03-0.32l0,1.42c0,0.48-0.18,0.92-0.52,1.25
			C128.76,74.3,128.31,74.48,127.84,74.48z M129.61,71.31c-0.88,0-1.54,0.11-2.03,0.32c-0.31,0.14-0.54,0.32-0.71,0.54
			c-0.18,0.25-0.27,0.56-0.27,0.92c0,0.44,0.13,0.8,0.37,1.04c0.22,0.22,0.52,0.33,0.87,0.33c0.47,0,0.92-0.18,1.25-0.5
			c0.34-0.33,0.52-0.77,0.52-1.25V71.31z M101.1,74.48c-0.35,0-0.65-0.11-0.87-0.33c-0.24-0.24-0.37-0.6-0.37-1.04
			c0-0.36,0.09-0.67,0.27-0.93c0.16-0.22,0.4-0.41,0.71-0.54c0.49-0.22,1.15-0.32,2.03-0.32l0,1.42c0,0.48-0.18,0.92-0.52,1.25
			C102.01,74.3,101.57,74.48,101.1,74.48z M102.86,71.31c-0.88,0-1.54,0.11-2.03,0.32c-0.31,0.14-0.54,0.32-0.71,0.54
			c-0.18,0.25-0.27,0.56-0.27,0.92c0,0.44,0.13,0.8,0.37,1.04c0.22,0.22,0.52,0.33,0.87,0.33c0.47,0,0.92-0.18,1.25-0.5
			c0.34-0.33,0.52-0.77,0.52-1.25V71.31z M142.6,74.34c-0.64,0-1.18-0.3-1.55-0.86c-0.35-0.53-0.54-1.27-0.54-2.12
			s0.19-1.63,0.55-2.17c0.38-0.59,0.92-0.9,1.57-0.9c0.5,0,0.97,0.21,1.31,0.59c0.37,0.41,0.56,0.98,0.56,1.64v1.59
			c0,0.6-0.18,1.15-0.52,1.57C143.64,74.1,143.15,74.34,142.6,74.34z M142.63,68.29c-0.65,0-1.19,0.31-1.57,0.9
			c-0.35,0.55-0.55,1.32-0.55,2.17c0,0.86,0.19,1.59,0.54,2.12c0.37,0.56,0.91,0.86,1.55,0.86c0.54,0,1.03-0.24,1.38-0.66
			c0.34-0.41,0.52-0.97,0.52-1.57v-1.59c0-0.66-0.19-1.23-0.56-1.64C143.6,68.5,143.14,68.29,142.63,68.29z M119.45,74.34
			c-0.64,0-1.18-0.3-1.55-0.86c-0.35-0.53-0.54-1.27-0.54-2.12s0.19-1.63,0.55-2.17c0.38-0.59,0.92-0.9,1.57-0.9
			c0.5,0,0.97,0.21,1.31,0.59c0.37,0.41,0.56,0.98,0.56,1.64v1.59c0,0.6-0.18,1.15-0.52,1.57C120.49,74.1,120,74.34,119.45,74.34z
			 M119.48,68.29c-0.65,0-1.19,0.31-1.57,0.9c-0.35,0.55-0.55,1.32-0.55,2.17c0,0.86,0.19,1.59,0.54,2.12
			c0.37,0.56,0.91,0.86,1.55,0.86c0.54,0,1.03-0.24,1.38-0.66c0.34-0.41,0.52-0.97,0.52-1.57v-1.59c0-0.66-0.19-1.23-0.56-1.64
			C120.45,68.5,119.99,68.29,119.48,68.29z M126.96,65.51l-0.46-1.53c0.98-0.36,1.6-1.01,1.94-1.49c0.4-0.55,0.56-1.05,0.56-1.16
			c0-0.08-0.01-0.19-0.09-0.37l-2.9-7.92l1.95,0l1.54,4.83c0.18,0.58,0.35,1.26,0.46,1.72l0.05,0c0.12-0.5,0.29-1.15,0.45-1.71
			l1.37-4.83h1.87l-2.04,5.96c-0.96,2.72-1.68,4.39-2.72,5.41C128.06,65.22,127.2,65.46,126.96,65.51z M127.96,53.04l-1.95,0
			l2.9,7.92c0.08,0.18,0.09,0.29,0.09,0.37c0,0.11-0.16,0.61-0.56,1.16c-0.35,0.48-0.97,1.13-1.94,1.49l0.46,1.53
			c0.24-0.05,1.1-0.3,1.97-1.11c1.04-1.02,1.76-2.69,2.72-5.41l2.04-5.96l-1.87,0l-1.37,4.83c-0.15,0.57-0.32,1.21-0.45,1.72
			l-0.05,0c-0.11-0.46-0.29-1.13-0.46-1.72L127.96,53.04z M46.83,62.95c-0.01-0.01-0.52-0.97-1.08-2.62
			c-0.33-0.97-0.61-1.98-0.83-3.01c-0.28-1.29-0.47-2.6-0.57-3.91c-2.21,1.9-4.1,3.77-5.18,5.12c-0.06,0.77-0.1,1.57-0.13,2.37
			c0.97,0.37,2.61,0.54,3.81,0.61c1.33,0.08,2.49,0.07,2.62,0.05c-0.06,0.01-0.28,0.02-0.61,0.02c-0.49,0-1.22-0.02-2.01-0.06
			c-1.21-0.07-2.85-0.24-3.81-0.61c0.02-0.8,0.06-1.6,0.13-2.38c1.08-1.36,2.97-3.22,5.18-5.12c0.1,1.31,0.29,2.62,0.57,3.91
			c0.22,1.03,0.5,2.04,0.83,3.01C46.31,61.98,46.82,62.94,46.83,62.95c-0.61-3.93-0.88-7.61-0.79-10.94
			c2.11-1.71,4.35-3.34,6.63-4.84c0.42,0.96,0.81,1.55,0.81,1.56c0-0.01-0.22-0.66-0.42-1.81c0.6-0.39,1.2-0.77,1.8-1.14
			c2.9-1.77,6.67-3.7,10.62-5.44c0.67,0.89,0.94,1.49,0.94,1.49c0,0,0.14-0.53-0.48-1.7c2.13-0.93,4.19-1.75,6.12-2.44
			c1.22,0.84,2.4,1.78,3.5,2.79c0.89,0.82,1.72,1.69,2.49,2.59c-2.89,2.89-6.18,5.54-6.23,5.58c0.05-0.04,3.34-2.68,6.23-5.58
			c-0.77-0.9-1.6-1.77-2.49-2.59c-1.1-1.02-2.28-1.96-3.5-2.79c-1.94,0.69-4,1.51-6.12,2.44c0.62,1.16,0.48,1.69,0.48,1.7
			c0-0.01-0.27-0.6-0.94-1.49c-3.95,1.74-7.72,3.67-10.62,5.44c-0.6,0.37-1.21,0.75-1.8,1.14c0.2,1.15,0.42,1.8,0.42,1.81
			c0-0.01-0.39-0.59-0.81-1.56c-2.29,1.5-4.52,3.13-6.63,4.84C45.94,55.34,46.21,59.02,46.83,62.95z M157.5,61.8
			c-0.47,0-0.92-0.1-1.34-0.31c-0.41-0.2-0.77-0.5-1.07-0.89c-0.31-0.39-0.55-0.85-0.71-1.38c-0.17-0.55-0.26-1.16-0.26-1.8
			c0-1.38,0.37-2.55,1.06-3.38c0.64-0.77,1.52-1.19,2.48-1.19c1,0,1.84,0.43,2.24,1.15h0.03l0-4.88l1.78,0v10.21
			c0,0.82,0.03,1.75,0.06,2.29l-1.57,0l-0.09-1.34l-0.05,0c-0.23,0.45-0.57,0.82-1,1.08C158.61,61.65,158.07,61.8,157.5,61.8z
			 M157.65,52.85c-0.96,0-1.84,0.42-2.47,1.19c-0.69,0.83-1.06,2-1.06,3.38c0,0.65,0.09,1.25,0.26,1.8c0.16,0.53,0.4,0.99,0.71,1.38
			c0.3,0.38,0.66,0.68,1.07,0.88c0.41,0.21,0.86,0.31,1.34,0.31c0.57,0,1.11-0.15,1.56-0.43c0.43-0.26,0.77-0.64,1-1.08h0.05
			l0.09,1.34l1.57,0c-0.03-0.55-0.06-1.47-0.06-2.29V49.12h-1.78l0,4.88l-0.03,0C159.49,53.28,158.65,52.85,157.65,52.85z
			 M149.8,61.8c-1.24,0-2.26-0.41-2.97-1.19c-0.69-0.76-1.06-1.86-1.06-3.16c0-1.28,0.36-2.43,1.01-3.26
			c0.69-0.88,1.66-1.34,2.8-1.34c0.57,0,1.08,0.12,1.53,0.35c0.41,0.21,0.76,0.52,1.03,0.92c0.26,0.37,0.46,0.82,0.59,1.32
			c0.12,0.47,0.19,0.99,0.19,1.54c0,0.29-0.01,0.54-0.05,0.76l-5.38,0c0.02,0.9,0.29,1.6,0.8,2.06c0.44,0.4,1.05,0.61,1.77,0.61
			c0.81,0,1.47-0.13,2.14-0.41l0,0v0l0.29,1.28C151.79,61.61,150.81,61.8,149.8,61.8z M149.59,52.85c-1.14,0-2.11,0.46-2.8,1.34
			c-0.65,0.83-1.01,1.98-1.01,3.26c0,1.3,0.37,2.39,1.06,3.16c0.71,0.78,1.73,1.19,2.97,1.19c1.01,0,1.99-0.19,2.69-0.51l-0.29-1.28
			c-0.66,0.28-1.32,0.41-2.14,0.41c-0.72,0-1.33-0.21-1.77-0.61c-0.51-0.46-0.78-1.15-0.8-2.06l5.38,0
			c0.03-0.22,0.05-0.47,0.05-0.76c0-0.55-0.06-1.07-0.19-1.54c-0.13-0.51-0.33-0.95-0.59-1.32c-0.28-0.4-0.63-0.71-1.03-0.92
			C150.67,52.97,150.16,52.85,149.59,52.85z M138.47,61.8c-1.2,0-2.22-0.41-2.94-1.19c-0.72-0.78-1.1-1.88-1.1-3.2
			c0-0.65,0.1-1.26,0.3-1.81c0.2-0.55,0.49-1.04,0.87-1.45c0.79-0.86,1.9-1.31,3.21-1.31c0.83,0,1.54,0.21,1.89,0.39l-0.35,1.39
			c-0.45-0.23-0.95-0.34-1.52-0.34c-0.79,0-1.45,0.31-1.91,0.9c-0.43,0.54-0.67,1.31-0.67,2.16c0,0.91,0.25,1.67,0.73,2.21
			c0.23,0.26,0.5,0.46,0.81,0.59c0.31,0.14,0.66,0.2,1.02,0.2c0.7,0,1.2-0.17,1.6-0.34l0,0v0l0.25,1.36
			C140.2,61.57,139.39,61.8,138.47,61.8z M138.8,52.85c-1.31,0-2.42,0.45-3.21,1.31c-0.38,0.41-0.67,0.89-0.87,1.45
			c-0.2,0.56-0.3,1.17-0.3,1.81c0,1.31,0.38,2.42,1.1,3.2c0.72,0.78,1.73,1.19,2.94,1.19c0.92,0,1.73-0.23,2.18-0.44l-0.25-1.36
			c-0.4,0.17-0.89,0.34-1.6,0.34c-0.37,0-0.71-0.07-1.02-0.2c-0.31-0.14-0.58-0.33-0.81-0.59c-0.48-0.54-0.73-1.3-0.73-2.21
			c0-0.85,0.24-1.61,0.67-2.16c0.46-0.59,1.13-0.9,1.91-0.9c0.57,0,1.07,0.11,1.52,0.34l0.35-1.39
			C140.34,53.06,139.63,52.85,138.8,52.85z M123.21,61.8c-1.2,0-2.22-0.41-2.94-1.19c-0.72-0.78-1.1-1.88-1.1-3.2
			c0-0.65,0.1-1.26,0.3-1.81c0.2-0.55,0.49-1.04,0.87-1.45c0.79-0.86,1.9-1.31,3.21-1.31c0.83,0,1.53,0.21,1.89,0.39l-0.35,1.39
			c-0.45-0.23-0.95-0.34-1.52-0.34c-0.79,0-1.45,0.31-1.91,0.9c-0.43,0.54-0.67,1.31-0.67,2.16c0,0.91,0.25,1.67,0.73,2.21
			c0.23,0.26,0.5,0.46,0.81,0.59c0.31,0.14,0.66,0.2,1.02,0.2c0.7,0,1.2-0.17,1.6-0.34l0,0v0l0.25,1.36
			C124.94,61.57,124.13,61.8,123.21,61.8z M123.55,52.85c-1.31,0-2.42,0.45-3.21,1.31c-0.38,0.41-0.67,0.89-0.87,1.45
			c-0.2,0.56-0.3,1.17-0.3,1.81c0,1.31,0.38,2.42,1.1,3.2c0.72,0.78,1.73,1.19,2.94,1.19c0.92,0,1.73-0.23,2.18-0.44l-0.25-1.36
			c-0.4,0.17-0.89,0.34-1.6,0.34c-0.37,0-0.71-0.07-1.02-0.2c-0.31-0.14-0.58-0.33-0.81-0.59c-0.48-0.54-0.73-1.3-0.73-2.21
			c0-0.85,0.24-1.61,0.67-2.16c0.46-0.59,1.13-0.9,1.91-0.9c0.57,0,1.07,0.11,1.52,0.34l0.35-1.39
			C125.08,53.06,124.38,52.85,123.55,52.85z M114.85,61.8c-1.24,0-2.26-0.41-2.97-1.19c-0.69-0.76-1.06-1.86-1.06-3.16
			c0-1.28,0.36-2.43,1.01-3.26c0.69-0.88,1.66-1.34,2.8-1.34c0.57,0,1.08,0.12,1.53,0.35c0.41,0.21,0.76,0.52,1.03,0.92
			c0.26,0.37,0.46,0.82,0.59,1.32c0.12,0.47,0.19,0.99,0.19,1.54c0,0.29-0.01,0.54-0.05,0.76l-5.38,0c0.02,0.9,0.29,1.6,0.8,2.06
			c0.44,0.4,1.05,0.61,1.77,0.61c0.81,0,1.47-0.13,2.14-0.41l0,0v0l0.29,1.28C116.84,61.61,115.86,61.8,114.85,61.8z M114.64,52.85
			c-1.14,0-2.11,0.46-2.8,1.34c-0.65,0.83-1.01,1.98-1.01,3.26c0,1.3,0.37,2.39,1.06,3.16c0.71,0.78,1.73,1.19,2.97,1.19
			c1.01,0,1.99-0.19,2.69-0.51l-0.29-1.28c-0.66,0.28-1.32,0.41-2.14,0.41c-0.72,0-1.33-0.21-1.77-0.61
			c-0.51-0.46-0.78-1.15-0.8-2.06l5.38,0c0.03-0.22,0.05-0.47,0.05-0.76c0-0.55-0.06-1.07-0.19-1.54c-0.13-0.51-0.33-0.95-0.59-1.32
			c-0.28-0.4-0.63-0.71-1.03-0.92C115.72,52.97,115.21,52.85,114.64,52.85z M88.45,61.8c-0.75,0-1.38-0.26-1.84-0.76
			c-0.42-0.46-0.65-1.08-0.65-1.75c0-0.52,0.11-1,0.33-1.4c0.21-0.39,0.53-0.73,0.95-1c0.41-0.26,0.91-0.46,1.49-0.6
			c0.58-0.13,1.24-0.2,1.96-0.2c0-0.32,0-0.8-0.21-1.2c-0.25-0.48-0.76-0.72-1.49-0.72c-0.73,0-1.5,0.22-2.06,0.59l-0.37-1.2
			c0.32-0.21,0.72-0.38,1.17-0.51c0.5-0.14,1.03-0.21,1.57-0.21c1.15,0,1.99,0.36,2.52,1.06c0.44,0.58,0.66,1.4,0.66,2.43v3.24
			c0,0.73,0.01,1.48,0.12,2.04l-1.61,0l-0.12-1l-0.05,0c-0.25,0.35-0.58,0.64-0.96,0.84C89.43,61.69,88.95,61.8,88.45,61.8z
			 M88.99,54.17c0.74,0,1.24,0.24,1.49,0.72c0.21,0.4,0.21,0.88,0.21,1.2c-0.73,0-1.39,0.07-1.96,0.2c-0.58,0.13-1.08,0.33-1.49,0.6
			c-0.41,0.27-0.73,0.6-0.95,1c-0.22,0.41-0.33,0.88-0.33,1.4c0,0.67,0.23,1.3,0.65,1.75c0.46,0.5,1.09,0.76,1.84,0.76
			c0.51,0,0.98-0.11,1.4-0.33c0.38-0.2,0.72-0.49,0.96-0.84h0.05l0.12,1l1.61,0c-0.11-0.56-0.12-1.31-0.12-2.04v-3.24
			c0-1.03-0.22-1.85-0.66-2.43c-0.53-0.7-1.38-1.06-2.52-1.06c-0.54,0-1.07,0.07-1.57,0.21c-0.45,0.13-0.85,0.3-1.17,0.5l0.37,1.2
			C87.48,54.4,88.25,54.17,88.99,54.17z M81.24,61.8c-0.55,0-1.04-0.12-1.45-0.35c-0.42-0.24-0.78-0.62-1.06-1.11h-0.05l-0.09,1.29
			l-1.52,0c0.03-0.57,0.06-1.51,0.06-2.29V49.12l1.78,0l0,5.11h0.03c0.26-0.44,0.6-0.79,1.03-1.02c0.44-0.24,0.96-0.37,1.54-0.37
			c0.48,0,0.92,0.1,1.33,0.31c0.4,0.2,0.74,0.5,1.03,0.88c0.6,0.79,0.91,1.88,0.91,3.16c0,1.44-0.39,2.65-1.12,3.48
			c-0.32,0.37-0.71,0.65-1.14,0.85C82.13,61.71,81.69,61.8,81.24,61.8z M78.74,60.33c0.28,0.5,0.63,0.87,1.06,1.11
			c0.41,0.23,0.9,0.35,1.45,0.35c0.45,0,0.88-0.09,1.29-0.28c0.43-0.19,0.81-0.48,1.14-0.85c0.73-0.83,1.12-2.03,1.12-3.48
			c0-1.28-0.31-2.37-0.91-3.16c-0.29-0.38-0.64-0.68-1.03-0.88c-0.4-0.21-0.85-0.31-1.33-0.31c-0.58,0-1.1,0.12-1.54,0.37
			c-0.43,0.24-0.77,0.58-1.03,1.02l-0.03,0v-5.11l-1.78,0l0,10.21c0,0.79-0.03,1.72-0.06,2.29l1.52,0l0.09-1.29L78.74,60.33z
			 M71.41,61.8c-0.55,0-1.06-0.1-1.53-0.3c-0.47-0.2-0.88-0.49-1.23-0.87c-0.73-0.79-1.11-1.92-1.11-3.25c0-1.38,0.4-2.54,1.16-3.36
			c0.36-0.38,0.78-0.68,1.27-0.88c0.48-0.2,1.01-0.3,1.57-0.3c1.14,0,2.1,0.42,2.79,1.22c0.34,0.39,0.6,0.86,0.78,1.39
			c0.18,0.55,0.27,1.15,0.27,1.8c0,0.77-0.12,1.46-0.35,2.06c-0.21,0.55-0.52,1.02-0.92,1.41C73.4,61.42,72.45,61.8,71.41,61.8z
			 M71.53,52.85c-0.56,0-1.09,0.1-1.57,0.3c-0.48,0.2-0.91,0.5-1.27,0.88c-0.76,0.81-1.16,1.97-1.16,3.36
			c0,1.33,0.38,2.45,1.11,3.25c0.35,0.38,0.76,0.67,1.23,0.87c0.47,0.2,0.99,0.3,1.53,0.3c1.03,0,1.99-0.38,2.7-1.06
			c0.39-0.38,0.7-0.86,0.92-1.41c0.23-0.6,0.35-1.3,0.35-2.06c0-0.65-0.09-1.26-0.27-1.8c-0.18-0.54-0.44-1-0.78-1.39
			C73.63,53.27,72.67,52.85,71.53,52.85z M58.63,61.75c-1.18,0-2.21-0.23-3.04-0.67c-0.71-0.38-1.29-0.92-1.73-1.62
			c-0.83-1.32-0.96-2.9-0.96-3.72c0-1.87,0.58-3.44,1.69-4.54c0.53-0.53,1.17-0.94,1.91-1.22c0.74-0.28,1.55-0.42,2.43-0.42
			c1.1,0,2.12,0.19,2.73,0.5l-0.4,1.48c-0.45-0.2-0.88-0.31-1.28-0.38c0.59,0.09,1,0.25,1.28,0.38l0.4-1.48
			c-0.62-0.31-1.64-0.5-2.73-0.5c-0.87,0-1.69,0.14-2.42,0.42c-0.73,0.28-1.37,0.69-1.91,1.22c-1.11,1.1-1.69,2.67-1.69,4.54
			c0,0.82,0.12,2.39,0.96,3.71c0.44,0.69,1.02,1.24,1.73,1.62C56.42,61.53,57.45,61.75,58.63,61.75c1.35,0,2.65-0.33,3.35-0.61V55.2
			h-3.75l0,1.45l2.03,0l0,3.37c-0.3,0.16-0.87,0.25-1.57,0.25c-1.16,0-2.14-0.41-2.82-1.17c-0.35-0.39-0.62-0.88-0.81-1.44
			c-0.19-0.58-0.29-1.25-0.29-1.99c0-0.74,0.1-1.41,0.31-1.99c0.2-0.56,0.49-1.04,0.86-1.43c0.72-0.75,1.75-1.15,2.98-1.15
			c0.11,0,0.23,0,0.33,0.01c-0.12,0-0.23-0.01-0.33-0.01c-1.22,0-2.25,0.4-2.98,1.15c-0.37,0.39-0.66,0.87-0.86,1.43
			c-0.21,0.58-0.31,1.25-0.31,1.99c0,0.74,0.1,1.4,0.29,1.99c0.18,0.56,0.46,1.05,0.81,1.44c0.68,0.77,1.66,1.17,2.82,1.17
			c0.7,0,1.27-0.09,1.57-0.25v-3.37l-2.03,0l0-1.45l3.75,0v5.94C61.28,61.43,59.98,61.75,58.63,61.75z M142.24,61.63l0-12.51l1.78,0
			v12.51L142.24,61.63z M142.24,49.12l0,12.51l1.78,0l0-12.51H142.24z M108.02,61.63c-0.18-0.36-0.46-1.45-0.74-2.85
			c-0.33-1.6-0.9-2.2-2.14-2.2h-1.08l0,5.05l-1.77,0l0-11.77c0.85-0.16,1.89-0.25,2.86-0.25c0.79,0,1.43,0.07,1.97,0.22
			c0.56,0.16,1.01,0.39,1.37,0.73c0.3,0.27,0.54,0.61,0.7,1.01c0.16,0.4,0.24,0.84,0.24,1.33c0,0.73-0.2,1.37-0.61,1.92
			c-0.37,0.49-0.88,0.87-1.5,1.11v0.03c0.83,0.31,1.35,1.08,1.64,2.43c0.34,1.5,0.64,2.78,0.88,3.24L108.02,61.63z M105.16,49.61
			c-0.97,0-2.01,0.09-2.86,0.25l0,11.77l1.77,0l0-5.05l1.08,0c1.23,0,1.81,0.6,2.14,2.2c0.28,1.4,0.56,2.5,0.74,2.85h1.84
			c-0.23-0.46-0.54-1.74-0.88-3.24c-0.3-1.35-0.82-2.12-1.64-2.43v-0.03c0.61-0.23,1.13-0.62,1.5-1.11c0.4-0.54,0.61-1.19,0.61-1.92
			c0-0.48-0.08-0.93-0.24-1.33c-0.16-0.4-0.39-0.74-0.7-1.01c-0.37-0.33-0.82-0.57-1.37-0.73
			C106.59,49.68,105.95,49.61,105.16,49.61z M94.72,61.63l0-12.51l1.78,0v12.51L94.72,61.63z M94.72,49.12l0,12.51l1.78,0l0-12.51
			H94.72z M64.02,61.63l0-12.51l1.78,0v12.51L64.02,61.63z M64.02,49.12l0,12.51l1.78,0l0-12.51H64.02z M88.97,60.47
			c-0.35,0-0.65-0.11-0.87-0.33c-0.25-0.24-0.37-0.6-0.37-1.04c0-0.36,0.09-0.67,0.27-0.92c0.16-0.22,0.4-0.41,0.71-0.54
			c0.49-0.22,1.15-0.32,2.03-0.32l0,1.42c0,0.48-0.18,0.92-0.52,1.25C89.89,60.3,89.44,60.47,88.97,60.47z M90.74,57.31
			c-0.88,0-1.54,0.11-2.03,0.32c-0.31,0.14-0.54,0.32-0.71,0.54c-0.18,0.25-0.27,0.56-0.27,0.92c0,0.44,0.13,0.8,0.37,1.04
			c0.22,0.22,0.52,0.33,0.87,0.33c0.47,0,0.92-0.18,1.25-0.5c0.34-0.33,0.52-0.77,0.52-1.25V57.31z M71.46,60.44
			c-0.62,0-1.15-0.32-1.53-0.92c-0.36-0.56-0.55-1.34-0.55-2.18c0-0.82,0.17-1.57,0.48-2.12c0.18-0.31,0.4-0.56,0.65-0.73
			c0.28-0.19,0.61-0.28,0.97-0.28c0.67,0,1.23,0.35,1.6,1.02c0.3,0.55,0.48,1.31,0.48,2.08c0,0.86-0.2,1.64-0.56,2.21
			c-0.18,0.29-0.41,0.52-0.66,0.68C72.06,60.36,71.77,60.44,71.46,60.44z M71.47,54.21c-0.36,0-0.69,0.09-0.97,0.28
			c-0.26,0.17-0.48,0.42-0.65,0.73c-0.31,0.55-0.48,1.31-0.48,2.12c0,0.84,0.2,1.62,0.55,2.18c0.38,0.6,0.91,0.92,1.53,0.92
			c0.31,0,0.61-0.08,0.87-0.25c0.25-0.16,0.47-0.38,0.66-0.68c0.36-0.57,0.56-1.35,0.56-2.21c0-0.78-0.17-1.54-0.48-2.08
			C72.7,54.56,72.15,54.21,71.47,54.21z M80.86,60.35c-0.55,0-1.05-0.23-1.41-0.65c-0.34-0.39-0.53-0.93-0.53-1.47v-1.68
			c0-0.56,0.2-1.12,0.55-1.55c0.37-0.45,0.87-0.7,1.4-0.7c0.66,0,1.21,0.3,1.58,0.88c0.34,0.53,0.52,1.26,0.52,2.1
			c0,0.92-0.19,1.69-0.55,2.23C82.06,60.06,81.52,60.35,80.86,60.35z M80.87,54.3c-0.53,0-1.02,0.25-1.4,0.7
			c-0.35,0.43-0.55,0.99-0.55,1.55v1.68c0,0.54,0.19,1.08,0.53,1.47c0.36,0.42,0.86,0.65,1.41,0.65c0.66,0,1.2-0.29,1.57-0.85
			c0.36-0.54,0.55-1.31,0.55-2.23c0-0.84-0.18-1.57-0.52-2.1C82.08,54.6,81.54,54.3,80.87,54.3z M158.02,60.33
			c-0.64,0-1.18-0.3-1.55-0.86c-0.35-0.53-0.54-1.27-0.54-2.12c0-0.86,0.19-1.63,0.55-2.17c0.38-0.59,0.92-0.9,1.57-0.9
			c0.5,0,0.97,0.21,1.31,0.59c0.37,0.41,0.56,0.98,0.56,1.64v1.59c0,0.6-0.18,1.15-0.52,1.57C159.06,60.1,158.56,60.33,158.02,60.33
			z M158.05,54.28c-0.65,0-1.19,0.31-1.57,0.9c-0.35,0.55-0.55,1.32-0.55,2.17c0,0.86,0.19,1.59,0.54,2.12
			c0.37,0.56,0.91,0.86,1.55,0.86c0.54,0,1.03-0.24,1.38-0.66c0.34-0.41,0.52-0.97,0.52-1.56v-1.59c0-0.66-0.19-1.23-0.56-1.64
			C159.02,54.49,158.56,54.28,158.05,54.28z M147.51,56.45L147.51,56.45L147.51,56.45c0.05-0.57,0.24-1.13,0.52-1.53
			c0.17-0.24,0.36-0.43,0.59-0.56c0.25-0.15,0.53-0.22,0.84-0.22c0.47,0,0.86,0.15,1.16,0.45c0.57,0.57,0.61,1.49,0.61,1.85
			L147.51,56.45z M147.51,56.45h3.72c0-0.37-0.04-1.28-0.61-1.85c-0.3-0.3-0.69-0.45-1.16-0.45c-0.31,0-0.59,0.07-0.84,0.22
			c-0.22,0.13-0.42,0.32-0.59,0.56C147.76,55.33,147.57,55.88,147.51,56.45z M112.57,56.45L112.57,56.45L112.57,56.45
			c0.05-0.57,0.24-1.13,0.52-1.53c0.17-0.24,0.36-0.43,0.59-0.56c0.25-0.15,0.53-0.22,0.84-0.22c0.47,0,0.86,0.15,1.16,0.45
			c0.57,0.57,0.61,1.49,0.61,1.85L112.57,56.45z M112.57,56.45h3.72c0-0.37-0.04-1.28-0.61-1.85c-0.3-0.3-0.69-0.45-1.16-0.45
			c-0.31,0-0.59,0.07-0.84,0.22c-0.22,0.13-0.42,0.32-0.59,0.56C112.81,55.33,112.62,55.88,112.57,56.45z M39.43,56.18
			c0.21-1.54,0.52-3.03,0.91-4.43c0.4-1.43,0.89-2.81,1.48-4.11c0.59-1.32,1.29-2.59,2.08-3.78c0.8-1.21,1.71-2.37,2.71-3.46
			c-1.03,2.12-1.74,4.65-2.11,7.49c-0.15,1.19-0.23,2.4-0.22,3.61v0C42.32,53.1,40.65,54.72,39.43,56.18z M46.6,40.4
			c-1,1.09-1.91,2.25-2.71,3.46c-0.79,1.19-1.48,2.47-2.08,3.78c-0.58,1.3-1.08,2.68-1.48,4.11c-0.39,1.4-0.7,2.89-0.91,4.43
			c1.22-1.47,2.89-3.08,4.85-4.67c-0.01-1.21,0.07-2.43,0.22-3.61C44.86,45.05,45.56,42.53,46.6,40.4z M105.27,55.22l-1.2,0v-4.1
			c0.24-0.07,0.69-0.11,1.24-0.11c0.7,0,1.25,0.15,1.65,0.46c0.46,0.35,0.7,0.9,0.7,1.62C107.67,54.38,106.72,55.22,105.27,55.22z
			 M104.07,55.22h1.2c1.46,0,2.4-0.84,2.4-2.14c0-0.72-0.23-1.26-0.7-1.62c-0.4-0.3-0.96-0.46-1.65-0.46
			c-0.55,0-1.01,0.04-1.24,0.11L104.07,55.22z M46.13,50.07c0.2-2.77,0.66-5.3,1.38-7.54c0.71,0.11,2.18,0.28,4.09,0.09l0,0v0
			c0.04,1.12,0.25,2.26,0.63,3.41C50.04,47.32,47.99,48.68,46.13,50.07z M47.51,42.53c-0.72,2.23-1.19,4.77-1.38,7.54
			c1.86-1.39,3.91-2.74,6.1-4.04c-0.38-1.14-0.59-2.29-0.63-3.41C49.69,42.81,48.22,42.64,47.51,42.53z M71.83,48.66L71.83,48.66
			c2.66-1.57,4.95-3.21,6.81-4.86c0.98,1.23,1.47,2.06,1.47,2.07c0-0.01-0.3-1-1.06-2.44c0.81-0.75,1.53-1.5,2.13-2.22
			c0.58-0.69,1.05-1.37,1.41-2.01c0.69-1.22,0.96-2.31,0.78-3.14c1.43,1.06,2.85,2.31,4.24,3.72c1.32,1.35,2.65,2.88,3.95,4.56
			c-1.3-1.68-2.63-3.21-3.95-4.56c-1.38-1.41-2.81-2.66-4.24-3.72c0.18,0.83-0.09,1.92-0.78,3.14c-0.36,0.64-0.84,1.32-1.41,2.01
			c-0.6,0.73-1.32,1.47-2.13,2.22c0.76,1.44,1.05,2.43,1.06,2.44c-0.01-0.01-0.49-0.84-1.47-2.07
			C76.78,45.45,74.49,47.09,71.83,48.66z M52.87,45.66c-0.12-1.02-0.18-2.09-0.17-3.18c2.28-0.36,4.51-1.14,6.62-2.32
			c1.31-0.73,2.51-1.58,3.55-2.51c0.77,0.63,1.47,1.3,2.07,2l0,0h0c-2.89,1.27-5.87,2.7-8.86,4.25
			C54.98,44.47,53.9,45.06,52.87,45.66z M62.86,37.66c-1.04,0.93-2.24,1.78-3.55,2.51c-2.11,1.18-4.33,1.96-6.62,2.32
			c-0.01,1.08,0.05,2.15,0.17,3.17c1.03-0.6,2.11-1.19,3.2-1.75c2.99-1.55,5.97-2.98,8.86-4.25C64.33,38.96,63.63,38.29,62.86,37.66
			z M78.58,42.55c-0.54-0.92-1.16-1.82-1.84-2.66c-0.83-1.03-1.75-1.99-2.75-2.85l0,0h0c2.02-0.65,3.72-1.09,5.08-1.31
			c1.46-0.23,2.46-0.19,2.99,0.12c0.23,0.13,0.37,0.32,0.41,0.56c0.12,0.63-0.21,1.54-1,2.71C80.82,40.09,79.85,41.24,78.58,42.55z
			 M73.99,37.04c1,0.86,1.92,1.82,2.75,2.85c0.68,0.84,1.3,1.74,1.84,2.66c1.27-1.31,2.24-2.46,2.9-3.43c0.79-1.16,1.12-2.07,1-2.71
			c-0.05-0.23-0.19-0.42-0.41-0.56c-0.53-0.31-1.53-0.35-2.99-0.12C77.72,35.95,76.01,36.39,73.99,37.04z M47.71,42.46
			c-0.06,0-0.12,0-0.18,0c0.66-2.04,1.54-3.83,2.6-5.32c1.24-0.98,2.6-1.91,4.04-2.77c1.19-0.54,2.38-1.03,3.55-1.45
			c0.3-0.03,0.62-0.04,0.95-0.04c1.82,0,3.95,0.43,6.36,1.27c-0.68,0.73-1.45,1.45-2.29,2.13c-0.69-0.58-1.43-1.06-2.2-1.4
			c-0.62-0.28-1.25-0.48-1.89-0.59c-1.07-0.19-1.79-0.08-1.82-0.08c1.89,0.74,3.6,1.65,5.08,2.72c-1.17,0.87-2.47,1.68-3.87,2.41
			c-1.83,0.96-3.62,1.71-5.31,2.24c0.08-2,0.37-4.03,0.87-6.03c0,0.01-0.47,0.64-0.94,1.74c-0.28,0.64-0.51,1.32-0.68,2
			c-0.21,0.86-0.34,1.73-0.37,2.6C49.83,42.35,48.53,42.46,47.71,42.46z M58.67,32.88c-0.33,0-0.64,0.01-0.95,0.04
			c-1.17,0.42-2.36,0.91-3.55,1.45c-1.44,0.86-2.8,1.79-4.04,2.77c-1.06,1.49-1.94,3.28-2.6,5.32c0.05,0,0.11,0,0.17,0
			c0.82,0,2.12-0.11,3.9-0.57c0.03-0.87,0.16-1.75,0.37-2.6c0.17-0.69,0.4-1.36,0.68-2c0.47-1.1,0.94-1.73,0.94-1.74
			c-0.5,2-0.8,4.03-0.87,6.03c1.69-0.53,3.48-1.28,5.31-2.24c1.4-0.73,2.7-1.54,3.87-2.41c-1.49-1.06-3.2-1.98-5.09-2.72l0,0h0
			c0.01,0,0.74-0.12,1.82,0.08c0.64,0.12,1.28,0.32,1.89,0.59c0.77,0.35,1.51,0.82,2.2,1.4c0.84-0.68,1.61-1.4,2.29-2.13
			C62.62,33.31,60.48,32.88,58.67,32.88z M65.5,39.41c-0.49-0.73-1.15-1.53-1.97-2.38l0,0l0,0c0.83-0.82,1.55-1.71,2.15-2.64
			c0.2,0.07,0.38,0.14,0.56,0.21c1.71,0.67,3.37,1.52,4.95,2.52C69.41,37.78,67.49,38.55,65.5,39.41z M63.53,37.03
			c0.82,0.85,1.49,1.65,1.97,2.38c1.99-0.86,3.9-1.63,5.68-2.28c-1.57-1-3.24-1.84-4.95-2.52c-0.18-0.07-0.36-0.14-0.56-0.21
			C65.09,35.32,64.36,36.21,63.53,37.03z M73.22,36.41c-0.74-0.58-1.51-1.12-2.31-1.6c-1.34-0.8-2.82-1.45-4.39-1.91
			c0.48-1,0.62-1.66,0.62-1.66c0,0.01-0.28,0.62-0.99,1.56c-1.74-0.48-3.6-0.75-5.53-0.8c1.99-0.54,3.94-0.89,5.82-1.03
			c1.83-0.14,3.63-0.09,5.36,0.15c1.68,0.23,3.35,0.66,4.95,1.25c1.55,0.58,3.09,1.34,4.58,2.26l0,0l0,0c-0.08,0-0.15,0-0.23,0
			C79.39,34.63,76.68,35.24,73.22,36.41z M67.15,31.24c0,0.01-0.15,0.66-0.62,1.66c1.57,0.46,3.04,1.1,4.39,1.91
			c0.8,0.48,1.58,1.02,2.31,1.6c3.46-1.16,6.17-1.77,7.88-1.77c0.08,0,0.16,0,0.23,0c-1.48-0.92-3.02-1.68-4.58-2.26
			c-1.6-0.6-3.26-1.02-4.95-1.25c-1.73-0.24-3.53-0.29-5.36-0.15c-1.87,0.14-3.83,0.49-5.82,1.03c1.93,0.05,3.79,0.32,5.53,0.8
			C66.86,31.85,67.14,31.24,67.15,31.24z"/>
	</g>
</g>
</svg>
