<?xml version="1.0" encoding="utf-8"?>
<!-- Generator: Adobe Illustrator 27.6.1, SVG Export Plug-In . SVG Version: 6.00 Build 0)  -->
<svg version="1.1" id="Layer_1" xmlns="http://www.w3.org/2000/svg" xmlns:xlink="http://www.w3.org/1999/xlink" x="0px" y="0px"
	 viewBox="0 0 191.36 102.43" enable-background="new 0 0 191.36 102.43" xml:space="preserve">
<g>
	<g>
		<path fill="#FFFFFF" d="M64.94,45.69c0,2.44-0.03,4.67,0.02,6.9c0.01,0.76-0.21,1.03-0.93,0.96c-0.54-0.05-1.09-0.04-1.63,0
			c-0.6,0.04-0.76-0.24-0.76-0.82c0.01-5.14,0.01-10.27,0-15.41c0-0.61,0.18-0.89,0.8-0.92c1.69-0.08,2.38,0.55,2.39,2.32
			c0.01,1.71,0,3.42,0,5.3c1.34-2.32,2.92-4.26,4.39-6.28c1.03-1.41,2.35-1.77,3.64-1.12c0.5,0.25,0.68,0.48,0.27,1.03
			c-1.51,2.05-2.95,4.16-4.47,6.21c-0.41,0.56-0.46,0.93-0.02,1.53c1.72,2.34,3.37,4.74,5.05,7.12c0.5,0.71,0.46,0.86-0.32,1.12
			c-1.35,0.44-2.6,0.23-3.5-0.94C68.17,50.48,66.38,48.36,64.94,45.69"/>
	</g>
	<g>
		<path fill="#FFFFFF" d="M132.76,42.23c0.71-1.29,1.34-2.43,1.98-3.57c0.24-0.42,0.47-0.85,0.75-1.25c0.71-1.03,2.2-1.33,3.27-0.73
			c0.49,0.27,0.22,0.54,0.07,0.81c-1.24,2.22-2.46,4.44-3.74,6.63c-0.34,0.58-0.3,1,0.01,1.55c1.32,2.34,2.62,4.71,3.91,7.07
			c0.38,0.7,0.35,0.77-0.42,0.93c-1.85,0.39-2.6,0.06-3.62-1.6c-0.74-1.2-1.47-2.41-2.18-3.62c-0.25-0.42-0.4-0.42-0.64,0.03
			c-0.8,1.5-1.64,2.96-2.43,4.46c-0.25,0.47-0.55,0.67-1.06,0.64c-0.74-0.04-1.49-0.03-2.23,0c-0.56,0.02-0.65-0.14-0.36-0.66
			c1.37-2.38,2.7-4.78,4.08-7.15c0.29-0.51,0.32-0.89,0.04-1.42c-1.21-2.23-2.36-4.5-3.57-6.74c-0.3-0.55-0.18-0.73,0.34-0.93
			c1.73-0.64,2.81-0.22,3.69,1.48C131.32,39.46,131.99,40.76,132.76,42.23"/>
	</g>
	<g>
		<path fill="#FFFFFF" d="M48.79,44.97c0-2.54,0.02-5.09-0.01-7.63c-0.01-0.67,0.19-0.91,0.85-0.9c2.75,0.03,5.49,0,8.24,0.02
			c0.41,0,1-0.28,1.14,0.48c0.17,0.9-0.17,1.81-0.81,2.06c-0.42,0.16-0.86,0.21-1.31,0.21c-1.31-0.01-2.62,0.03-3.93-0.01
			c-0.63-0.02-0.82,0.23-0.8,0.86c0.04,0.83,0.04,1.66,0,2.49c-0.03,0.66,0.16,0.93,0.83,0.9c1.24-0.05,2.47,0,3.71-0.02
			c0.48-0.01,0.66,0.17,0.66,0.68c-0.04,2.5,0.28,2.04-1.85,2.08c-0.89,0.02-1.78,0.02-2.67,0c-0.47-0.01-0.67,0.17-0.67,0.68
			c0.02,1.12,0.03,2.23,0,3.35c-0.01,0.57,0.23,0.7,0.72,0.69c1.56-0.02,3.12-0.02,4.68-0.02c1.21,0,1.86,0.67,1.89,1.9
			c0.01,0.47-0.13,0.73-0.63,0.73c-3.12-0.01-6.24-0.01-9.35,0c-0.61,0-0.67-0.33-0.67-0.84C48.79,50.11,48.79,47.54,48.79,44.97"/>
	</g>
	<g>
		<path fill="#FFFFFF" d="M114.29,44.99c0-2.52,0.03-5.03-0.02-7.55c-0.02-0.81,0.26-1.01,0.98-1c2.67,0.04,5.35,0,8.02,0.03
			c0.45,0,1.11-0.31,1.24,0.56c0.14,0.95-0.26,1.79-0.96,2.06c-0.36,0.13-0.73,0.15-1.1,0.15c-1.34,0.01-2.67,0.03-4.01,0
			c-0.57-0.01-0.81,0.18-0.78,0.8c0.04,0.91,0.03,1.82,0,2.72c-0.02,0.57,0.18,0.79,0.73,0.78c1.19-0.02,2.38,0.01,3.56-0.01
			c0.58-0.01,0.86,0.16,0.84,0.83c-0.05,2.27,0.24,1.83-1.74,1.88c-0.89,0.02-1.78,0.03-2.67-0.01c-0.57-0.02-0.74,0.22-0.72,0.78
			c0.03,1.04,0.03,2.08,0,3.11c-0.02,0.58,0.15,0.85,0.75,0.84c1.51-0.04,3.02-0.01,4.53-0.05c1.24-0.03,1.92,0.58,1.99,1.87
			c0.03,0.46-0.09,0.75-0.6,0.75c-3.14-0.01-6.29-0.01-9.43,0c-0.58,0-0.61-0.36-0.61-0.82C114.29,50.12,114.29,47.56,114.29,44.99"
			/>
	</g>
	<g>
		<path fill="#FFFFFF" d="M106.09,36.43c2.15,0,3.9,0.02,5.66-0.01c0.54-0.01,0.74,0.19,0.76,0.76c0.04,1.37-0.48,2.05-1.78,2.14
			c-0.81,0.05-1.63,0.06-2.45,0.01c-0.64-0.03-0.86,0.19-0.85,0.88c0.03,4.05,0.01,8.09,0.01,12.14c0,1.19,0,1.19-1.11,1.19
			c-0.52,0-1.04-0.04-1.56,0.01c-0.6,0.05-0.75-0.22-0.75-0.81c0.02-4.12,0.02-8.25,0.02-12.37c0-1.04,0-1.04-0.97-1.04
			c-1.11,0-2.23-0.02-3.34,0.01c-0.57,0.02-0.8-0.18-0.79-0.8c0.02-1.23,0.49-1.9,1.69-2.03C102.57,36.31,104.53,36.49,106.09,36.43
			"/>
	</g>
	<g>
		<path fill="#FFFFFF" d="M96.12,47.75c-0.92-0.04-2.01,0.12-3.09-0.08c-1.05-0.19-1.6-1.21-1.26-2.27c0.1-0.31,0.3-0.39,0.57-0.38
			c2.02,0.04,4.05-0.13,6.07,0.09c1.09,0.12,1.66,1.19,1.28,2.29c-0.12,0.36-0.4,0.34-0.67,0.34c-0.47,0.01-0.94,0-1.41,0
			C97.17,47.75,96.72,47.75,96.12,47.75"/>
	</g>
	<g>
		<path fill="#FFFFFF" d="M104.63,62.29c0,1.03-0.01,2.03,0,3.03c0.01,0.48,0,0.86-0.64,0.85c-0.62-0.01-0.57-0.42-0.57-0.84
			c0-1.58-0.01-3.16,0.01-4.74c0-0.28-0.13-0.67,0.27-0.79c0.43-0.13,0.79,0.04,1.03,0.42c0.52,0.85,1.02,1.72,1.52,2.58
			c0.19,0.33,0.39,0.65,0.77,0.96c0-0.42,0-0.83,0-1.25c0-0.73,0-1.45,0-2.18c0-0.29,0-0.61,0.38-0.62c0.31-0.01,0.6,0.11,0.71,0.45
			c0.06,0.19,0.08,0.41,0.08,0.61c0.01,1.55,0.01,3.11,0,4.66c0,0.26,0.11,0.62-0.27,0.71c-0.35,0.08-0.68,0.06-0.91-0.32
			c-0.59-0.99-1.2-1.96-1.82-2.93C105.07,62.68,105.02,62.39,104.63,62.29"/>
	</g>
	<g>
		<path fill="#FFFFFF" d="M50.4,63.76c0-1.14,0-2.28,0-3.42c0-0.24-0.08-0.58,0.28-0.61c0.33-0.03,0.67,0.02,0.79,0.41
			c0.07,0.24,0.09,0.51,0.1,0.76c0.01,1.51,0.01,3.01,0,4.52c0,0.26,0.11,0.63-0.27,0.71c-0.37,0.08-0.71,0.07-0.96-0.35
			c-0.64-1.08-1.32-2.14-1.98-3.2c-0.05-0.08-0.12-0.16-0.22-0.29c-0.21,0.31-0.12,0.62-0.12,0.9c-0.02,0.8-0.02,1.61,0,2.41
			c0.01,0.46-0.2,0.57-0.6,0.57c-0.38,0-0.62-0.09-0.62-0.56c0.01-1.76,0-3.53,0.01-5.29c0-0.24,0.02-0.49,0.32-0.52
			c0.33-0.04,0.66-0.02,0.87,0.3c0.37,0.58,0.72,1.18,1.07,1.77c0.39,0.65,0.77,1.31,1.15,1.96C50.28,63.81,50.34,63.78,50.4,63.76"
			/>
	</g>
	<g>
		<path fill="#FFFFFF" d="M77.73,62.36c0,1,0,2,0,3c0,0.43,0.04,0.82-0.58,0.83c-0.65,0.01-0.64-0.39-0.63-0.86
			c0-1.58-0.01-3.16,0.01-4.75c0-0.28-0.12-0.67,0.3-0.77c0.39-0.09,0.74,0.02,0.97,0.4c0.52,0.88,1.04,1.76,1.56,2.65
			c0.19,0.33,0.38,0.65,0.76,0.94c0-1.04-0.02-2.09,0.01-3.13c0.01-0.34-0.28-0.93,0.41-0.94c0.62-0.01,0.76,0.46,0.76,1.01
			c0,1.56,0.01,3.11-0.01,4.67c0,0.28,0.13,0.67-0.32,0.74c-0.36,0.06-0.67,0.02-0.89-0.36c-0.58-0.97-1.18-1.92-1.78-2.87
			c-0.13-0.21-0.28-0.4-0.42-0.6L77.73,62.36z"/>
	</g>
	<g>
		<path fill="#FFFFFF" d="M120.42,62.87c0-0.83,0.01-1.66,0-2.49c-0.01-0.46,0.18-0.65,0.63-0.64c0.89,0.02,1.78,0,2.67,0.01
			c0.23,0,0.54-0.06,0.56,0.33c0.03,0.38-0.19,0.59-0.53,0.62c-0.44,0.04-0.89,0.07-1.33,0.04c-0.6-0.03-0.69,0.31-0.69,0.83
			c0,0.52,0.09,0.87,0.69,0.82c0.3-0.02,0.59,0,0.89,0.01c0.33,0.01,0.42,0.22,0.41,0.52c-0.01,0.28-0.12,0.44-0.4,0.44
			c-0.2,0-0.4,0.01-0.59,0.01c-0.97,0.01-1.04,0.11-0.99,1.12c0.02,0.47,0.21,0.65,0.64,0.63c0.42-0.01,0.84-0.01,1.26,0
			c0.4,0.01,0.7,0.21,0.71,0.64c0.01,0.49-0.41,0.35-0.67,0.36c-0.87,0.02-1.73-0.01-2.6,0.01c-0.48,0.01-0.66-0.21-0.66-0.7
			C120.43,64.58,120.42,63.73,120.42,62.87"/>
	</g>
	<g>
		<path fill="#FFFFFF" d="M90.56,62.94c0-0.8,0.02-1.61-0.01-2.41c-0.02-0.61,0.22-0.82,0.79-0.8c0.84,0.04,1.68,0,2.52,0.01
			c0.23,0,0.54-0.06,0.55,0.34c0.01,0.33-0.16,0.57-0.46,0.6c-0.46,0.05-0.94,0.08-1.4,0.06c-0.6-0.03-0.68,0.32-0.68,0.83
			c0,0.52,0.1,0.87,0.69,0.82c0.22-0.02,0.44,0,0.67,0c0.34,0,0.66,0.02,0.65,0.52c-0.01,0.46-0.3,0.47-0.61,0.46
			c-0.15,0-0.3,0-0.44,0c-0.94,0.01-0.94,0.04-0.95,0.99c-0.01,0.58,0.21,0.8,0.74,0.76c0.42-0.03,0.84-0.02,1.26,0.01
			c0.36,0.03,0.62,0.25,0.62,0.64c0,0.44-0.37,0.34-0.62,0.34c-0.86,0.01-1.73-0.02-2.59,0.01c-0.56,0.02-0.74-0.24-0.72-0.79
			C90.58,64.55,90.56,63.74,90.56,62.94"/>
	</g>
	<g>
		<path fill="#FFFFFF" d="M128.47,61.73c0.39-0.37,0.53-0.85,0.79-1.25c0.18-0.28,0.34-0.58,0.65-0.73c0.24-0.11,0.5-0.12,0.7,0.06
			c0.25,0.22,0.01,0.43-0.08,0.61c-0.34,0.63-0.67,1.27-1.06,1.87c-0.27,0.41-0.24,0.74,0,1.13c0.4,0.68,0.77,1.39,1.17,2.07
			c0.32,0.54,0.11,0.67-0.39,0.68c-0.56,0.02-0.84-0.33-1.09-0.78c-0.22-0.4-0.36-1.09-0.72-1.09c-0.45,0-0.56,0.71-0.77,1.13
			c-0.26,0.52-0.55,0.8-1.15,0.74c-0.46-0.05-0.49-0.22-0.28-0.58c0.4-0.69,0.77-1.39,1.18-2.07c0.24-0.4,0.26-0.74,0.02-1.14
			c-0.33-0.55-0.63-1.12-0.89-1.71c-0.11-0.26-0.56-0.58-0.12-0.84c0.37-0.22,0.85-0.17,1.13,0.26c0.24,0.36,0.41,0.77,0.62,1.15
			C128.26,61.39,128.35,61.54,128.47,61.73"/>
	</g>
	<g>
		<path fill="#FFFFFF" d="M148.77,62.97c0-0.83,0.02-1.66-0.01-2.49c-0.01-0.52,0.15-0.76,0.68-0.75c0.86,0.03,1.73,0,2.59,0.01
			c0.27,0,0.58-0.01,0.57,0.42c-0.01,0.35-0.23,0.51-0.52,0.54c-0.37,0.03-0.74,0.06-1.11,0.04c-0.59-0.04-0.91,0.11-0.9,0.85
			c0.01,0.69,0.3,0.85,0.86,0.8c0.17-0.02,0.35,0,0.52,0c0.33,0,0.58,0.08,0.57,0.52c-0.01,0.4-0.24,0.46-0.54,0.46
			c-0.15,0-0.3,0-0.44,0c-0.95,0.01-0.94,0.02-0.95,0.98c-0.01,0.56,0.18,0.81,0.73,0.78c0.44-0.02,0.89-0.01,1.33,0.04
			c0.32,0.03,0.58,0.24,0.57,0.61c-0.01,0.43-0.37,0.34-0.62,0.35c-0.89,0.01-1.78-0.01-2.67,0.01c-0.47,0.01-0.67-0.17-0.66-0.68
			C148.78,64.63,148.77,63.8,148.77,62.97"/>
	</g>
	<g>
		<path fill="#FFFFFF" d="M70.61,62.97c0-0.83,0.02-1.66-0.01-2.49c-0.02-0.53,0.16-0.76,0.68-0.74c0.87,0.03,1.73,0,2.6,0.01
			c0.24,0,0.53-0.04,0.56,0.34c0.03,0.39-0.19,0.59-0.53,0.61c-0.47,0.04-0.94,0.06-1.41,0.04c-0.61-0.02-0.58,0.4-0.58,0.83
			c-0.01,0.45,0,0.85,0.6,0.81c0.3-0.02,0.59,0,0.89,0.01c0.3,0,0.45,0.15,0.45,0.48c0,0.32-0.12,0.49-0.43,0.49
			c-0.17,0-0.35,0.01-0.52,0.01c-0.93,0.01-1.24,0.48-0.97,1.41c0.09,0.29,0.29,0.33,0.52,0.33c0.47,0.01,0.94,0,1.41,0.03
			c0.35,0.02,0.66,0.2,0.66,0.6c0.01,0.49-0.4,0.37-0.66,0.38c-0.84,0.02-1.68-0.02-2.52,0.02c-0.61,0.03-0.77-0.25-0.75-0.83
			C70.64,64.53,70.61,63.75,70.61,62.97"/>
	</g>
	<g>
		<path fill="#FFFFFF" d="M156.19,66.33c-0.51,0.01-0.98-0.12-1.43-0.37c-0.35-0.2-0.42-0.47-0.25-0.84
			c0.19-0.43,0.43-0.3,0.72-0.12c0.35,0.22,0.74,0.29,1.14,0.25c0.38-0.03,0.67-0.18,0.77-0.6c0.1-0.44-0.08-0.77-0.45-0.96
			c-0.38-0.19-0.77-0.35-1.16-0.52c-0.67-0.29-1.13-0.75-1.14-1.56c-0.01-0.82,0.38-1.36,1.08-1.69c0.83-0.4,1.64-0.31,2.44,0.07
			c0.3,0.15,0.54,0.36,0.37,0.8c-0.2,0.51-0.49,0.28-0.78,0.14c-0.09-0.04-0.18-0.09-0.28-0.11c-0.55-0.15-1.16-0.27-1.4,0.42
			c-0.25,0.7,0.33,0.93,0.82,1.14c0.18,0.08,0.37,0.14,0.56,0.22c1.03,0.42,1.43,1.01,1.32,1.97c-0.09,0.88-0.73,1.53-1.68,1.72
			C156.64,66.32,156.42,66.31,156.19,66.33"/>
	</g>
	<g>
		<path fill="#FFFFFF" d="M33.89,62.88c0.03,1.94,1,2.63,2.7,1.9c0.23-0.1,0.42-0.16,0.58,0.09c0.16,0.23,0.23,0.47,0.05,0.71
			c-0.18,0.26-0.41,0.46-0.71,0.54c-1.5,0.41-3.51,0.2-3.9-2.34c-0.15-0.96-0.1-1.92,0.35-2.8c0.67-1.32,2.64-1.86,3.83-1.06
			c0.14,0.09,0.28,0.23,0.36,0.38c0.12,0.23,0.05,0.45-0.11,0.64c-0.16,0.2-0.31,0.17-0.51,0.04
			C35.33,60.25,33.73,60.71,33.89,62.88"/>
	</g>
	<g>
		<path fill="#FFFFFF" d="M83.65,63.12c-0.01-2.68,1.63-4.06,3.8-3.35c0.14,0.05,0.28,0.1,0.41,0.18c0.32,0.21,0.55,0.48,0.34,0.89
			c-0.22,0.44-0.49,0.25-0.8,0.08c-0.7-0.39-1.53-0.3-2,0.18c-0.56,0.55-0.73,2.12-0.33,3.02c0.32,0.72,0.89,1.06,1.69,0.96
			c0.22-0.03,0.43-0.1,0.63-0.2c0.32-0.16,0.63-0.38,0.85,0.12c0.19,0.44,0,0.75-0.35,0.97c-1.26,0.81-3.32,0.16-3.94-1.25
			C83.71,64.16,83.64,63.58,83.65,63.12"/>
	</g>
	<g>
		<path fill="#FFFFFF" d="M54.02,63c0-0.86,0.01-1.71-0.01-2.57c-0.01-0.49,0.17-0.71,0.65-0.69c0.89,0.02,1.78,0,2.67,0.01
			c0.24,0,0.54-0.05,0.53,0.36c-0.01,0.32-0.18,0.56-0.5,0.58c-0.52,0.03-1.04,0.04-1.56,0.03c-0.53-0.01-0.51,0.36-0.5,0.73
			c0.01,0.38-0.09,0.83,0.5,0.81c0.32-0.01,0.64,0.01,0.96,0.01c0.3,0,0.46,0.12,0.46,0.46c0,0.31-0.12,0.45-0.42,0.51
			c-0.5,0.1-1.19-0.33-1.45,0.34c-0.18,0.47-0.06,1.07-0.05,1.62c0.01,0.54,0.07,1.06-0.72,0.99c-0.42-0.04-0.57-0.2-0.56-0.61
			C54.03,64.71,54.02,63.85,54.02,63"/>
	</g>
	<g>
		<path fill="#FFFFFF" d="M134.22,63.53c0-0.67-0.01-1.35,0-2.02c0.01-0.49-0.18-0.72-0.66-0.69c-0.22,0.01-0.44,0-0.67-0.01
			c-0.25-0.01-0.54,0.01-0.56-0.35c-0.03-0.32,0.16-0.54,0.45-0.63c0.14-0.05,0.29-0.05,0.44-0.06c1.19,0,2.37-0.01,3.56,0
			c0.26,0,0.6-0.06,0.62,0.36c0.01,0.36-0.21,0.56-0.53,0.66c-0.05,0.01-0.1,0.02-0.14,0.03c-0.37,0.1-0.87-0.17-1.11,0.21
			c-0.24,0.39-0.09,0.91-0.09,1.37c-0.01,1.01-0.02,2.02,0,3.03c0.01,0.52-0.14,0.74-0.67,0.74c-0.5-0.01-0.65-0.23-0.63-0.7
			C134.23,64.83,134.22,64.18,134.22,63.53L134.22,63.53z"/>
	</g>
	<g>
		<path fill="#FFFFFF" d="M115.36,63.45c0-0.65-0.01-1.29,0-1.94c0.01-0.5-0.2-0.71-0.67-0.69c-0.22,0.01-0.44,0.01-0.67-0.01
			c-0.26-0.02-0.59,0.02-0.6-0.39c-0.01-0.37,0.24-0.57,0.55-0.62c0.29-0.05,0.59-0.03,0.89-0.03c0.99,0,1.97-0.01,2.96,0
			c0.25,0,0.59-0.09,0.63,0.33c0.04,0.41-0.2,0.61-0.55,0.7c-0.02,0.01-0.05,0.01-0.07,0.02c-1.18,0.25-1.18,0.25-1.18,1.53
			c0,1.06-0.01,2.12,0,3.18c0.01,0.46-0.15,0.64-0.6,0.64c-0.44,0-0.71-0.1-0.69-0.64C115.39,64.84,115.37,64.14,115.36,63.45
			L115.36,63.45z"/>
	</g>
	<g>
		<path fill="#FFFFFF" d="M142.96,62.85c0-0.83-0.01-1.66,0-2.49c0-0.29-0.08-0.69,0.37-0.7c0.4-0.01,0.77,0.14,0.83,0.6
			c0.07,0.46,0.06,0.93,0.07,1.39c0.01,0.86,0.04,1.71-0.01,2.57c-0.04,0.71,0.24,0.93,0.87,0.86c0.34-0.04,0.69-0.01,1.04,0.01
			c0.34,0.02,0.57,0.22,0.57,0.59c0,0.44-0.35,0.36-0.6,0.36c-0.82,0.01-1.63-0.02-2.45,0.01c-0.57,0.02-0.72-0.25-0.7-0.8
			C142.98,64.46,142.96,63.65,142.96,62.85"/>
	</g>
	<g>
		<path fill="#FFFFFF" d="M99.77,62.86c0-0.8-0.01-1.61,0-2.41c0-0.32-0.08-0.75,0.42-0.74c0.43,0,0.77,0.2,0.84,0.71
			c0.02,0.18,0.02,0.36,0.02,0.54c0,1.43,0,2.85,0,4.28c0,0.46,0.1,0.94-0.63,0.94c-0.76,0.01-0.67-0.49-0.67-0.98
			c0-0.78,0-1.56,0-2.33H99.77z"/>
	</g>
	<g>
		<path fill="#FFFFFF" d="M139.29,62.9c0-0.8-0.01-1.61,0.01-2.41c0.01-0.31-0.11-0.76,0.37-0.79c0.46-0.03,0.83,0.19,0.88,0.73
			c0.04,0.41,0.02,0.83,0.02,1.24c0,1.24-0.01,2.49,0.01,3.73c0.01,0.51-0.12,0.75-0.66,0.75c-0.56,0-0.65-0.3-0.64-0.78
			c0.02-0.83,0-1.66,0-2.49H139.29z"/>
	</g>
	<g>
		<path fill="#FFFFFF" d="M59.88,62.88c0-0.83-0.01-1.65,0-2.48c0-0.29-0.07-0.69,0.38-0.69c0.39,0,0.76,0.12,0.81,0.61
			c0.04,0.46,0.03,0.93,0.03,1.39c0,1.27-0.01,2.53,0.01,3.8c0.01,0.46-0.15,0.65-0.6,0.65c-0.45,0-0.7-0.13-0.69-0.65
			c0.01-0.88,0-1.75,0-2.63H59.88z"/>
	</g>
	<g>
		<path fill="#FFFFFF" d="M45.5,41.32c-1.43-5.28-8.14-6.99-11.91-3.12c-1.83,1.88-2.34,4.26-2.35,7.13
			c-0.03,0.74,0.13,1.76,0.31,2.78c0.59,3.32,2.93,5.59,6.05,5.88c3.69,0.34,6.56-1.4,7.68-4.71C46.17,46.67,46.21,43.96,45.5,41.32
			 M42.53,45.09c-0.08,1.64-0.22,3.27-1.18,4.66c-1.46,2.09-4.68,1.89-5.78-0.44c-1.21-2.56-1.25-5.28-0.29-7.94
			c0.61-1.68,1.99-2.52,3.54-2.41c1.65,0.11,2.75,1.08,3.27,2.9C42.38,42.91,42.55,43.98,42.53,45.09z"/>
	</g>
	<g>
		<path fill="#FFFFFF" d="M88.78,42.87c-0.17-1.73-0.72-3.3-1.88-4.55c-2.12-2.29-4.75-2.48-7.5-1.78c-2.28,0.58-3.75,2.2-4.55,4.5
			c-0.45,1.28-0.61,2.62-0.58,3.56c0.01,1.48,0.1,2.53,0.3,3.58c0.65,3.31,2.81,5.43,5.95,5.8c3.44,0.41,6.31-1.21,7.57-4.31
			C88.99,47.49,89.01,45.19,88.78,42.87 M84.68,49.26c-1.09,2.27-4.2,2.64-5.72,0.68c-1.64-2.12-1.66-7.45-0.04-9.58
			c1.68-2.2,4.78-1.82,5.92,0.73c0.55,1.23,0.66,2.54,0.65,3.87C85.51,46.46,85.32,47.91,84.68,49.26z"/>
	</g>
	<g>
		<path fill="#FFFFFF" d="M66.17,59.82c-0.68-0.13-1.37-0.15-2.06-0.07c-0.44,0.05-0.61,0.22-0.6,0.67c0.02,0.85,0,1.71,0,2.56h0
			v1.01c0,2.33,0,2.33,2.25,2.17c1.22-0.09,2.03-0.74,2.42-1.94C68.85,62.1,67.98,60.15,66.17,59.82 M67.04,63.45
			c-0.12,1.03-0.62,1.57-1.53,1.71c-0.5,0.07-0.76-0.06-0.73-0.64c0.02-0.52,0.01-1.04,0.01-1.56c0-0.52,0.02-1.04,0-1.56
			c-0.03-0.58,0.26-0.73,0.74-0.67c0.15,0.02,0.29,0.05,0.43,0.1C66.84,61.17,67.2,62.03,67.04,63.45z"/>
	</g>
	<g>
		<path fill="#FFFFFF" d="M44.46,62.26c-0.18-1.54-1.01-2.47-2.32-2.6c-1.42-0.15-2.53,0.61-2.95,2.04
			c-0.28,0.97-0.25,1.95,0.08,2.9c0.4,1.17,1.2,1.71,2.46,1.72c1.24,0.01,2.06-0.55,2.49-1.69c0.2-0.54,0.27-1.1,0.27-1.85
			C44.48,62.72,44.49,62.49,44.46,62.26 M42.86,64.45c-0.25,0.49-0.67,0.76-1.22,0.71c-0.55-0.04-0.91-0.38-1.12-0.89
			c-0.17-0.43-0.23-0.9-0.23-1.37c0.02-0.55,0.06-1.09,0.36-1.56c0.3-0.46,0.71-0.69,1.26-0.65c0.53,0.04,0.88,0.34,1.06,0.83
			C43.35,62.52,43.35,63.51,42.86,64.45z"/>
	</g>
	<g>
		<path fill="#FFFFFF" d="M151.33,36.1c-4.61,0.01-8.41,4.1-8.4,9.03c0.01,4.97,3.88,9.03,8.59,9.01c4.71-0.02,8.63-4.13,8.62-9.03
			C160.12,40.05,156.25,36.09,151.33,36.1 M151.5,51.99c-3.59,0-6.57-3.13-6.59-6.89c-0.02-3.81,3.01-6.95,6.7-6.94
			c3.54,0.01,6.5,3.19,6.49,6.98C158.09,48.92,155.14,51.99,151.5,51.99z"/>
	</g>
	<g>
		<path fill="#FFFFFF" d="M154.87,48.69c-0.47-0.79-0.9-1.61-1.38-2.4c-0.28-0.46-0.34-0.74,0.17-1.13
			c0.89-0.66,1.14-1.66,0.91-2.77c-0.22-1.08-0.93-1.59-1.91-1.81c-1.03-0.24-2.07-0.1-3.1-0.11c-0.56,0-0.71,0.27-0.7,0.82
			c0.03,1.19,0.01,2.38,0.01,3.58c0,1.27,0.02,2.54-0.01,3.81c-0.02,0.7,0.42,0.64,0.84,0.63c0.42-0.01,0.95,0.14,0.92-0.63
			c-0.02-0.65-0.02-1.3,0-1.94c0.01-0.28-0.12-0.67,0.3-0.77c0.37-0.09,0.52,0.2,0.67,0.47c0.39,0.69,0.79,1.38,1.17,2.07
			c0.4,0.72,1.01,0.94,1.77,0.83C154.99,49.29,155.13,49.13,154.87,48.69 M151.39,44.82c-0.48,0.04-0.77-0.08-0.72-0.66
			c0.02-0.31,0-0.62,0-0.93c0-0.13-0.03-0.27,0-0.39c0.1-0.41-0.3-1.06,0.51-1.12c0.87-0.06,1.5,0.37,1.6,1.12
			C152.95,44.08,152.47,44.74,151.39,44.82z"/>
	</g>
</g>
</svg>
