<?xml version="1.0" encoding="utf-8"?>
<!-- Generator: Adobe Illustrator 27.6.1, SVG Export Plug-In . SVG Version: 6.00 Build 0)  -->
<svg version="1.1" id="Layer_1" xmlns="http://www.w3.org/2000/svg" xmlns:xlink="http://www.w3.org/1999/xlink" x="0px" y="0px"
	 viewBox="0 0 191.36 102.43" enable-background="new 0 0 191.36 102.43" xml:space="preserve">
<g>
	<g>
		<path fill="#FFFFFF" d="M97.66,72.18h-7.95c-0.46,0-0.83-0.39-0.83-0.88V31.2c0-0.48,0.37-0.88,0.83-0.88h7.95
			c0.46,0,0.83,0.39,0.83,0.88v40.11C98.49,71.79,98.12,72.18,97.66,72.18"/>
	</g>
	<g>
		<path fill="#FFFFFF" d="M57.87,58.85c-0.17-6.8-4.89-8.88-4.89-8.88c-0.39-0.2,0.01-0.49,0.01-0.49
			c4.82-4.13,3.74-10.12,3.74-10.12c-1.08-9.47-11.08-9.03-11.08-9.03H31.22c-0.23,0-0.06,0.52-0.06,0.52l4.26,19.39
			c0.26,0.88,0.14,1.35,0.14,1.35l-4.52,20.29c-0.13,0.29,0.08,0.31,0.08,0.31h13.43c6.05,0.12,8.5-1.94,8.5-1.94
			C58.3,66.23,57.87,58.85,57.87,58.85 M42.15,37.32c0,0,3.62-0.35,4.87,2.16c0,0,0.55,0.86,0.53,2.44
			c0.02,1.58-0.53,2.44-0.53,2.44c-1.26,2.51-4.87,2.16-4.87,2.16c-0.25,0-0.23-0.34-0.23-0.34v-4.26v-4.26
			C41.91,37.66,41.89,37.32,42.15,37.32z M47.65,61.91c-1.28,2.91-5.47,2.64-5.47,2.64c-0.28,0-0.26-0.38-0.26-0.38v-4.99v-4.78
			c0,0-0.02-0.38,0.26-0.38c0,0,4.09-0.43,5.54,2.3c0,0,0.55,1.09,0.53,2.86C48.27,60.94,47.65,61.91,47.65,61.91z"/>
	</g>
	<g>
		<path fill="#FFFFFF" d="M85.79,45.12H77.9c0,0-0.93-0.06-0.93-1.1c0,0,0.58-6.83-3.8-6.59c0,0-3.45-0.58-3.56,5.64
			c0,0-0.23,8.95,0,13.66c0,0-0.06,5.33,1.08,6.95c0,0,0.79,1.41,2.66,1.38c0,0,2.89,0.37,3.3-3.58c0,0,0.38-3.8,0.2-5.27
			c0,0-0.05-0.54,0.42-0.5h8.2c0,0,0.88-0.02,0.84,1.08c0,0,0.08,3.13-0.23,5.19c0,0-0.33,11.72-13.48,11.19
			c0,0-9.72,0.08-11.82-8.62c0,0-0.86-4-0.93-9.09c0,0-0.02-4.98,0.14-11.89c0,0-0.02-9.01,5.1-12.11c0,0,2.98-2.37,8.26-2.23
			c0,0,7.56-0.16,10.54,5.05c0,0,2.18,2.86,2.44,9.64v0.83c0,0,0.04,0.35-0.34,0.37H85.79z"/>
	</g>
	<g>
		<path fill="#FFFFFF" d="M115.48,42.77v-8.91h2.34c1.48-0.06,2.06,0.89,2.09,2.21c0.03,1-0.26,1.59-1.23,1.96v0.02
			c1.08,0.13,1.42,1,1.42,2.09c0.01,1.77-0.88,2.71-2.46,2.63H115.48z M116.44,37.56h0.81c1.1,0.06,1.74-0.15,1.74-1.49
			c0-1.07-0.38-1.41-1.75-1.37h-0.8V37.56z M117.93,41.93c1.03,0.01,1.4-0.51,1.4-1.7c0-1.8-1.08-1.66-2.04-1.66h-0.84v3.36H117.93z
			"/>
	</g>
	<g>
		<path fill="#FFFFFF" d="M125.63,40.58c0.06,1.28-0.56,2.35-1.85,2.35c-1.15,0-1.99-0.82-1.99-3.45c0-1.37,0.33-3.43,1.97-3.43
			c1.99,0,1.88,1.99,1.92,3.52h-2.98c0.01,0.22,0.01,0.48,0.01,0.77c0,0.86,0.19,1.79,1.09,1.79c0.84,0,1.07-0.82,1.02-1.56H125.63z
			 M124.78,38.73c-0.03-0.77,0.01-2-1.02-2c-1.03,0-1.05,1.21-1.08,2H124.78z"/>
	</g>
	<g>
		<path fill="#FFFFFF" d="M128.3,36.21h0.96v0.67h-0.96v4.53c0,0.23-0.07,0.51,0.39,0.51h0.57v0.84h-0.99
			c-0.55,0-0.93-0.08-0.93-1.14v-4.74h-0.8v-0.67h0.96v-1.85h0.8V36.21z"/>
	</g>
	<g>
		<path fill="#FFFFFF" d="M131.67,36.21h0.96v0.67h-0.96v4.53c0,0.23-0.07,0.51,0.39,0.51h0.57v0.84h-0.99
			c-0.55,0-0.93-0.08-0.93-1.14v-4.74h-0.8v-0.67h0.96v-1.85h0.8V36.21z"/>
	</g>
	<g>
		<path fill="#FFFFFF" d="M137.48,40.58c0.06,1.28-0.56,2.35-1.85,2.35c-1.15,0-1.99-0.82-1.99-3.45c0-1.37,0.33-3.43,1.96-3.43
			c1.99,0,1.88,1.99,1.92,3.52h-2.98c0.01,0.22,0.01,0.48,0.01,0.77c0,0.86,0.19,1.79,1.09,1.79c0.84,0,1.07-0.82,1.02-1.56H137.48z
			 M136.63,38.73c-0.03-0.77,0.01-2-1.02-2c-1.03,0-1.05,1.21-1.08,2H136.63z"/>
	</g>
	<g>
		<path fill="#FFFFFF" d="M140,37.22h0.15c0.36-0.87,0.86-1.24,1.77-1.15v0.93c-1.1-0.23-1.76,0.56-1.76,1.75v4.03h-0.96v-6.56h0.8
			V37.22z"/>
	</g>
	<g>
		<path fill="#FFFFFF" d="M119.31,48.99c-0.03-1.05-0.35-1.97-1.51-1.97c-1.61,0-1.64,2.43-1.64,3.62c-0.01,0.2-0.01,0.44-0.01,0.71
			c0,1.32,0.22,3.2,1.65,3.2c1.11,0,1.33-0.96,1.46-1.94c0.03-0.2,0.02-0.41,0.06-0.61h0.93c-0.01,0.08-0.02,0.18-0.02,0.27
			c0,0.1-0.01,0.19-0.02,0.27c-0.06,0.74-0.08,1.27-0.49,1.89c-0.44,0.65-1.02,1-1.83,1c-2.59,0-2.68-2.66-2.68-4.79
			c0-2.01,0.28-4.54,2.67-4.54c1.58,0,2.43,1.26,2.38,2.86H119.31z"/>
	</g>
	<g>
		<path fill="#FFFFFF" d="M124.3,55.44c-1.34,0-2.22-0.86-2.22-3.71c0-2,0.7-3.26,2.22-3.26c1.52,0,2.22,1.26,2.22,3.26
			C126.52,54.59,125.66,55.44,124.3,55.44 M124.3,49.28c-0.91,0-1.31,0.76-1.31,2.76c0,1.56,0.28,2.61,1.31,2.61
			c1.05,0,1.31-1.06,1.31-2.61C125.6,50.04,125.22,49.28,124.3,49.28z"/>
	</g>
	<g>
		<path fill="#FFFFFF" d="M129.1,48.65h1.12v0.84h-0.96v4.38c0,0.22-0.07,0.5,0.39,0.5h0.58v0.84h-0.99c-0.55,0-0.93-0.08-0.93-1.14
			v-4.57h-0.8v-0.84h0.8V46.8h0.8V48.65z"/>
	</g>
	<g>
		<path fill="#FFFFFF" d="M132.15,48.65h1.12v0.84h-0.96v4.38c0,0.22-0.07,0.5,0.39,0.5h0.57v0.84h-0.99
			c-0.55,0-0.93-0.08-0.93-1.14v-4.57h-0.8v-0.84h0.8V46.8h0.8V48.65z"/>
	</g>
	<g>
		<path fill="#FFFFFF" d="M136.55,55.44c-1.34,0-2.22-0.86-2.22-3.71c0-2,0.7-3.26,2.22-3.26c1.52,0,2.22,1.26,2.22,3.26
			C138.78,54.59,137.92,55.44,136.55,55.44 M136.55,49.28c-0.91,0-1.31,0.76-1.31,2.76c0,1.56,0.28,2.61,1.31,2.61
			c1.05,0,1.31-1.06,1.31-2.61C137.86,50.04,137.48,49.28,136.55,49.28z"/>
	</g>
	<g>
		<path fill="#FFFFFF" d="M141.28,49.37c0.44-0.57,0.89-0.9,1.54-0.9c0.92,0,1.5,0.51,1.5,1.67v5.06h-0.8v-4.84
			c0-0.7-0.22-1.15-0.95-1.15c-0.34,0-0.64,0.12-0.89,0.37c-0.36,0.34-0.41,0.72-0.41,1.2v4.42h-0.96v-6.56h0.96V49.37z"/>
	</g>
	<g>
		<rect x="115.64" y="58.9" fill="#FFFFFF" width="0.96" height="8.91"/>
	</g>
	<g>
		<path fill="#FFFFFF" d="M119.17,61.98c0.44-0.57,0.89-0.9,1.54-0.9c0.92,0,1.5,0.51,1.5,1.67v5.06h-0.8v-4.84
			c0-0.7-0.22-1.15-0.95-1.15c-0.34,0-0.64,0.12-0.89,0.37c-0.36,0.34-0.41,0.72-0.41,1.2v4.42h-0.96v-6.56h0.96V61.98z"/>
	</g>
	<g>
		<path fill="#FFFFFF" d="M124.13,58.9h0.96v1.18h-0.96V58.9z M124.13,61.26h0.96v6.56h-0.96V61.26z"/>
	</g>
	<g>
		<path fill="#FFFFFF" d="M127.66,61.26h0.96v0.67h-0.96v4.53c0,0.23-0.07,0.51,0.39,0.51h0.57v0.84h-0.99
			c-0.55,0-0.93-0.08-0.93-1.14V62.1h-0.8v-0.84h0.96v-1.85h0.8V61.26z"/>
	</g>
	<g>
		<path fill="#FFFFFF" d="M129.9,58.9h0.96v1.18h-0.96V58.9z M129.9,61.26h0.96v6.56h-0.96V61.26z"/>
	</g>
	<g>
		<path fill="#FFFFFF" d="M136.64,67.81c0.01,0.01-0.04,0.01-0.12,0.05c-0.75,0.04-1.03-0.04-1.12-1.05h-0.02
			c-0.21,0.7-0.78,1.18-1.38,1.18c-1.25,0-1.6-0.75-1.6-1.94c0-0.25,0.03-1.19,0.89-1.6c0.5-0.25,1.74-0.74,1.87-0.83
			c0.19-0.15,0.17-0.42,0.17-0.76c0-0.76-0.27-1.03-0.98-1.03c-0.81,0-0.91,0.39-0.91,1.12h-0.79c-0.04-1.33,0.58-1.91,1.85-1.91
			c1.85,0,1.69,1.64,1.66,1.79v3.79c0.03,0.18,0.01,0.4,0.18,0.5c0.06,0.01,0.12,0.02,0.19,0.02c0.07,0,0.13,0,0.11-0.01V67.81z
			 M135.19,64.25c-0.44,0.27-0.92,0.48-1.4,0.71c-0.41,0.2-0.55,0.68-0.55,1.14c0,0.67,0.16,1.09,0.87,1.09
			c0.32,0,1.07-0.27,1.07-1.34V64.25z"/>
	</g>
	<g>
		<path fill="#FFFFFF" d="M139.04,61.26h1.12v0.67h-0.96v4.53c0,0.23-0.07,0.51,0.39,0.51h0.57v0.84h-0.99
			c-0.55,0-0.93-0.08-0.93-1.14V62.1h-0.8v-0.84h0.8v-1.85h0.8V61.26z"/>
	</g>
	<g>
		<path fill="#FFFFFF" d="M141.28,58.9h0.96v1.18h-0.96V58.9z M141.28,61.26h0.96v6.56h-0.96V61.26z"/>
	</g>
	<g>
		<polygon fill="#FFFFFF" points="143.39,61.09 144.33,61.09 145.75,66.97 145.78,66.97 147.2,61.09 148.14,61.09 146.24,67.81 
			145.26,67.81 		"/>
	</g>
	<g>
		<path fill="#FFFFFF" d="M153.04,65.63c0.06,1.28-0.56,2.35-1.85,2.35c-1.15,0-1.99-0.82-1.99-3.45c0-1.37,0.33-3.43,1.97-3.43
			c1.99,0,1.88,1.99,1.92,3.52h-2.98c0.01,0.22,0.01,0.48,0.01,0.77c0,0.86,0.19,1.79,1.09,1.79c0.84,0,1.07-0.82,1.02-1.56H153.04z
			 M152.19,63.78c-0.03-0.77,0.01-2-1.02-2c-1.03,0-1.05,1.21-1.08,2H152.19z"/>
	</g>
	<g>
		<path fill="#FFFFFF" d="M152.18,30.33h-46.95l4.82,19.19c0,0,0.26,1.13,0.26,1.3c0.02,0.14,0,0.72,0,0.72
			c0,0.17-0.26,1.3-0.26,1.3l-4.82,19.19h46.96c0,0,8.05,0.12,8.17-8.16V52.67v-0.81V38.49C160.24,30.21,152.19,30.33,152.18,30.33
			L152.18,30.33z M159.71,51.95v0.75v12.07c-0.68,6.97-7.82,6.74-7.82,6.74h-46.13l4.59-18.68c0,0,0.34-1.03,0.32-1.47v-0.39
			c0.02-0.43-0.32-1.47-0.32-1.47l-4.59-18.68h46.13c0,0,7.14-0.23,7.82,6.74V51.95z"/>
	</g>
</g>
</svg>
