<?xml version="1.0" encoding="utf-8"?>
<!-- Generator: Adobe Illustrator 27.6.1, SVG Export Plug-In . SVG Version: 6.00 Build 0)  -->
<svg version="1.1" id="Layer_1" xmlns="http://www.w3.org/2000/svg" xmlns:xlink="http://www.w3.org/1999/xlink" x="0px" y="0px"
	 viewBox="0 0 191.36 102.43" enable-background="new 0 0 191.36 102.43" xml:space="preserve">
<g>
	<g>
		<path fill="#FFFFFF" d="M112.63,45.43c0,2.37-1.73,3.56-3.46,3.56c-2.48,0-3.89-1.99-3.89-4.77c0-3.04,1.61-5,3.92-5
			c2.05,0,3.43,1.55,3.43,3.43V45.43z M113.15,37.15l-0.14,1.91h-0.06c-0.66-1.13-1.99-2.22-4.35-2.22c-3.46,0-6.72,2.68-6.72,7.5
			c0,3.97,2.57,6.94,6.31,6.94c2.05,0,3.6-0.88,4.41-2.09h0.06v1.37c0,3.22-1.85,4.51-4.44,4.51c-1.79,0-3.32-0.49-4.3-1.01
			l-0.75,2.32c1.24,0.67,3.17,1.03,5.02,1.03c7.52,0,7.78-5.23,7.78-8.07v-8.1c0-1.91,0.06-3.09,0.14-4.1H113.15z M97.27,45.43
			c0,2.37-1.73,3.56-3.46,3.56c-2.48,0-3.89-1.99-3.89-4.77c0-3.04,1.61-5,3.92-5c2.05,0,3.43,1.55,3.43,3.43V45.43z M97.79,37.15
			l-0.14,1.91h-0.06c-0.66-1.13-1.99-2.22-4.35-2.22c-3.46,0-6.72,2.68-6.72,7.5c0,3.97,2.57,6.94,6.31,6.94
			c2.05,0,3.6-0.88,4.41-2.09h0.06v1.37c0,3.22-1.85,4.51-4.44,4.51c-1.79,0-3.32-0.49-4.3-1.01l-0.75,2.32
			c1.24,0.67,3.17,1.03,5.02,1.03c7.52,0,7.78-5.23,7.78-8.07v-8.1c0-1.91,0.06-3.09,0.14-4.1H97.79z M85.22,37.15h-3.34v14.21h3.34
			V37.15z M85.51,33.23c0-1.01-0.78-1.75-1.93-1.75c-1.15,0-1.96,0.75-1.96,1.75c0,0.95,0.78,1.73,1.93,1.73
			C84.76,34.96,85.51,34.19,85.51,33.23z M49.67,74.39h3.09V54.64h-3.09V74.39z M68.94,65.7c0-4.38-2.55-5.83-4.84-5.83
			c-2.21,0-3.75,1.21-4.44,2.42h-0.08l-0.16-2.11h-2.69c0.05,1.21,0.11,2.42,0.11,4v10.21h3.09v-8.56c0-2.27,1.62-3.48,3.14-3.48
			c2.1,0,2.79,1.7,2.79,3.71v8.33h3.09V65.7z M81.97,68.56c0,1.99-1.3,3.69-3.3,3.69c-2.34,0-3.62-2.14-3.62-4.92
			c0-2.81,1.3-5.08,3.67-5.08c1.73,0,3.25,1.37,3.25,3.69V68.56z M85.06,53.71h-3.09v8.07h-0.05c-0.64-1.08-2-1.91-3.88-1.91
			c-3.27,0-6.12,2.73-6.12,7.55c0,4.38,2.53,7.24,5.85,7.24c2.08,0,3.67-1.06,4.44-2.5h0.08l0.16,2.22h2.71
			c-0.05-0.98-0.11-2.5-0.11-3.79V53.71z M91.1,65.83c0.16-1.65,1.12-3.82,3.38-3.82c2.37,0,3.09,2.11,3.06,3.82H91.1z M99.22,71.7
			c-0.96,0.39-2.08,0.67-3.7,0.67c-2.31,0-4.36-1.21-4.44-4.41h9.31c0.05-0.36,0.08-0.77,0.08-1.26c0-3.51-1.65-6.83-5.77-6.83
			c-4.15,0-6.6,3.38-6.6,7.61c0,4.33,2.55,7.19,6.97,7.19c2,0,3.62-0.39,4.66-0.85L99.22,71.7z M111.37,60.18l-1.68,2.84
			c-0.43,0.75-0.85,1.52-1.28,2.32h-0.05c-0.43-0.77-0.82-1.5-1.3-2.29l-1.76-2.86h-3.41l4.55,6.99l-4.74,7.22h3.35l1.73-3.02
			c0.48-0.83,0.9-1.57,1.33-2.4h0.05c0.43,0.85,0.85,1.6,1.3,2.37l1.81,3.04h3.49l-4.68-7.35l4.6-6.86H111.37z M78.91,31.61h-3.34
			v8.15h-8.99v-8.15h-3.34v19.75h3.34v-8.97h8.99v8.97h3.34V31.61z"/>
	</g>
	<g>
		<path fill="#FFFFFF" d="M95.07,74.74c-4.34,0-7.04-2.78-7.04-7.26c0-4.52,2.74-7.67,6.67-7.67c4.31,0,5.84,3.57,5.84,6.9
			c0,0.49-0.03,0.91-0.08,1.27l-0.01,0.06h-9.3c0.13,3.85,3.1,4.27,4.37,4.27c1.4,0,2.53-0.21,3.67-0.67l0.07-0.03l0.54,2.25
			l-0.05,0.02C98.53,74.43,96.82,74.74,95.07,74.74z M94.69,59.94c-1.96,0-3.62,0.76-4.8,2.19c-1.11,1.35-1.73,3.25-1.73,5.34
			c0,4.39,2.64,7.12,6.9,7.12c1.72,0,3.38-0.3,4.58-0.82l-0.47-1.98c-1.13,0.45-2.26,0.65-3.65,0.65c-1.32,0-4.41-0.44-4.51-4.48
			l0-0.07h9.32c0.05-0.35,0.07-0.74,0.07-1.19C100.4,63.43,98.9,59.94,94.69,59.94z M77.77,74.74c-3.49,0-5.92-3.01-5.92-7.31
			c0-5.24,3.21-7.62,6.19-7.62c1.69,0,3.13,0.68,3.87,1.82v-7.98h3.22V70.6c0,1.35,0.06,2.89,0.11,3.79l0,0.07h-2.85l-0.16-2.18
			C81.37,73.82,79.71,74.74,77.77,74.74z M78.04,59.94c-2.91,0-6.05,2.34-6.05,7.49c0,4.23,2.38,7.18,5.78,7.18
			c1.92,0,3.56-0.92,4.38-2.46l0.02-0.04h0.19l0.16,2.22h2.58c-0.05-0.91-0.1-2.4-0.1-3.72V53.78h-2.95v8.07h-0.16l-0.02-0.03
			C81.17,60.64,79.74,59.94,78.04,59.94z M114.91,74.45h-3.65l-1.83-3.08c-0.47-0.81-0.87-1.51-1.27-2.31
			c-0.4,0.77-0.81,1.49-1.3,2.33l-1.75,3.05h-3.52l4.78-7.29l-4.59-7.06h3.57l1.78,2.89c0.45,0.75,0.83,1.43,1.27,2.24
			c0.42-0.78,0.83-1.54,1.24-2.26l1.7-2.87h3.49l-4.65,6.93L114.91,74.45z M111.33,74.32h3.32l-4.64-7.28l4.56-6.79h-3.16l-1.66,2.8
			c-0.42,0.74-0.85,1.52-1.28,2.32l-0.02,0.04h-0.14l-0.02-0.04c-0.46-0.83-0.84-1.52-1.3-2.29l-1.74-2.83h-3.24l4.5,6.92
			l-4.69,7.15h3.18l1.71-2.98c0.5-0.86,0.92-1.6,1.33-2.4l0.02-0.04h0.14l0.02,0.04c0.41,0.82,0.82,1.54,1.3,2.37L111.33,74.32z
			 M69.01,74.45h-3.22v-8.4c0-1.66-0.47-3.64-2.72-3.64c-1.49,0-3.07,1.2-3.07,3.41v8.63h-3.22V64.18c0-1.57-0.05-2.79-0.11-3.98
			l0-0.07l0.07-0.01h2.75l0.16,2.08c0.7-1.17,2.22-2.39,4.46-2.39c1.3,0,2.48,0.46,3.33,1.29c1.05,1.03,1.58,2.58,1.58,4.61V74.45z
			 M65.92,74.32h2.95V65.7c0-2.78-1.25-5.76-4.77-5.76c-2.23,0-3.72,1.23-4.38,2.39l-0.02,0.03h-0.18l-0.16-2.11H56.8
			c0.05,1.18,0.1,2.39,0.1,3.93v10.14h2.95v-8.49c0-2.31,1.65-3.55,3.21-3.55c1.31,0,2.86,0.66,2.86,3.78V74.32z M52.83,74.45h-3.22
			V54.57h3.22V74.45z M49.74,74.32h2.95V54.71h-2.95V74.32z M78.68,72.31c-2.24,0-3.69-1.96-3.69-4.99c0-3.08,1.5-5.15,3.74-5.15
			c1.65,0,3.31,1.29,3.31,3.76v2.63C82.04,70.7,80.6,72.31,78.68,72.31z M78.73,62.31c-2.49,0-3.6,2.52-3.6,5.01
			c0,2.95,1.39,4.86,3.55,4.86c1.84,0,3.23-1.56,3.23-3.62v-2.63C81.91,63.55,80.31,62.31,78.73,62.31z M97.61,65.89h-6.58
			l0.01-0.08c0.09-0.95,0.43-1.89,0.91-2.56c0.62-0.86,1.5-1.32,2.53-1.32c0.86,0,1.57,0.27,2.1,0.81c0.67,0.68,1.05,1.8,1.03,3.07
			L97.61,65.89z M91.18,65.76h6.29c0-0.62-0.1-2-0.99-2.9c-0.51-0.51-1.18-0.77-2-0.77C93.39,62.08,91.49,62.86,91.18,65.76z
			 M108.2,57.49c-1.96,0-3.84-0.39-5.05-1.04l-0.05-0.03l0.79-2.45l0.07,0.04c0.57,0.3,2.13,1,4.26,1c1.99,0,4.37-0.77,4.37-4.44
			v-1.23c-0.9,1.27-2.53,2.02-4.4,2.02c-3.7,0-6.38-2.95-6.38-7c0-2.28,0.72-4.22,2.08-5.61c1.24-1.27,2.91-1.96,4.71-1.96
			c2.59,0,3.82,1.3,4.35,2.15l0.14-1.84h3.11l-0.01,0.07c-0.1,1.17-0.14,2.4-0.14,4.09v8.1c0,1.09,0,3.35-1.08,5.13
			C113.76,56.48,111.48,57.49,108.2,57.49z M103.26,56.35c1.19,0.62,3.02,1,4.93,1c7.71,0,7.71-5.61,7.71-8v-8.1
			c0-1.66,0.04-2.87,0.14-4.03h-2.83l-0.14,1.91h-0.16l-0.02-0.03c-1.11-1.9-3.17-2.18-4.29-2.18c-3.3,0-6.65,2.55-6.65,7.43
			c0,3.98,2.63,6.87,6.24,6.87c1.87,0,3.5-0.77,4.35-2.06l0.02-0.03h0.16v1.44c0,2.95-1.6,4.58-4.51,4.58
			c-2.08,0-3.62-0.65-4.25-0.98L103.26,56.35z M92.83,57.49c-1.96,0-3.84-0.39-5.05-1.04l-0.05-0.03l0.79-2.45L88.6,54
			c0.57,0.3,2.13,1,4.26,1c1.99,0,4.37-0.77,4.37-4.44v-1.23c-0.9,1.27-2.53,2.02-4.4,2.02c-3.7,0-6.38-2.95-6.38-7
			c0-2.28,0.72-4.22,2.08-5.61c1.24-1.27,2.91-1.96,4.71-1.96c1.14,0,3.19,0.28,4.35,2.15l0.14-1.84h3.11l-0.01,0.07
			c-0.1,1.17-0.14,2.4-0.14,4.09v8.1c0,1.09,0,3.35-1.08,5.13C98.4,56.48,96.12,57.49,92.83,57.49z M87.9,56.35
			c1.19,0.62,3.02,1,4.93,1c7.71,0,7.71-5.61,7.71-8v-8.1c0-1.67,0.04-2.88,0.14-4.03h-2.83l-0.14,1.91h-0.16l-0.02-0.03
			c-1.11-1.9-3.17-2.18-4.29-2.18c-3.3,0-6.65,2.55-6.65,7.43c0,3.98,2.63,6.87,6.24,6.87c1.87,0,3.5-0.77,4.35-2.06l0.02-0.03h0.16
			v1.44c0,2.95-1.6,4.58-4.51,4.58c-2.08,0-3.62-0.65-4.25-0.98L87.9,56.35z M85.29,51.43h-3.48V37.08h3.48V51.43z M81.94,51.29
			h3.21V37.22h-3.21V51.29z M78.98,51.43h-3.48v-8.97h-8.86v8.97h-3.48V31.54h3.48v8.15h8.86v-8.15h3.48V51.43z M75.63,51.29h3.21
			V31.68h-3.21v8.15H66.5v-8.15h-3.21v19.61h3.21v-8.97h9.13V51.29z M109.18,49.06c-2.41,0-3.96-1.9-3.96-4.84
			c0-3.03,1.6-5.07,3.99-5.07c2,0,3.5,1.5,3.5,3.5v2.78C112.7,47.92,110.87,49.06,109.18,49.06z M109.2,39.28
			c-2.3,0-3.85,1.98-3.85,4.93c0,2.86,1.5,4.7,3.82,4.7c1.63,0,3.39-1.09,3.39-3.49v-2.78C112.57,40.73,111.12,39.28,109.2,39.28z
			 M93.81,49.06c-2.41,0-3.96-1.9-3.96-4.84c0-3.03,1.6-5.07,3.99-5.07c1.99,0,3.5,1.5,3.5,3.5v2.78
			C97.34,47.92,95.51,49.06,93.81,49.06z M93.84,39.28c-2.3,0-3.85,1.98-3.85,4.93c0,2.86,1.5,4.7,3.82,4.7
			c1.63,0,3.39-1.09,3.39-3.49v-2.78C97.2,40.73,95.76,39.28,93.84,39.28z M83.55,35.03c-1.14,0-2-0.77-2-1.8
			c0-1.06,0.85-1.82,2.03-1.82c1.18,0,2,0.75,2,1.82C85.58,34.29,84.74,35.03,83.55,35.03z M83.58,31.55c-1.1,0-1.89,0.71-1.89,1.68
			c0,0.96,0.78,1.66,1.86,1.66c1.11,0,1.89-0.68,1.89-1.66C85.44,32.24,84.67,31.55,83.58,31.55z"/>
	</g>
	<g>
		<path fill="#FFFFFF" d="M125.18,52.72h6.21v1.48h-6.21V52.72z M127.39,56.91h4v1.48h-4V56.91z M125.18,45.04h6.21v1.48h-6.21
			V45.04z M127.39,40.98h4v1.48h-4V40.98z M127.39,48.65h4v1.48h-4V48.65z M125.18,60.79h6.21v1.48h-6.21V60.79z M131.27,70.6v3.82
			h-2.73v-3.68c-2.17-0.23-4.31-1.28-6.2-3.22c-0.27-0.28-0.55-0.59-0.84-0.95c-1.43-1.75-2.55-4.1-3.07-7.17
			c-0.43-2.56-0.44-5.65,0.14-9.35c2.31-14.67,10.33-21.2,10.35-21.22l1.26-1.05l1.02,1.38c3.23,4.37,5.56,8.19,7.18,11.64
			c1.67,3.54,2.61,6.72,3.04,9.73c0.45,3.14,0.31,5.93-0.23,8.36c-0.63,2.88-1.81,5.25-3.21,7.09c-0.26,0.34-0.55,0.69-0.86,1.03
			C135.39,68.94,133.37,70.16,131.27,70.6z M129.7,33.22c-2.08,2.25-6.28,7.86-7.8,17.55c-0.5,3.16-0.5,5.76-0.14,7.88
			c0.38,2.27,1.18,3.97,2.19,5.21c0.19,0.23,0.4,0.47,0.63,0.7c1.59,1.63,3.38,2.37,5.14,2.29c1.77-0.08,3.55-1.01,5.08-2.7
			c0.2-0.23,0.42-0.49,0.64-0.78c1.07-1.41,1.97-3.23,2.46-5.45c0.43-1.94,0.54-4.19,0.17-6.75c-0.37-2.57-1.19-5.33-2.67-8.46
			C134.07,39.87,132.21,36.75,129.7,33.22z"/>
	</g>
	<g>
		<path fill="#FFFFFF" d="M131.33,74.5h-2.86v-3.68c-2.22-0.25-4.36-1.37-6.18-3.24c-0.27-0.28-0.56-0.6-0.85-0.95
			c-1.56-1.91-2.6-4.33-3.08-7.2c-0.46-2.72-0.41-5.87,0.14-9.37c2.27-14.47,10.05-20.99,10.38-21.26l1.32-1.1l1.06,1.43
			c3.16,4.27,5.51,8.08,7.19,11.65c1.6,3.4,2.6,6.58,3.05,9.75c0.42,2.96,0.34,5.78-0.23,8.38c-0.59,2.68-1.67,5.07-3.22,7.12
			c-0.26,0.34-0.55,0.69-0.86,1.03c-1.71,1.9-3.74,3.14-5.85,3.61V74.5z M128.61,74.36h2.59v-3.81l0.05-0.01
			c2.11-0.45,4.13-1.68,5.83-3.58c0.31-0.34,0.6-0.69,0.85-1.03c1.54-2.03,2.61-4.4,3.19-7.06c0.57-2.59,0.64-5.39,0.23-8.33
			c-0.45-3.15-1.44-6.33-3.04-9.71c-1.68-3.56-4.03-7.36-7.18-11.63l-0.97-1.32l-1.21,1c-0.33,0.27-8.06,6.76-10.33,21.18
			c-0.55,3.48-0.59,6.62-0.14,9.33c0.48,2.85,1.51,5.25,3.05,7.14c0.29,0.35,0.57,0.67,0.84,0.95c1.82,1.86,3.95,2.97,6.16,3.2
			l0.06,0.01V74.36z M129.45,66.92c-1.74,0-3.44-0.8-4.92-2.31c-0.23-0.24-0.45-0.47-0.64-0.71c-1.11-1.35-1.85-3.11-2.21-5.24
			c-0.38-2.25-0.33-4.91,0.14-7.9c1.5-9.54,5.54-15.11,7.82-17.58l0.06-0.06l0.05,0.07c2.46,3.46,4.33,6.57,5.71,9.49
			c1.42,3,2.29,5.78,2.68,8.48c0.34,2.41,0.28,4.69-0.17,6.77c-0.45,2.07-1.29,3.91-2.47,5.48c-0.22,0.29-0.44,0.56-0.65,0.79
			c-1.53,1.69-3.3,2.64-5.13,2.72C129.63,66.92,129.54,66.92,129.45,66.92z M129.69,33.33c-2.28,2.49-6.25,8.02-7.73,17.45
			c-0.47,2.98-0.51,5.62-0.14,7.86c0.35,2.1,1.09,3.85,2.18,5.18c0.19,0.23,0.4,0.46,0.63,0.7c1.53,1.57,3.29,2.35,5.09,2.27
			c1.79-0.08,3.53-1.01,5.03-2.68c0.2-0.23,0.42-0.49,0.64-0.78c1.18-1.55,2-3.38,2.45-5.42c0.45-2.07,0.51-4.33,0.17-6.72
			c-0.38-2.69-1.26-5.45-2.67-8.44C133.98,39.84,132.13,36.76,129.69,33.33z M131.45,62.34h-6.35v-1.62h6.35V62.34z M125.25,62.2
			h6.07v-1.34h-6.07V62.2z M131.45,58.46h-4.13v-1.62h4.13V58.46z M127.46,58.32h3.86v-1.34h-3.86V58.32z M131.45,54.26h-6.35v-1.62
			h6.35V54.26z M125.25,54.13h6.07v-1.34h-6.07V54.13z M131.45,50.2h-4.13v-1.62h4.13V50.2z M127.46,50.06h3.86v-1.34h-3.86V50.06z
			 M131.45,46.59h-6.35v-1.62h6.35V46.59z M125.25,46.45h6.07v-1.34h-6.07V46.45z M131.45,42.52h-4.13v-1.62h4.13V42.52z
			 M127.46,42.38h3.86v-1.34h-3.86V42.38z"/>
	</g>
</g>
</svg>
