<?xml version="1.0" encoding="utf-8"?>
<!-- Generator: Adobe Illustrator 27.6.1, SVG Export Plug-In . SVG Version: 6.00 Build 0)  -->
<svg version="1.1" id="Layer_1" xmlns="http://www.w3.org/2000/svg" xmlns:xlink="http://www.w3.org/1999/xlink" x="0px" y="0px"
	 viewBox="0 0 191.36 102.43" enable-background="new 0 0 191.36 102.43" xml:space="preserve">
<g>
	<path fill="#1D87C8" d="M163.05,40.26c0,4.43,0,8.55,0,12.66c0,0.72,0,1.44-0.01,2.16c-0.01,0.57-0.05,1.11,0.64,1.42
		c0.5,0.23,0.42,0.79,0.29,1.22c-0.15,0.49-0.61,0.38-0.97,0.31c-0.89-0.17-1.76-0.42-2.68-0.4c-0.41,0.01-0.69-0.13-0.62-0.58
		c0.06-0.35-0.32-0.93,0.33-1.01c0.65-0.08,0.7-0.5,0.7-0.96c-0.03-5.73-0.07-11.45-0.11-17.18c0-0.4-0.05-0.71-0.52-0.87
		c-0.66-0.22-0.43-0.82-0.39-1.27c0.05-0.51,0.51-0.47,0.89-0.47c1.4,0,2.81,0.05,4.2-0.02c0.81-0.04,1.13,0.43,1.23,1.05
		c0.31,1.9,0.98,3.69,1.43,5.55c0.72,2.95,1.48,5.89,2.34,8.8c0.25,0.84,0.16,1.8,0.76,2.57c0.37-0.23,0.24-0.56,0.24-0.83
		c0.02-4.66,0.02-9.33,0.02-13.99c0-0.49,0.08-0.96-0.59-1.17c-0.57-0.18-0.59-0.74-0.48-1.25c0.12-0.51,0.46-0.73,1.01-0.71
		c0.79,0.03,1.59,0,2.39,0.01c0.45,0,0.98-0.07,1.07,0.56c0.07,0.5,0.22,1.09-0.47,1.35c-0.63,0.24-0.62,0.76-0.61,1.31
		c0.04,6.6,0.06,13.19,0.09,19.79c0,1.43-0.22,1.61-1.6,1.3c-0.77-0.17-1.52-0.45-2.33-0.4c-0.53,0.04-0.71-0.28-0.84-0.72
		c-0.85-2.8-1.8-5.56-2.43-8.42c-0.2-0.88-0.45-1.77-0.74-2.59c-0.77-2.16-1.16-4.43-1.93-6.58
		C163.31,40.78,163.23,40.66,163.05,40.26z"/>
	<path fill="#1D87C8" d="M32.79,46.59c0-2.69,0-5.39,0-8.08c0-0.5,0.12-1.01-0.6-1.27c-0.59-0.21-0.29-0.86-0.31-1.32
		c-0.02-0.37,0.32-0.55,0.62-0.54c3.05,0.09,6.12-0.4,9.16,0.27c1.61,0.35,2.62,1.4,2.94,2.93c0.38,1.87,0.73,3.79-0.43,5.59
		c-0.37,0.57-0.96,0.84-1.43,1.27c-0.44,0.41-0.79,0.72,0.14,1.07c1.3,0.5,1.91,1.61,1.96,2.99c0.04,1.06,0.01,2.12,0.02,3.19
		c0.01,0.61-0.14,1.18,0.66,1.62c0.55,0.3,0.35,1.06-0.3,1.34c-1.39,0.6-2.89,0.39-4.35,0.52c-0.59,0.05-0.6-0.55-0.59-1.02
		c0.01-1.82,0.02-3.64,0.01-5.46c-0.01-1.87-1.16-2.71-2.99-2.23c-0.54,0.14-0.85,0.45-0.85,1.04c0.01,2.01,0.01,4.02-0.01,6.03
		c0,0.45,0.16,0.76,0.6,0.81c0.65,0.08,0.53,0.54,0.5,0.94c-0.04,0.42-0.28,0.72-0.74,0.7c-1.38-0.05-2.69,0.38-4.03,0.59
		c-0.36,0.06-0.75,0.1-0.84-0.31c-0.09-0.41-0.31-1.05,0.19-1.23c0.83-0.29,0.66-0.88,0.66-1.46c0-2.65,0-5.31,0-7.96
		C32.78,46.59,32.79,46.59,32.79,46.59z M36.62,41.58c0,0-0.01,0-0.01,0c0,1.14-0.01,2.27,0.01,3.41c0,0.27-0.12,0.61,0.3,0.76
		c1.67,0.57,3.51-0.66,3.57-2.43c0.04-1.14,0.01-2.27,0.01-3.41c-0.01-2.28-0.37-2.63-2.65-2.58c-0.15,0-0.3,0.03-0.45,0.02
		c-0.6-0.04-0.8,0.27-0.79,0.83C36.63,39.31,36.62,40.44,36.62,41.58z"/>
	<path fill="#1D87C8" d="M158.54,47.06c0.27,1.87-0.03,3.85-0.49,5.73c-0.83,3.38-3.03,5.02-6.85,3.84
		c-3.68-1.14-4.84-4.42-5.16-7.65c-0.24-2.38-0.17-4.77,0-7.15c0.11-1.56,0.51-3.01,1.43-4.32c1.39-1.97,3.36-2.48,5.54-2.11
		c2.92,0.5,4.87,3.01,5.13,6.01C158.31,43.25,158.69,45.07,158.54,47.06z M154.23,46.08c-0.04,0-0.07,0-0.11,0
		c0-2.5,0.01-5-0.01-7.5c0-0.56-0.01-1.18-0.65-1.46c-0.83-0.36-1.76-0.37-2.53-0.06c-0.73,0.3-0.85,1.13-0.83,1.95
		c0.05,2.42,0.04,4.85,0.05,7.27c0.01,2.24-0.01,4.47,0.02,6.71c0.03,1.63,0.89,2.38,2.62,2.36c1.24-0.02,1.42-0.29,1.44-2.21
		c0-0.19,0-0.38,0-0.57C154.23,50.4,154.23,48.24,154.23,46.08z"/>
	<path fill="#1D87C8" d="M88.38,43.99c1.46,0.63,2.84,1.15,3.06,2.75c0.15,1.12,0.08,2.27,0.11,3.4c0.01,0.47-0.13,0.94,0.52,1.22
		c0.43,0.18,0.25,0.73,0.16,1.13c-0.11,0.49-0.5,0.37-0.82,0.38c-1.17,0.01-2.35-0.03-3.52,0.01c-0.68,0.02-0.93-0.2-0.92-0.91
		c0.03-1.67-0.08-3.34,0-5c0.05-1.06-0.47-1.49-1.34-1.75c-0.07-0.02-0.15-0.04-0.22-0.06c-1.94-0.4-2.3-0.11-2.28,1.86
		c0.01,1.06-0.02,2.12,0.02,3.18c0.02,0.52-0.19,1.13,0.57,1.43c0.3,0.12,0.23,0.61,0.17,0.95c-0.07,0.37-0.39,0.29-0.64,0.3
		c-1.17,0.04-2.35,0.07-3.52,0.09c-0.37,0-0.77,0.02-0.88-0.51c-0.08-0.38-0.05-0.68,0.36-0.83c0.46-0.17,0.44-0.55,0.44-0.94
		c0-4.28,0-8.57-0.01-12.85c0-0.39,0.1-0.83-0.53-0.94c-0.51-0.09-0.36-0.59-0.36-0.95c0-0.42,0.27-0.64,0.66-0.62
		c3.3,0.19,6.66-0.55,9.9,0.64c1.73,0.63,2.16,2.08,2.36,3.63c0.2,1.53-0.41,2.82-1.73,3.68C89.52,43.53,89.04,43.68,88.38,43.99z
		 M83.28,40.14c0,0.38,0,0.75,0,1.13c0.01,2.28,0.01,2.23,2.34,2.06c0.89-0.06,1.3-0.43,1.42-1.25c0.18-1.32,0.14-2.64,0.03-3.95
		c-0.05-0.6-0.38-1.04-1.03-1.18c-2.25-0.48-2.76-0.09-2.75,2.17C83.28,39.46,83.28,39.8,83.28,40.14z"/>
	<path fill="#1D87C8" d="M25.7,47.16c0,2.84-0.01,5.69,0.01,8.53c0,0.53-0.17,1.15,0.7,1.3c0.46,0.08,0.31,0.61,0.3,0.97
		c-0.01,0.32-0.12,0.51-0.51,0.61c-1.61,0.41-3.24,0.66-4.89,0.86c-0.31,0.04-0.78,0.15-0.79-0.36c0-0.48-0.34-1.18,0.35-1.39
		c0.59-0.18,0.52-0.55,0.52-0.95c0.01-6.1,0.01-12.21,0.04-18.31c0-0.69-0.15-1.07-0.94-1.06c-0.73,0.01-1.16,0.24-1.13,1.05
		c0.02,0.61-0.04,1.22,0.01,1.82c0.08,0.87-0.32,1.14-1.12,1.14c-0.77,0-1.22-0.23-1.2-1.1c0.03-1.36,0.02-2.73-0.01-4.09
		c-0.01-0.63,0.24-0.87,0.88-0.87c3.83,0.02,7.65,0.01,11.48,0c0.63,0,0.89,0.24,0.88,0.87c-0.02,1.44-0.02,2.88-0.01,4.32
		c0.01,1.01-0.75,0.77-1.3,0.78c-0.56,0.01-1.3,0.2-1.24-0.82c0.04-0.68-0.02-1.37,0.01-2.05c0.04-0.69-0.13-1.07-0.93-1.05
		c-0.74,0.02-1.12,0.21-1.11,1.04c0.03,2.92,0.01,5.84,0.01,8.76C25.73,47.16,25.72,47.16,25.7,47.16z"/>
	<path fill="#1D87C8" d="M47.33,44.55c0-2.12,0.01-4.25-0.01-6.37c-0.01-0.51,0.23-1.13-0.67-1.31c-0.47-0.1-0.19-0.72-0.21-1.1
		c-0.03-0.43,0.32-0.44,0.63-0.44c1.52,0,3.03,0.01,4.55,0.02c0.42,0,0.77,0.11,0.84,0.58c0.05,0.4,0.18,0.87-0.42,1
		c-0.57,0.12-0.55,0.58-0.55,0.98c-0.02,4.36-0.04,8.72-0.01,13.08c0.01,1.27,0.74,1.88,2.01,1.87c0.78-0.01,1.57,0.11,2.31-0.37
		c0.7-0.46,1.08-1.03,1.08-1.86c0.01-4.29,0.01-8.57,0.01-12.86c0-0.37,0.03-0.68-0.46-0.9c-0.48-0.22-0.24-0.82-0.18-1.24
		c0.06-0.42,0.47-0.29,0.75-0.3c0.76-0.02,1.52-0.05,2.27,0c0.75,0.05,1.21,1.06,0.62,1.45c-0.61,0.41-0.47,0.88-0.47,1.36
		c-0.02,3.49-0.02,6.98-0.01,10.47c0.01,4.18-1.84,5.71-5.55,6.53c-1.97,0.44-3.73,0.1-5.25-1.24c-0.81-0.71-1.27-1.65-1.28-2.74
		C47.32,48.95,47.33,46.75,47.33,44.55z"/>
	<path fill="#1D87C8" d="M128.76,45.36c0,1.86-0.04,3.72,0.01,5.57c0.04,1.51,0.59,1.93,2.29,1.9c1.16-0.02,1.76-0.68,1.78-1.97
		c0.01-0.8,0-1.59,0-2.39c0-0.82,0.19-1.7-1.05-1.89c-0.48-0.07-0.28-0.63-0.29-0.99c-0.01-0.49,0.38-0.51,0.73-0.48
		c1.73,0.14,3.47,0.29,5.2,0.43c0.26,0.02,0.46,0.1,0.44,0.39c-0.03,0.39,0.23,0.98-0.27,1.11c-0.77,0.21-0.62,0.73-0.62,1.24
		c-0.01,1.71,0.02,3.41-0.02,5.12c-0.01,0.45,0.3,1.11-0.28,1.33c-0.64,0.23-1.47,0.15-1.9-0.35c-0.6-0.7-1.04-0.59-1.74-0.22
		c-2.14,1.12-6.11-0.24-7.25-2.37c-2.14-3.97-2.19-8.16-0.79-12.26c1.1-3.21,4.74-5.03,8.15-3.89c0.72,0.24,1.3,0.53,2.09-0.04
		c0.78-0.56,1.49-0.03,1.51,0.98c0.03,1.29,0.04,2.58,0.07,3.87c0.02,0.87-0.35,1.2-1.25,1.12c-1.82-0.16-1.84-0.12-1.81-1.97
		c0.02-1-0.06-1.97-1.09-2.4c-1.14-0.49-2.35-0.46-3.3,0.42c-0.64,0.6-0.77,1.51-0.78,2.38c-0.01,1.78,0,3.57,0,5.35
		C128.65,45.36,128.7,45.36,128.76,45.36z"/>
	<path fill="#1D87C8" d="M66.94,35.31c1.4,0,2.81,0.03,4.21-0.01c0.75-0.02,1.03,0.29,0.99,1.01c-0.03,0.53-0.03,1.06,0,1.59
		c0.03,0.63-0.22,0.9-0.86,0.89c-0.56-0.01-0.98-0.09-0.91-0.81c0.08-0.79-0.36-1.06-1.11-1.05c-3.19,0.06-2.49-0.43-2.57,2.42
		c-0.03,1.06,0.02,2.13-0.01,3.19c-0.02,0.62,0.22,0.93,0.83,0.94c0.57,0.01,1.15,0.12,1.23-0.76c0.1-1.13,1.04-0.74,1.68-0.78
		c0.72-0.06,0.59,0.53,0.59,0.97c0.01,0.99-0.03,1.97,0.01,2.96c0.03,0.76-0.39,0.91-1,0.85c-0.53-0.05-1.37,0.31-1.3-0.73
		c0.06-0.95-0.49-0.88-1.15-0.9c-0.81-0.03-0.91,0.37-0.9,1.04c0.03,1.71,0.04,3.41,0,5.12c-0.01,0.69,0.23,0.98,0.92,0.92
		c0.26-0.02,0.53,0,0.8,0c1.62,0,1.65,0.01,1.88-1.63c0.12-0.86,0.73-0.58,1.2-0.66c0.6-0.1,0.69,0.27,0.67,0.75
		c-0.11,2.79,0.64,2.67-2.64,2.97c-2.19,0.2-4.39,0.02-6.57,0.36c-0.4,0.06-0.97,0.28-1.21-0.28c-0.19-0.44-0.07-0.88,0.39-1.18
		c0.34-0.23,0.23-0.62,0.23-0.94c0.01-4.51,0.02-9.03,0.03-13.54c0-0.43,0.1-0.87-0.44-1.18c-0.39-0.23-0.27-0.76-0.16-1.16
		c0.12-0.44,0.53-0.35,0.86-0.35C64.06,35.31,65.5,35.31,66.94,35.31C66.94,35.31,66.94,35.31,66.94,35.31z"/>
	<path fill="#1D87C8" d="M99.33,52.84c-1.48,0-2.95,0-4.43,0c-0.33,0-0.74,0.09-0.89-0.32c-0.14-0.4-0.17-0.9,0.2-1.15
		c0.45-0.3,0.4-0.68,0.4-1.09c0-4.02,0-8.03-0.01-12.05c0-0.54,0.13-1.12-0.56-1.46c-0.31-0.15-0.19-0.62-0.11-0.95
		c0.11-0.41,0.42-0.48,0.79-0.48c3.07,0,6.13,0,9.2-0.02c0.61,0,0.79,0.28,0.75,0.84c-0.03,0.45-0.02,0.91,0,1.36
		c0.02,0.69,0.15,1.38-0.95,1.34c-0.88-0.04-1.5-0.19-1.35-1.27c0.03-0.24,0.06-0.61-0.3-0.62c-0.94-0.03-1.89-0.03-2.83,0.02
		c-0.33,0.02-0.31,0.39-0.32,0.64c-0.02,1.59-0.03,3.18-0.03,4.77c0,0.59,0.26,0.91,0.91,0.87c0.53-0.03,0.99-0.06,0.99-0.77
		c-0.01-1.4,1.07-0.68,1.67-0.79c0.85-0.16,0.6,0.56,0.61,0.99c0.03,0.87,0.02,1.74,0,2.61c-0.01,0.52,0.23,1.23-0.74,1.17
		c-0.71-0.05-1.64,0.27-1.56-1c0.05-0.68-0.35-0.8-0.92-0.83c-0.67-0.04-0.97,0.19-0.96,0.89c0.01,1.63,0.01,3.26-0.02,4.89
		c-0.01,0.63,0.25,0.9,0.88,0.86c0.45-0.03,0.91-0.04,1.36,0.01c0.83,0.08,1.39-0.01,1.28-1.1c-0.1-0.9,0.67-0.73,1.21-0.74
		c0.51,0,1.14-0.08,1.07,0.76c0,0.04,0,0.08,0,0.11c0.13,2.54,0.13,2.54-2.39,2.54c-0.98,0-1.97,0-2.95,0
		C99.33,52.86,99.33,52.85,99.33,52.84z"/>
	<path fill="#1D87C8" d="M108.98,35.31c0.53,0,1.06-0.01,1.59,0c0.33,0.01,0.75-0.07,0.86,0.36c0.1,0.39,0.25,0.93-0.17,1.15
		c-0.5,0.26-0.45,0.64-0.45,1.04c0,4.21,0.01,8.42,0.01,12.63c0,0.46-0.04,1.01,0.5,1.14c0.65,0.15,1.42,0.32,2-0.01
		c0.46-0.27,0.18-0.99,0.19-1.5c0.03-1.27,1.08-1.85,2.21-1.23c0.29,0.16,0.33,0.38,0.33,0.66c0,1.02-0.01,2.05,0.01,3.07
		c0.01,0.56-0.26,0.74-0.77,0.71c-2.76-0.16-5.52-0.3-8.27-0.49c-0.82-0.06-0.67-0.74-0.34-1.06c0.53-0.5,0.48-1.06,0.48-1.65
		c0-4.02,0-8.04-0.01-12.06c0-0.49,0.18-1.04-0.58-1.25c-0.41-0.12-0.31-0.65-0.27-1.02c0.05-0.45,0.41-0.49,0.76-0.49
		C107.7,35.3,108.34,35.3,108.98,35.31C108.98,35.31,108.98,35.31,108.98,35.31z"/>
	<path fill="#1D87C8" d="M141.82,35.31c0.49,0,0.99-0.02,1.48,0.01c0.34,0.02,0.86-0.17,0.92,0.38c0.04,0.4,0.29,0.94-0.24,1.23
		c-0.44,0.23-0.4,0.6-0.4,0.97c0.01,5,0.03,10.01,0.05,15.01c0,0.42,0.01,0.81,0.4,1.12c0.41,0.33,0.38,0.84,0.2,1.25
		c-0.21,0.48-0.65,0.16-1,0.15c-0.95-0.03-1.89-0.04-2.84-0.09c-0.36-0.02-0.85,0.03-0.9-0.47c-0.03-0.39-0.31-0.92,0.34-1.16
		c0.46-0.17,0.36-0.61,0.36-0.98c-0.02-4.89-0.03-9.78-0.06-14.67c0-0.44,0.05-0.86-0.46-1.18c-0.44-0.27-0.25-0.84-0.17-1.26
		c0.08-0.47,0.55-0.28,0.85-0.3C140.83,35.29,141.33,35.31,141.82,35.31C141.82,35.31,141.82,35.31,141.82,35.31z"/>
	<path fill="#1D87C8" d="M120.05,35.4c0.53,0,1.06,0,1.59,0c0.38,0,0.81-0.06,0.91,0.45c0.07,0.36,0.21,0.79-0.2,1.03
		c-0.47,0.27-0.4,0.69-0.4,1.1c0.01,4.43,0.02,8.87,0.03,13.3c0,0.37-0.07,0.72,0.37,0.98c0.43,0.25,0.35,0.75,0.25,1.14
		c-0.12,0.49-0.6,0.38-0.96,0.36c-1.06-0.07-2.11-0.16-3.16-0.26c-0.34-0.03-0.71-0.07-0.8-0.49c-0.09-0.4-0.06-0.73,0.44-0.88
		c0.48-0.14,0.4-0.58,0.4-0.95c0-4.36,0-8.71-0.01-13.07c0-0.47,0.12-1-0.57-1.19c-0.58-0.16-0.28-0.7-0.3-1.06
		c-0.03-0.49,0.38-0.49,0.72-0.5c0.57-0.01,1.14,0,1.7,0C120.05,35.36,120.05,35.38,120.05,35.4z"/>
	<path fill="#1D87C8" d="M89.68,66.97c-0.91,0.23-1.02-0.09-0.93-1.19c0.13-1.63,0.31-3.31-0.14-4.94
		c-0.11-0.41,0.11-0.47,0.38-0.49c2.02-0.09,3.87,0.28,3.88,3.02C92.87,65.96,92.1,67.05,89.68,66.97z M90.12,63.62
		c0,0.75-0.01,1.51,0,2.26c0,0.21-0.08,0.49,0.21,0.57c0.28,0.07,0.49-0.06,0.67-0.3c0.68-0.9,0.66-3.95-0.04-4.89
		c-0.15-0.2-0.36-0.32-0.57-0.3c-0.4,0.04-0.26,0.39-0.26,0.63C90.11,62.26,90.12,62.94,90.12,63.62z"/>
	<path fill="#1D87C8" d="M63.74,63.6c0.66,0.47,1.34,0.52,1.38,1.33c0.06,1.26-0.39,1.86-1.81,2.03c-0.74,0.09-1.5,0.09-2.16-0.05
		c0.32-2,0.41-3.97,0.02-5.92c-0.13-0.66,0.1-0.61,0.48-0.62c0.45-0.02,0.91-0.05,1.36,0.02c0.85,0.14,1.8,0.25,2.06,1.27
		C65.31,62.63,64.78,63.25,63.74,63.6z M62.53,65.23c0.27,0.4-0.34,1.14,0.43,1.21c0.75,0.07,0.86-0.69,0.88-1.22
		c0.02-0.49-0.08-1.18-0.76-1.18C62.15,64.05,62.85,64.87,62.53,65.23z M62.54,62.06c0.25,0.39-0.34,1.12,0.42,1.2
		c0.72,0.08,0.73-0.65,0.73-1.13c-0.01-0.5-0.09-1.23-0.72-1.21C62.18,60.93,62.82,61.7,62.54,62.06z"/>
	<path fill="#1D87C8" d="M69.73,64.07c-0.25,0.96-0.6,1.91,0.11,2.73c-0.29,0.3-0.6,0.21-0.89,0.21c-0.6,0.01-0.96,0.22-0.81-0.9
		c0.23-1.73,0.5-3.58-0.19-5.33c-0.07-0.18-0.04-0.26,0.11-0.35c0.77-0.48,3.15,0.22,3.53,1c0.38,0.77,0.18,1.41-0.42,1.9
		c-0.4,0.32-0.46,0.47-0.1,0.86c0.64,0.7,0.31,1.85,1.1,2.53c0.14,0.12-0.15,0.33-0.34,0.3c-0.4-0.05-0.91,0.21-1.13-0.44
		C70.42,65.72,70.05,64.9,69.73,64.07z M69.36,62.17c0.19,0.35-0.32,1.02,0.4,1.09c0.65,0.05,0.71-0.57,0.76-1.06
		c0.06-0.59-0.23-1.19-0.79-1.16C69.11,61.07,69.54,61.78,69.36,62.17z"/>
	<path fill="#1D87C8" d="M120.58,66.94c-0.77,0-1.52,0.51-1.28-0.97c0.25-1.54,0-3.17-0.03-4.76c-0.01-0.29-0.37-0.74,0.2-0.81
		c0.48-0.06,1.12-0.27,1.32,0.48c0.23,0.89,1.02,1.46,1.28,2.37c0.27-0.78,0.43-1.54,0.06-2.31c-0.08-0.16-0.31-0.33-0.11-0.47
		c0.29-0.2,0.66-0.12,0.99-0.07c0.23,0.03,0.3,0.18,0.25,0.4c-0.37,1.8-0.06,3.62-0.18,5.43c-0.02,0.24,0.12,0.57-0.22,0.69
		c-0.43,0.15-0.48-0.26-0.61-0.5c-0.61-1.16-1.21-2.32-1.97-3.45C120.27,64.25,119.8,65.54,120.58,66.94z"/>
	<path fill="#1D87C8" d="M84.63,63.34c0.14-0.97,0.51-1.95-0.21-2.82c0.53-0.29,1.01-0.13,1.55-0.14c-0.64,1.82-0.15,3.62-0.3,5.39
		c-0.03,0.4,0.17,1.01-0.28,1.1c-0.5,0.1-0.64-0.54-0.83-0.93c-0.49-0.99-0.83-2.06-1.71-2.92c0,1-0.18,2.04,0.04,2.98
		c0.29,1.27-0.31,1.08-1.01,0.93c0.29-2.07,0.56-4.11-0.1-6.13c-0.08-0.23-0.04-0.4,0.18-0.42c0.5-0.03,1.1-0.25,1.42,0.37
		c0.39,0.76,0.72,1.55,1.09,2.32C84.5,63.18,84.57,63.26,84.63,63.34z"/>
	<path fill="#1D87C8" d="M107.43,67c-0.56-0.03-1.26,0.14-1.65-0.14c-0.45-0.32,0.06-1,0.01-1.55c-0.15-1.5,0.17-3.02-0.18-4.51
		c-0.1-0.41,0.14-0.45,0.43-0.45c0.83-0.01,1.66,0,2.49-0.01c0.32,0,0.63,0.04,0.64,0.45c0.01,0.29,0.13,0.65-0.15,0.84
		c-0.39,0.26-0.49-0.17-0.67-0.38c-0.24-0.28-0.57-0.42-0.91-0.33c-0.38,0.11-0.25,0.5-0.26,0.78c-0.02,0.34-0.01,0.68,0.01,1.02
		c0.01,0.17-0.08,0.4,0.17,0.48c0.22,0.07,0.34-0.07,0.43-0.25c0.28-0.57,0.46-0.4,0.58,0.09c0.22,0.84-0.01,1.11-0.83,1
		c-0.24-0.03-0.35,0.06-0.35,0.3c0,0.57-0.01,1.13,0,1.7c0,0.27,0.12,0.42,0.4,0.42c0.4,0.01,0.73-0.08,0.97-0.45
		c0.15-0.23,0.16-0.71,0.56-0.57c0.4,0.13,0.28,0.56,0.27,0.89c-0.01,0.4-0.14,0.64-0.6,0.62c-0.45-0.02-0.91,0-1.36,0
		C107.43,66.99,107.43,67,107.43,67z"/>
	<path fill="#1D87C8" d="M79.05,66.97c-0.41,0.02-0.82,0.06-1.24,0.06c-0.49,0.01-0.86-0.04-0.5-0.7c0.16-0.3,0.08-0.72-0.28-0.88
		c-0.38-0.16-0.86-0.22-1.17,0.09c-0.21,0.21-0.44,0.58-0.09,0.9c0.15,0.14,0.3,0.34,0.11,0.45c-0.34,0.19-0.74,0.16-1.1,0.02
		c-0.25-0.09-0.11-0.29-0.06-0.47c0.51-1.77,1.02-3.54,1.49-5.32c0.11-0.42,0.37-0.58,0.72-0.59c0.4-0.01,0.36,0.39,0.48,0.65
		c0.69,1.44,0.69,3.08,1.3,4.55C78.84,66.09,78.83,66.52,79.05,66.97z"/>
	<path fill="#1D87C8" d="M116.59,66.91c-0.75,0.13-1.41,0.19-2.16-0.02c0.25-0.49,0.76-1.02,0.08-1.43
		c-0.34-0.21-0.85-0.24-1.17,0.07c-0.43,0.41-0.28,0.86,0.16,1.19c-0.18,0.37-0.48,0.28-0.72,0.28c-0.56,0-0.97,0.13-0.58-0.82
		c0.62-1.51,0.95-3.15,1.27-4.76c0.11-0.57,0.32-0.8,0.82-0.85c0.55-0.05,0.57,0.38,0.62,0.75c0.18,1.57,1.04,2.98,1.11,4.57
		C116.05,66.36,116.53,66.42,116.59,66.91z M114.05,63.08c-0.28,0.49-0.68,0.95-0.41,1.52c0.1,0.22,0.47,0.2,0.59,0.06
		C114.68,64.12,114.13,63.62,114.05,63.08z"/>
	<path fill="#1D87C8" d="M126.14,65.13c0.48,0.17,0.48,0.56,0.62,0.83c0.25,0.47,0.66,0.66,1.13,0.49c0.52-0.19,0.56-0.69,0.44-1.15
		c-0.21-0.78-0.8-1.25-1.41-1.71c-0.56-0.43-1.01-0.96-1-1.69c0.01-0.58,0.25-1.1,0.82-1.4c0.71-0.38,1.43-0.11,2.09,0.05
		c0.38,0.09,0.12,0.74,0.16,1.14c0.02,0.19-0.04,0.41-0.3,0.36c-0.33-0.06-0.53-0.31-0.59-0.62c-0.09-0.47-0.33-0.74-0.77-0.5
		c-0.48,0.25-0.55,0.71-0.22,1.15c0.38,0.51,0.86,0.93,1.36,1.33c0.89,0.72,1.15,1.87,0.66,2.72c-0.5,0.88-1.8,1.34-2.78,0.79
		C125.66,66.53,126.05,65.79,126.14,65.13z"/>
	<path fill="#1D87C8" d="M101.13,60.41c0.58-0.07,1.17-0.09,1.8,0.03c-0.58,1.49-0.23,3.01-0.31,4.51
		c-0.08,1.39-0.99,2.25-2.18,2.03c-0.49-0.09-0.75-0.37-0.72-0.84c0.02-0.27,0.23-0.49,0.54-0.49c0.5,0,0.44,0.54,0.99,1.06
		C101.45,64.47,101.56,62.49,101.13,60.41z"/>
	<path fill="#1D87C8" d="M135.11,63.6c0.71-0.6,0.75-1.34,0.19-1.99c-0.82-0.95-1.67-0.48-2.46,0.12c0.39-0.83,1.54-1.37,2.26-0.86
		c0.63,0.44,1.29,1.08,1.05,2.04c-0.2,0.84-1.38,1.58-2.18,1.41c-0.29-0.06-0.48-0.2-0.48-0.52
		C134.02,63.74,134.56,63.67,135.11,63.6z"/>
	<path fill="#1D87C8" d="M135.11,63.6c-0.54,0.07-1.08,0.13-1.63,0.2c-0.08,0-0.15-0.01-0.23-0.01c0.06-0.51,0.35-0.98,0.25-1.53
		c-0.04-0.26-0.15-0.67,0.29-0.74c0.36-0.06,0.76-0.1,1.06,0.2c0.26,0.26,0.25,0.47-0.01,0.77C134.47,62.93,135.12,63.2,135.11,63.6
		z"/>
</g>
</svg>
