<?xml version="1.0" encoding="utf-8"?>
<!-- Generator: Adobe Illustrator 27.6.1, SVG Export Plug-In . SVG Version: 6.00 Build 0)  -->
<svg version="1.1" id="Layer_1" xmlns="http://www.w3.org/2000/svg" xmlns:xlink="http://www.w3.org/1999/xlink" x="0px" y="0px"
	 viewBox="0 0 191.36 102.43" enable-background="new 0 0 191.36 102.43" xml:space="preserve">
<g>
	<g>
		<polygon fill="#1D87C8" points="96.58,43.19 121.21,43.19 121.21,67.78 116.18,67.78 116.18,48.29 111.43,48.29 111.43,67.79 
			106.34,67.79 106.34,48.3 101.61,48.3 101.61,67.79 96.58,67.79 		"/>
	</g>
	<g>
		<path fill="#1D87C8" d="M64.63,50.88c-1.41,0-2.75-0.06-4.08,0.02c-1.13,0.06-1.93-0.2-2.77-1.1c-2.43-2.63-6.34-3.17-9.52-1.53
			c-3.1,1.59-4.87,5.09-4.32,8.49c0.58,3.53,3.33,6.26,6.88,6.81c3.24,0.5,6.6-1.1,8.24-3.92c0.09-0.15,0.16-0.32,0.3-0.61H55.8
			h-3.58v-5.04c0.18-0.01,0.36-0.04,0.54-0.04c4,0,8,0.01,12-0.01c0.5,0,0.65,0.14,0.69,0.64c0.52,6.72-4.39,13.01-11.03,14.11
			c-7.55,1.24-14.33-3.56-15.66-11.09c-1.22-6.93,3.63-13.88,10.64-15.22c6.24-1.2,12.29,1.93,14.92,7.71
			C64.42,50.31,64.5,50.55,64.63,50.88"/>
	</g>
	<g>
		<polygon fill="#1D87C8" points="75.3,62.76 91.74,62.76 91.74,67.78 70.19,67.78 70.19,43.22 91.75,43.22 91.75,48.22 75.3,48.22 
			75.3,52.96 91.75,52.96 91.75,58.03 75.3,58.03 		"/>
	</g>
	<g>
		<path fill="#1D87C8" d="M139.41,68.93c-7.46,0.01-13.45-5.95-13.47-13.39c-0.02-7.33,6.02-13.38,13.37-13.39
			c7.45-0.01,13.51,5.99,13.5,13.38C152.8,62.94,146.82,68.92,139.41,68.93 M131.2,55.54c0.01,4.53,3.67,8.18,8.19,8.16
			c4.52-0.02,8.18-3.71,8.15-8.2c-0.03-4.48-3.71-8.12-8.2-8.1C134.84,47.42,131.19,51.06,131.2,55.54"/>
	</g>
	<g>
		<rect x="70.17" y="33.5" fill="#1D87C8" width="21.56" height="4.93"/>
	</g>
</g>
</svg>
