<?xml version="1.0" encoding="utf-8"?>
<!-- Generator: Adobe Illustrator 27.6.1, SVG Export Plug-In . SVG Version: 6.00 Build 0)  -->
<svg version="1.1" id="Layer_1" xmlns="http://www.w3.org/2000/svg" xmlns:xlink="http://www.w3.org/1999/xlink" x="0px" y="0px"
	 viewBox="0 0 191.36 102.43" enable-background="new 0 0 191.36 102.43" xml:space="preserve">
<g>
	<g>
		<path fill="#1D87C8" d="M105.87,17.53c1.01,0.83,2.01,1.66,3.03,2.51c0.7-1.11,0.16-1.69-0.76-2.13c0.06-0.06,0.11-0.12,0.17-0.18
			c1.39,0.54,2.78,1.08,4.17,1.61l0.12,0.26c-1.8-0.58-1.91,0.75-2.28,1.75c-0.28,0.74-0.51,1.5-0.81,2.39
			c1.54,0.61,3.05,1.21,4.65,1.85c0.45-1.27,0.88-2.45,1.28-3.65c0.29-0.85-0.42-1.17-0.98-1.55l0.14-0.22
			c1.4,0.54,2.79,1.08,4.27,1.66c-0.64,0.17-1.26,0.16-1.61,0.47c-0.36,0.32-0.48,0.92-0.66,1.42c-0.69,1.94-1.37,3.9-2.05,5.84
			c-0.59,1.68-0.59,1.68,0.45,3.01c-1.39-0.54-2.78-1.08-4.18-1.63c0.08-0.14,0.11-0.23,0.13-0.23c1.36,0.08,1.38,0.07,1.86-1.28
			c0.37-1.02,0.73-2.05,1.12-3.15c-1.56-0.6-3.07-1.17-4.71-1.8c-0.47,1.39-1.01,2.7-1.32,4.06c-0.09,0.4,0.45,0.96,0.74,1.51
			c-1.33-0.52-2.69-1.06-4.06-1.6c1.53-0.2,1.53-0.19,2.09-1.79c0.72-2.06,1.44-4.12,2.15-6.15c-0.06-0.09-0.08-0.15-0.12-0.19
			c-1.21-1.01-1.22-1.02-2.47-0.1c-1.56,1.15-3.23,2.13-4.29,3.89c-0.67,1.12-0.51,2.27-0.55,3.42c-0.01,0.29,0.32,0.59,0.45,0.82
			c-0.91-0.08-2.09-0.18-3.27-0.28c1.58-0.55,0.89-1.86,1.03-2.9c-0.85,0.71-2.21,0.83-2.38,2.28c-0.02,0.19-0.44,0.48-0.67,0.47
			c-0.83-0.04-1.45,0.35-2.08,0.81c-2.84,2.07-5.69,4.13-8.55,6.18c-0.21,0.15-0.46,0.25-0.68,0.38c-0.18,0.1-0.51,0.26-0.5,0.32
			c0.07,0.25,0.19,0.61,0.38,0.69c0.93,0.34,1.89,0.61,2.84,0.89c0.3,0.09,0.75,0.03,0.91,0.22c0.84,1.01,1.98,0.8,2.96,0.62
			c1.75-0.32,1.55,0.3,1.34,1.46c-0.04,0.23-0.11,0.45-0.18,0.72c-0.64-0.09-1.24-0.17-2-0.27c0.62-0.43,1.04-0.71,1.55-1.06
			c-1.21,0.26-2.23,0.48-3.25,0.7c-0.02-0.05-0.03-0.11-0.05-0.16c0.13-0.06,0.27-0.12,0.39-0.17c-0.36-0.45-0.72-0.91-1.03-1.31
			c-0.34,0.36-0.59,0.72-0.93,0.94c-0.19,0.12-0.53-0.02-0.98-0.05c0.3-0.15,0.42-0.21,0.59-0.3c-0.42-0.25-0.77-0.6-1.17-0.66
			c-1.14-0.17-1.9-0.87-2.64-1.64c-0.05-0.05-0.15-0.06-0.48-0.18c0.31,0.47,0.49,0.75,0.67,1.03c-0.82-0.19-1.17-0.61-1.05-1.37
			c0.12-0.75,0.61-1.24,1.35-1c1.18,0.39,1.93-0.21,2.77-0.83c2.33-1.72,4.69-3.4,7.03-5.1c0.21-0.15,0.4-0.32,0.57-0.66
			c-1.12,0.06-2.24,0.13-3.35,0.19c1.11-0.43,0.77-1.33,0.73-2.1c-0.06-1.36-0.16-2.71-0.2-4.07c-0.02-0.72-0.09-1.37-0.97-1.67
			c1.23-0.07,2.45-0.13,3.68-0.2c-0.96,0.31-1,0.99-0.95,1.78c0.1,1.56,0.15,3.13,0.25,4.69c0.06,0.99,0.38,1.3,1.29,0.93
			c0.76-0.31,1.4-0.96,2.05-1.52c0.22-0.19,0.29-0.54,0.51-0.98c0.1,0.34,0.15,0.52,0.23,0.8c0.64-0.46,1.25-0.89,1.95-1.39
			c-0.69-1.5-1.37-2.96-2.06-4.46c1.02,0.1,2.18,0.22,3.35,0.33c0,0.06,0,0.12,0,0.18c-0.26,0.06-0.52,0.11-0.95,0.21
			c0.34,0.93,0.66,1.79,1.02,2.76c0.58-0.42,1.09-0.76,1.57-1.13c0.98-0.75,0.96-1.18-0.1-1.86c1.85,0.5,3.33-0.05,4.46-1.41
			c-0.43-0.54-0.87-1.1-1.31-1.66H105.87z"/>
	</g>
	<g>
		<path fill="#1D87C8" d="M51.76,41.11c1.17-1.21,2.31-2.44,3.51-3.62c0.52-0.51,1.11-0.98,1.74-1.34c1.08-0.61,2.07-0.49,2.87,0.23
			c0.91,0.83,1.1,1.74,0.61,2.96c-0.05,0.13-0.11,0.27-0.22,0.53c0.33-0.14,0.55-0.24,0.77-0.34c0.99-0.44,1.95-0.46,2.82,0.26
			c0.88,0.72,1.18,1.68,0.96,2.77c-0.1,0.48-0.25,1.02-0.56,1.38c-1.53,1.81-3.13,3.56-4.77,5.41c-0.09-0.26-0.14-0.33-0.12-0.37
			c0.67-1.48,0.67-1.48-0.47-2.68c-1.52-1.61-3.05-3.21-4.57-4.82c-0.85-0.9-1.24-1.3-2.24-0.29c-0.07,0.07-0.22,0.05-0.33,0.08
			V41.11z M57.88,42.74c1.07,1.12,2,2.15,2.99,3.11c0.16,0.16,0.75,0.17,0.89,0.02c0.58-0.65,1.19-1.32,1.57-2.09
			c0.48-0.97,0.01-1.83-0.73-2.53c-0.71-0.67-1.55-0.79-2.36-0.29C59.43,41.46,58.71,42.11,57.88,42.74 M57.56,42.37
			c0.58-0.69,1.17-1.28,1.62-1.96c0.62-0.93,0.47-1.79-0.3-2.56c-0.76-0.76-1.65-0.92-2.57-0.33c-0.54,0.35-1.01,0.81-1.44,1.29
			c-0.13,0.14-0.12,0.59,0,0.73C55.72,40.48,56.61,41.38,57.56,42.37"/>
	</g>
	<g>
		<path fill="#1D87C8" d="M100.36,60.15c-0.86-0.75-1.73-1.5-2.59-2.25c-0.41,0.48-0.72,0.84-1.13,1.31
			c0.45-0.08,0.79-0.15,1.14-0.21c0.02,0.05,0.05,0.1,0.07,0.15c-0.38,0.19-0.76,0.38-0.95,0.48c0.44,0.49,0.87,0.98,1.28,1.43
			c-2.78,1.21-5.19,0.28-7.69-0.49c-1.16-0.36-1.63-0.94-1.89-1.99c-0.17-0.68-0.48-1.34-1.27-1.49c0.39,0.71,0.87,1.4,1.14,2.15
			c0.2,0.55,0.3,1.26,0.12,1.78c-0.18,0.53-0.04,0.84,0.13,1.28c0.45,1.14,0.85,2.31,1.2,3.48c0.09,0.3-0.04,0.66-0.09,1.22
			c-0.96-1.11-1.76-2.02-2.58-2.96c-0.78,0.2-1.19,0.83-1.13,1.61c0.02,0.28,0.64,0.52,0.83,0.66c-0.3,0.34-0.66,0.75-1.09,1.24
			c-0.66-0.19-1.54-0.44-2.42-0.72c-0.76-0.25-0.8-0.78-0.33-1.4c0.64-0.85,1.14-1.8,1.68-2.66c-1.22-0.26-2.35-0.5-3.47-0.75
			c-0.37-0.08-0.74-0.19-1.1-0.34c-1.87-0.78-2.33-1.55-2.15-3.55c0.07-0.73,0.15-1.46,0.24-2.33c-1.19,0-2.33-0.05-3.46,0.03
			c-0.39,0.02-0.75,0.36-1.14,0.51c-0.39,0.15-0.79,0.24-1.37,0.4c0.46-1.11,0.97-1.8,2.04-1.82c1.38-0.02,2.76-0.01,4.14-0.05
			c0.25-0.01,0.53-0.16,0.72-0.33c2.4-2.22,5.35-2.94,8.49-2.96c0.88,0,1.77,0.5,2.66,0.74c0.21,0.06,0.44,0.01,0.66,0.01
			l-0.03-0.25c-0.6-0.2-1.21-0.36-1.79-0.6c-0.57-0.23-1.11-0.54-1.66-0.81c0.04-0.07,0.07-0.14,0.11-0.21
			c0.39,0.21,0.78,0.42,1.18,0.62c0.03-0.04,0.06-0.09,0.09-0.13c-0.28-0.27-0.57-0.53-0.99-0.94c1.45,0.38,2.7,0.71,3.95,1.04
			c0,0.07-0.01,0.13-0.01,0.2c-0.32,0.13-0.64,0.25-0.96,0.38c0.02,0.07,0.04,0.15,0.07,0.22c0.55-0.14,1.1-0.29,1.64-0.43
			l0.03,0.01c0.32,0.99,0.89,1.59,2.02,1.77c0.67,0.11,1.34,0.6,1.85,1.08c0.22,0.2,0.04,0.83,0.04,1.53
			c0.2-0.49,0.38-0.76,0.42-1.06c0.15-0.95,0.28-1.91,0.34-2.87c0.02-0.26-0.2-0.57-0.37-0.8c-0.2-0.28-0.48-0.5-0.6-0.9
			c0.35,0.12,0.7,0.23,1.04,0.35l-0.03-0.03c0.24,0.2,0.45,0.5,0.73,0.59c0.51,0.16,0.49,0.47,0.47,0.88
			c-0.06,0.96,0.26,1.27,1.26,1.18c0.64-0.06,1.27-0.11,1.68,0.49c0.15,0.22,0.16,0.53,0.23,0.8c-0.24,0.01-0.49,0.04-0.73,0.01
			c-0.47-0.06-0.93-0.15-1.39-0.23c-0.5-0.08-0.74,0.18-1.04,0.59c-0.66,0.87-1.43,1.64-1.85,2.7c-0.1,0.26-0.61,0.35-1.15,0.63
			c0.43,0.19,0.81,0.47,0.93,0.38c0.31-0.22,0.65-0.57,0.71-0.92c0.26-1.44,1.37-2.2,2.32-3.11c0.04-0.04,0.1-0.06,0.16-0.07
			c0.81-0.23,3.18,1.12,3.47,1.94c0.11,0.3,0.34,0.54,0.52,0.81c0.09-0.06,0.17-0.12,0.26-0.18c-0.13-0.35-0.27-0.69-0.41-1.07
			c1.02,0.14,2,0.28,3.05,0.42c-0.73,1.29-1.57,2.77-2.4,4.25c-0.2,0.11-0.4,0.21-0.6,0.32c-0.95-0.13-1.9-0.26-2.85-0.39
			C100.61,60.41,100.49,60.28,100.36,60.15 M91.71,54.17h2.22C92.6,53.35,92.16,53.37,91.71,54.17"/>
	</g>
	<g>
		<path fill="#1D87C8" d="M117.6,46.54c-0.01,0.21,0.02,0.57-0.05,0.59c-0.66,0.22-0.41,0.56-0.13,0.95c-1.12,0.62-2.28,1-3.57,1
			c-0.36,0-0.79,0.21-1.08,0.45c-0.84,0.68-1.62,1.43-2.45,2.11l2.22-2.6c-0.06-0.01-0.12-0.02-0.17-0.03c0-0.03,0-0.06-0.01-0.09
			h2.27c0.01-0.06,0.01-0.12,0.02-0.18c-1.36-0.26-2.72-0.51-4.25-0.8c-1.07,1.66-2.24,3.46-3.34,5.16
			c-1.1-0.86-2.27-1.76-3.44-2.67c-0.11-0.09-0.22-0.18-0.33-0.27c-0.76-0.48-1.53-0.95-2.5-1.56c0.81-0.35,1.52-0.65,2.24-0.96
			c0-0.06-0.01-0.12-0.01-0.18c-0.64,0.1-1.28,0.2-2.11,0.33c1.41-1.41,0.96-2.95,0.81-4.45c-0.08-0.75-0.52-1.56,0.6-1.99
			c0.28-0.11,0.42-0.6,0.72-1.07c0.69,2.39,0.19,4.58-0.13,6.89h5.62c0-0.05,0-0.1,0-0.16c-1.52-0.07-3.04-0.14-4.57-0.21
			c-0.05-0.09-0.11-0.18-0.16-0.27c1.98-1.68,3.96-3.35,6.04-5.11c-0.34-0.32-0.79-0.75-1.24-1.18c0.03-0.07,0.06-0.15,0.09-0.22
			c0.47,0.2,0.98,0.35,1.4,0.62c0.46,0.29,0.85,0.7,1.36,1.13c0.09-0.28,0.15-0.46,0.2-0.63c0.07-0.03,0.15-0.06,0.22-0.1
			c0.11,0.27,0.22,0.55,0.33,0.82l0.03-0.03c-0.14,0.18-0.27,0.35-0.42,0.54c-0.41-0.21-0.79-0.4-1.18-0.6
			c1.55,1.05,1.67,2.71,1.97,4.43c-1.05-0.37-1.7,0.06-2.39,0.98c1.82,0.11,3.47,0.21,5.38,0.32c-0.32-0.19-0.43-0.26-0.61-0.36
			c0.84-0.23,2.09,0.77,2.36-0.82l0,0c0.1,0.07,0.2,0.14,0.3,0.2C117.63,46.57,117.6,46.54,117.6,46.54 M115.41,48.08l-0.01-0.19
			h-3.25c0,0.06,0,0.13,0,0.19H115.41z"/>
	</g>
	<g>
		<path fill="#1D87C8" d="M98.33,43.34c-0.86-1.43-1.78-2.94-2.7-4.45c-0.4-0.65-0.84-1.24-1.79-0.85c0.76-0.48,2.03-0.25,2.68,0.4
			c0.64,0.64,1.22,1.45,2.29,1.27c0.56-0.09,1.09-0.34,1.75-0.56c0.06,0.2,0.16,0.5,0.28,0.88c0.21-0.04,0.45-0.08,0.69-0.12
			c0.12,0.86-0.39,1.92-1.14,2.25c0.17-0.53,0.32-0.99,0.52-1.63c-0.63,0.32-0.44,1.41-1.29,0.79c-0.08,0.12-0.13,0.16-0.13,0.21
			c-0.06,1.37-0.74,2.35-1.88,3.09c-0.41,0.26-0.69,0.72-1.05,1.07c-0.6,0.59-1.25,1.06-2.18,0.96c-0.31-0.03-0.63,0.1-1.13,0.18
			c-0.89-0.84-1.9-1.81-2.98-2.83c0.33-0.12,0.64-0.23,1-0.36c-0.42-1.44,1.36-1.43,1.39-2.59c0.08,0.04,0.16,0.08,0.24,0.12v3.17
			c0.95-1.14,0.09-2.55,0.62-3.85c0.77,1.49,2.11,2.6,2.19,4.41c-0.46,0.12-0.93,0.24-1.53,0.39c1.36,0.53,1.64,0.41,2.45-0.53
			C97.08,44.27,97.68,43.89,98.33,43.34"/>
	</g>
	<g>
		<path fill="#1D87C8" d="M67.89,84.21h-4.02c1.36-0.28,1.19-1.32,1.19-2.25c0.01-2.12,0.02-4.25,0.02-6.37c0-1.47,0-1.47-1.17-2.15
			c2.11,0.07,4.25-0.43,6.31,0.37c1.19,0.46,1.78,1.39,1.75,2.6c-0.03,1.29-0.81,2.49-2.04,2.81c-1.01,0.26-2.08,0.31-3.24,0.47
			c0,1.1-0.09,2.33,0.06,3.54C66.79,83.6,67.5,83.89,67.89,84.21 M66.67,78.88c0.62,0,1.12,0.04,1.61-0.01
			c1.05-0.11,1.75-0.76,1.94-1.76c0.43-2.32-1.08-3.2-3.03-3.09c-0.18,0.01-0.5,0.35-0.5,0.55C66.65,75.97,66.67,77.38,66.67,78.88"
			/>
	</g>
	<g>
		<path fill="#1D87C8" d="M83.08,30.63c0.82-0.58,0.6-1.27,0.38-2c-0.42-1.38-0.81-2.77-1.19-4.16c-0.18-0.66-0.42-1.24-1.32-1.11
			c0-0.08,0-0.17,0.01-0.25c1.6-0.43,3.19-0.93,4.82-1.27c0.78-0.16,1.54,0.17,1.88,1c0.35,0.85,0.2,1.62-0.49,2.25
			c-0.15,0.14-0.29,0.27-0.49,0.46c1.18,0.95,2.31,1.86,3.43,2.76c-0.02,0.01-0.09,0.06-0.17,0.1c-1.18,0.63-2.22,0.63-3.16-0.52
			c-0.51-0.62-1.22-1.07-1.89-1.64c-0.25,1.43,0.58,2.97,1.62,3.26C85.37,29.89,84.23,30.26,83.08,30.63 M84.55,25.99
			c0.72-0.25,1.5-0.44,1.51-1.21c0.01-0.68-0.25-1.43-0.62-2.01c-0.16-0.25-0.88-0.21-1.34-0.18c-0.13,0.01-0.38,0.47-0.34,0.67
			C83.97,24.16,84.26,25.04,84.55,25.99"/>
	</g>
	<g>
		<path fill="#1D87C8" d="M107.62,82.66c-0.18,0.25-0.33,0.53-0.55,0.73c-1.63,1.43-3.53,1.74-5.54,1.06
			c-1.96-0.67-2.9-2.2-3.21-4.18c-0.54-3.48,1.28-6.3,4.48-6.77c0.84-0.12,1.76,0.06,2.61,0.25c0.68,0.15,1.3,0.34,1.95-0.53v4.05
			c-0.19-0.34-0.3-0.49-0.36-0.67c-0.7-1.79-1.76-2.59-3.4-2.54c-1.48,0.04-2.77,1.12-3.28,2.79c-0.43,1.42-0.44,2.86-0.05,4.28
			c0.77,2.86,3.69,3.86,6.17,2.14c0.35-0.24,0.67-0.51,1-0.77L107.62,82.66z"/>
	</g>
	<g>
		<path fill="#1D87C8" d="M127.21,80.73c0.36,0.17,0.66,0.29,0.93,0.46c1.02,0.65,1.15,2.04,0.2,2.78c-0.47,0.36-1.1,0.65-1.68,0.69
			c-1.27,0.1-2.56,0.03-3.9-0.05c0.79-0.28,0.87-0.84,0.86-1.53c-0.03-1.44-0.02-2.89,0.02-4.33c0.02-0.64-0.05-1.18-0.81-1.32
			c1.41,0,2.83-0.06,4.24,0.02c0.77,0.04,1.4,0.48,1.53,1.35c0.13,0.9-0.3,1.46-1.12,1.76C127.4,80.59,127.33,80.65,127.21,80.73
			 M125.24,81.04c0,0.82-0.04,1.61,0.02,2.39c0.02,0.31,0.23,0.84,0.39,0.85c0.39,0.03,1.08-0.1,1.14-0.32
			c0.21-0.69,0.34-1.47,0.21-2.16C126.86,81.08,126.16,80.9,125.24,81.04 M125.31,80.54c0.09,0.08,0.17,0.17,0.26,0.25
			c0.41-0.26,1.1-0.46,1.18-0.8c0.15-0.63,0.01-1.36-0.15-2.02c-0.04-0.17-0.6-0.3-0.92-0.29c-0.14,0.01-0.34,0.43-0.36,0.67
			C125.28,79.07,125.31,79.8,125.31,80.54"/>
	</g>
	<g>
		<path fill="#1D87C8" d="M94.84,80.76c-0.01,2.28-1.53,3.91-3.67,3.93c-2.11,0.02-3.71-1.66-3.71-3.9c0-2.27,1.62-3.93,3.79-3.9
			C93.38,76.92,94.85,78.51,94.84,80.76 M93.12,80.83c-0.18-0.85-0.26-1.78-0.61-2.6c-0.19-0.44-0.86-0.91-1.32-0.92
			c-0.46-0.01-1.15,0.44-1.35,0.87c-0.75,1.64-0.75,3.37-0.16,5.08c0.23,0.67,0.75,1.06,1.49,1.05c0.74,0,1.26-0.41,1.46-1.08
			C92.85,82.48,92.95,81.69,93.12,80.83"/>
	</g>
	<g>
		<path fill="#1D87C8" d="M79.82,80.74c-0.04,2.33-1.52,3.84-3.74,3.81c-2.12-0.03-3.58-1.64-3.55-3.92
			c0.03-2.31,1.55-3.89,3.71-3.87C78.41,76.79,79.86,78.4,79.82,80.74 M78.16,80.71c-0.19-0.86-0.27-1.8-0.63-2.61
			c-0.19-0.44-0.86-0.91-1.32-0.92c-0.46-0.01-1.15,0.45-1.34,0.89c-0.74,1.67-0.74,3.43-0.08,5.15c0.24,0.63,0.73,0.99,1.43,0.98
			c0.71,0,1.2-0.4,1.4-1.03C77.86,82.4,77.97,81.58,78.16,80.71"/>
	</g>
	<g>
		<path fill="#1D87C8" d="M92.67,51.44l-0.03-0.01c-0.67-0.69-1.34-1.38-2.01-2.07c0.19-0.17,0.54-0.46,0.89-0.76
			c-0.06-0.09-0.12-0.17-0.19-0.26c-0.23,0.17-0.44,0.38-0.7,0.5c-0.19,0.09-0.44,0.06-0.66,0.09c0-0.08,0-0.15,0.01-0.23l1.4-0.95
			c-0.03-0.06-0.07-0.12-0.1-0.19c-0.21,0.07-0.43,0.12-0.63,0.21c-0.18,0.08-0.34,0.24-0.53,0.31c-0.17,0.06-0.37,0.04-0.56,0.06
			c0.01-0.19-0.05-0.41,0.03-0.55c0.3-0.52,0.64-1.01,1.09-1.7c1.17,0.7,2.46,1.37,3.63,2.22c0.47,0.34,0.64,1.09,0.97,1.64
			c0.11,0.18,0.28,0.32,0.47,0.53c0.29,0.43,0.63,0.94,1.1,1.63c-0.05,0.39-0.14,1.05-0.25,1.92c-0.88-0.49-1.68-0.92-2.58-1.41
			c0.38-0.15,0.63-0.25,0.89-0.35C94.14,51.86,93.41,51.65,92.67,51.44"/>
	</g>
	<g>
		<path fill="#1D87C8" d="M73.62,26.64c1.86-0.91,3.72-1.82,5.67-2.77c0.31,0.7,0.6,1.35,0.89,2.01c-0.04,0.03-0.08,0.06-0.12,0.09
			c-0.15-0.14-0.3-0.28-0.45-0.43c-0.76-0.73-2.48-0.63-3.1,0.21c-0.1,0.14-0.09,0.39-0.06,0.58c0.03,0.2,0.14,0.38,0.23,0.57
			c0.26,0.59,0.53,1.17,0.79,1.75c1.09-0.47,1.13-0.55,1.26-2.26c0.49,1.12,0.99,2.25,1.48,3.37c-1.31-1.11-1.46-1.16-2.54-0.62
			c0.37,0.83,0.73,1.66,1.1,2.49c0.2,0.44,0.52,0.48,0.95,0.29c1.03-0.47,1.75-1.18,1.91-2.36c0.04-0.29,0.1-0.57,0.34-0.89
			c0.16,0.66,0.34,1.32,0.47,1.99c0.02,0.12-0.11,0.35-0.23,0.41c-1.81,0.9-3.63,1.78-5.54,2.6c0.71-0.6,0.54-1.2,0.22-1.88
			c-0.62-1.31-1.17-2.64-1.73-3.97C74.87,27.14,74.61,26.48,73.62,26.64"/>
	</g>
	<g>
		<path fill="#1D87C8" d="M61.6,35.68c1.6-1.34,3.2-2.69,4.87-4.09c0.49,0.63,0.92,1.18,1.36,1.74c-1.81-0.66-2.48-0.6-3.44,0.52
			c-0.17,0.19-0.22,0.68-0.09,0.89c0.44,0.69,0.98,1.32,1.48,1.97c0.91-0.73,0.92-0.78,0.68-2.57c0.74,0.96,1.47,1.93,2.21,2.89
			c-0.02,0.08-0.04,0.17-0.07,0.25c-0.83-0.7-1.66-1.21-2.52-0.13c0.52,0.67,1.04,1.35,1.56,2.02c0.32,0.42,0.66,0.42,1.06,0.11
			c0.96-0.74,1.47-1.67,1.33-2.91c-0.03-0.27-0.05-0.54,0.12-0.87c0.3,0.58,0.63,1.15,0.88,1.75c0.06,0.15-0.03,0.48-0.16,0.59
			c-1.53,1.33-3.08,2.63-4.72,3.93c0.73-0.89,0.15-1.49-0.35-2.13c-0.83-1.07-1.66-2.15-2.47-3.23c-0.42-0.56-0.81-1.18-1.72-0.42
			C61.61,35.89,61.61,35.78,61.6,35.68"/>
	</g>
	<g>
		<path fill="#1D87C8" d="M100.36,60.15c0.13,0.13,0.25,0.26,0.38,0.39c0.61,0.33,1.21,0.65,1.94,1.04
			c-0.62,2.06-1.67,4.17-1.55,6.75c-0.86-0.1-1.76-0.2-2.65-0.29c0-0.08,0-0.16,0-0.25c0.12-0.06,0.23-0.12,0.36-0.17
			c1.35-0.55,1.5-0.92,0.66-2.06c-0.58-0.79-0.63-1.67-0.49-2.54c0.19-1.12-0.62-1.87-0.85-2.82c-0.08-0.32-0.04-0.66-0.05-1
			c0.3,0.05,0.64,0.04,0.9,0.16C99.48,59.58,99.91,59.89,100.36,60.15"/>
	</g>
	<g>
		<path fill="#1D87C8" d="M139.61,42.82c-0.41,0.48-0.92,1.06-1.42,1.65c-0.06-0.03-0.13-0.07-0.19-0.1c0.09-0.35,0.2-0.7,0.28-1.05
			c0.19-0.8,0.08-1.58-0.57-2.1c-0.31-0.24-0.96-0.42-1.23-0.25c-0.33,0.2-0.6,0.81-0.57,1.21c0.05,0.62,0.39,1.22,0.59,1.84
			c0.13,0.42,0.3,0.84,0.33,1.28c0.07,0.94-0.24,1.75-1.1,2.25c-0.82,0.49-1.68,0.46-2.41-0.1c-0.55-0.42-0.94-1.03-1.42-1.54
			c-0.26-0.28-0.55-0.53-0.94-0.9c0.5-0.54,1.1-1.21,1.7-1.87c0.06,0.04,0.12,0.08,0.17,0.13c-0.15,0.46-0.33,0.92-0.45,1.39
			c-0.22,0.89,0.03,1.68,0.79,2.18c0.33,0.22,1,0.33,1.26,0.14c0.35-0.26,0.62-0.85,0.61-1.3c-0.01-0.56-0.35-1.11-0.52-1.67
			c-0.14-0.45-0.27-0.91-0.33-1.37c-0.12-0.93,0.38-1.86,1.21-2.27c0.84-0.42,1.62-0.25,2.29,0.35c0.37,0.33,0.63,0.77,0.96,1.14
			C138.93,42.16,139.23,42.44,139.61,42.82"/>
	</g>
	<g>
		<path fill="#1D87C8" d="M103.59,60.92c0.2-0.11,0.4-0.21,0.6-0.32c0.52-0.66,1.04-1.32,1.62-2.05c-0.07,0.01,0-0.02,0.04,0
			c1.29,0.73,2.62,1.29,4.16,1.25c0.42-0.01,0.87,0.19,1.25,0.38c0.94,0.47,0.97,1.1,0.5,2.03c-0.66,1.29-1.56,1.47-2.81,0.92
			c0.32-0.48,0.65-0.97,0.93-1.38c-0.66-0.05-1.18-0.1-1.69-0.12c-1.14-0.06-2.29-0.05-3.43-0.17
			C104.36,61.42,103.98,61.11,103.59,60.92"/>
	</g>
	<g>
		<path fill="#1D87C8" d="M133.25,36.54c-0.92-0.44-1.37,0.04-1.85,0.7c-0.91,1.27-1.86,2.52-2.83,3.74
			c-0.41,0.51-0.33,0.86,0.13,1.27c0.91,0.81,1.88,1.07,3,0.47c0.22-0.11,0.45-0.19,0.68-0.28l0.13,0.2
			c-0.61,0.56-1.22,1.13-1.87,1.73c-1.67-1.42-3.28-2.79-4.89-4.16c0.88,0.3,1.31-0.17,1.75-0.78c0.86-1.2,1.75-2.38,2.66-3.54
			c0.43-0.55,0.66-1.05,0.02-1.63c0.06-0.04,0.13-0.09,0.19-0.13C131.34,34.93,132.3,35.74,133.25,36.54"/>
	</g>
	<g>
		<path fill="#1D87C8" d="M126.73,37.71c-0.54,0.57-1.09,1.15-1.69,1.79c-1.73-1.25-3.43-2.49-5.14-3.72
			c0.89,0.24,1.25-0.3,1.63-0.9c0.8-1.28,1.62-2.54,2.46-3.79c0.36-0.53,0.61-1.03-0.08-1.58c0.07-0.04,0.14-0.08,0.21-0.12
			c0.99,0.71,1.97,1.43,2.96,2.14c0.01,0.1,0.02,0.2,0.03,0.3c-1.1-0.83-1.45-0.03-1.87,0.61c-0.82,1.26-1.63,2.54-2.48,3.77
			c-0.44,0.64-0.31,1.05,0.28,1.47c0.88,0.62,1.77,0.76,2.74,0.25c0.27-0.14,0.56-0.27,0.84-0.41
			C126.65,37.59,126.69,37.65,126.73,37.71"/>
	</g>
	<g>
		<path fill="#1D87C8" d="M70.17,28.98c-1.04,0.61-0.57,1.05-0.02,1.48c1.01,0.8,2.03,1.59,3.25,2.54c-0.28-1.68-0.48-3.12-0.8-4.54
			c-0.06-0.27-0.62-0.42-0.98-0.64c0.44-0.29,1.04-0.68,1.55-1.02c0,0.65-0.07,1.26,0.01,1.86c0.27,1.96,0.6,3.9,0.9,5.85
			c0.05,0.33,0.07,0.67,0.13,1.26c-0.47-0.34-0.75-0.53-1.02-0.73c-1.62-1.24-3.22-2.49-4.85-3.7c-0.37-0.27-0.84-0.39-1.4-0.64
			c0.97-0.59,1.96-1.2,2.95-1.81C69.99,28.9,70.08,28.94,70.17,28.98"/>
	</g>
	<g>
		<path fill="#1D87C8" d="M115.36,77.25h3.24c-0.88,0.35-0.87,1.06-0.86,1.81c0.03,1.21-0.03,2.42,0,3.63
			c0.03,1.04,0.51,1.6,1.34,1.68c0.98,0.09,1.8-0.41,1.9-1.43c0.15-1.55,0.14-3.12,0.09-4.67c-0.01-0.32-0.49-0.62-0.76-0.94h1.77
			c-0.17,0.52-0.43,1.03-0.48,1.56c-0.1,1.17-0.06,2.36-0.12,3.54c-0.06,1.31-0.57,1.99-1.66,2.33c-1.22,0.37-2.69,0.04-3.3-0.87
			c-0.27-0.41-0.38-0.98-0.4-1.49c-0.05-1.21-0.01-2.42-0.01-3.63C116.12,78.14,116.07,77.55,115.36,77.25"/>
	</g>
	<g>
		<path fill="#1D87C8" d="M86.39,84.35h-5.86c0.82-0.27,0.73-0.91,0.73-1.54c0.01-1.45,0.08-2.89,0.04-4.34
			c-0.02-0.49-0.31-0.98-0.47-1.45h3.11c-1.13,0.19-0.97,1.05-0.96,1.83c0.01,1.42,0.04,2.83-0.01,4.25
			c-0.03,0.81,0.32,1.02,1.05,0.99c0.94-0.04,1.64-0.43,2.11-1.24c0.17-0.3,0.33-0.6,0.7-0.85C86.67,82.78,86.53,83.55,86.39,84.35"
			/>
	</g>
	<g>
		<path fill="#1D87C8" d="M114.75,82.26c-0.13,0.76-0.26,1.51-0.39,2.28h-5.86c0.75-0.34,0.78-0.94,0.76-1.61
			c-0.03-1.45-0.01-2.89-0.01-4.34c0-0.89-0.01-0.89-1-1.33h3.55c-0.87,0.28-0.84,0.99-0.84,1.72c0,1.42-0.05,2.83-0.07,4.25
			c-0.01,0.97,0.25,1.19,1.23,1.08c0.89-0.1,1.55-0.53,1.97-1.32c0.14-0.27,0.3-0.53,0.45-0.79
			C114.61,82.22,114.68,82.24,114.75,82.26"/>
	</g>
	<g>
		<path fill="#1D87C8" d="M122.19,28.04c-0.8-0.11-1.15,0.27-1.44,0.89c-0.65,1.42-1.36,2.81-2.03,4.22
			c-0.44,0.91-0.43,0.95,0.16,1.83c-1.1-0.58-2.19-1.16-3.28-1.74c0-0.08-0.01-0.16-0.01-0.24c1.06,0.42,1.32-0.29,1.65-0.96
			c0.63-1.3,1.27-2.6,1.94-3.87c0.34-0.65,0.48-1.21-0.28-1.7c0.05-0.05,0.1-0.11,0.15-0.16C120.09,26.88,121.14,27.46,122.19,28.04
			"/>
	</g>
	<g>
		<path fill="#1D87C8" d="M103.3,50.19c0.11,0.09,0.22,0.18,0.33,0.27c1.09,1.2,2.2,2.38,3.27,3.59c0.23,0.26,0.42,0.59,0.51,0.92
			c0.15,0.55-0.02,0.88-0.58,0.65c0.04-0.37,0.21-0.81,0.07-0.98c-0.17-0.2-0.62-0.16-1.13-0.26c-0.02-0.19-0.07-0.55-0.12-0.91
			c-0.05,0.06-0.09,0.11-0.14,0.17c-0.37-0.27-0.77-0.52-1.12-0.83c-0.48-0.44-0.94-0.83-1.65-0.13c0.95,0.73,2.4,0.78,2.79,2.29
			c-0.86-0.21-1.51-0.5-1.64-1.23c-0.89-0.21-1.69-0.34-2.45-0.61c-0.54-0.19-0.76-0.61-0.56-1.28c0.21-0.69,0.23-1.44,0.34-2.19
			c0.77-0.17,0.84,0.33,0.8,0.79C102.47,50.35,102.88,50.27,103.3,50.19"/>
	</g>
	<g>
		<path fill="#1D87C8" d="M97.4,50.54c-0.27-0.33-0.55-0.66-0.84-1.01c0.22-0.13,0.3-0.19,0.31-0.18c0.76,0.6,1.37,0.32,2.08-0.2
			c0.81-0.6,1.72-0.18,1.77,0.83c0.05,0.86-0.14,1.74-0.32,2.59c-0.03,0.14-0.61,0.28-0.89,0.21c-0.27-0.07-0.72-0.48-0.68-0.61
			c0.44-1.42-0.65-1.42-1.47-1.67C97.37,50.51,97.4,50.54,97.4,50.54"/>
	</g>
	<g>
		<path fill="#1D87C8" d="M112.2,41.9c1.13-0.61,1.65-0.54,2.56,0.33c0.3,0.28,0.61,0.55,0.93,0.81c0.31,0.26,0.64,0.5,0.96,0.75
			c-1.09,1.4-2.4,1.39-3.44,0.01c-0.07-0.1,0.09-0.37,0.15-0.57c0.46,0.52,0.64,0.4,1.01-0.66c-0.45-0.07-0.9-0.13-1.45-0.22
			c0.22,0.33,0.37,0.56,0.53,0.8c-0.71-0.13-1.27-0.41-1.23-1.27C112.23,41.87,112.2,41.9,112.2,41.9"/>
	</g>
	<g>
		<path fill="#1D87C8" d="M96.45,70.01c-0.62,0.32-1.23,0.63-1.86,0.95c-0.33-1.19-0.14-1.58,0.89-2c0.68-0.28,1.33-0.63,2-0.93
			c0.17-0.08,0.4-0.16,0.56-0.11c0.88,0.27,1.74,0.59,2.37,0.8c-1.13,0.37-2.56,0.84-3.99,1.31L96.45,70.01z"/>
	</g>
	<g>
		<path fill="#1D87C8" d="M90.45,68.94c-0.43-0.16-0.85-0.36-1.3-0.45c-0.74-0.15-1.51-0.2-2.25-0.37c-0.21-0.05-0.53-0.39-0.5-0.51
			c0.1-0.35,0.37-0.95,0.54-0.93c1.5,0.13,3.03,0.25,4.43,1.03c-0.2,0.41-0.37,0.74-0.53,1.07C90.71,68.83,90.58,68.89,90.45,68.94"
			/>
	</g>
	<g>
		<path fill="#1D87C8" d="M101.31,36.8c-0.81,0.26-1.52,0.56-2.27,0.7c-0.47,0.09-1.03,0.04-1.46-0.14
			c-0.56-0.24-0.43-0.77-0.13-1.18c0.48-0.69,1.12-1.13,2.01-1C100.48,35.32,100.98,36.03,101.31,36.8"/>
	</g>
	<g>
		<path fill="#1D87C8" d="M106.9,66.25c0.69-0.89,1.29-1.65,1.87-2.42c0.62-0.83,1.17-0.08,1.81-0.03c-0.69,1.1-1.3,2.11-1.96,3.09
			c-0.37,0.55-1.09,0.48-1.44-0.1C107.03,66.54,106.91,66.27,106.9,66.25"/>
	</g>
	<g>
		<path fill="#1D87C8" d="M96.42,70.04c1.47,0.53,2.12,1.82,3.02,3.13c-1.23-0.35-2.27-0.65-3.05-0.87
			c-0.4-0.59-0.67-0.99-0.94-1.39c0.25-0.22,0.63-0.56,1-0.89C96.45,70.01,96.42,70.04,96.42,70.04"/>
	</g>
	<g>
		<path fill="#1D87C8" d="M90.45,68.94c0.13-0.06,0.26-0.11,0.39-0.17c0.19-0.13,0.37-0.26,0.72-0.5c0.16,0.22,0.32,0.46,0.49,0.69
			c0.11,0.16,0.21,0.31,0.32,0.47c0.18,0.85,0.36,1.7,0.57,2.67c-0.89-0.55-1.76-0.92-2.37-1.53C90.28,70.27,90.48,69.5,90.45,68.94
			"/>
	</g>
	<g>
		<path fill="#1D87C8" d="M107.13,67.45c-1.21,0.37-2.37,0.73-3.64,1.11c0.5-1.33,1.84-2.46,2.83-2.48
			C106.56,66.49,106.81,66.91,107.13,67.45"/>
	</g>
	<g>
		<path fill="#1D87C8" d="M117.6,46.54c0,0,0.02,0.03,0.02,0.03c-0.36-0.42-0.72-0.84-1.2-1.4c0.08-0.16,0.26-0.51,0.51-0.99
			c0.77,0.59,1.45,1.11,2.35,1.8c-0.35,0.11-0.54,0.18-0.79,0.26c0.49,0.25,0.78,0.4,1.08,0.55
			C118.83,47.07,118.17,47.06,117.6,46.54"/>
	</g>
	<g>
		<path fill="#1D87C8" d="M112.61,43.67c0.85,0.62,1.62,1.19,2.46,1.81c-0.04,0.73-0.56,0.89-1.29,0.92
			c-0.75,0.03-0.97-0.3-0.99-0.98C112.78,44.86,112.68,44.29,112.61,43.67"/>
	</g>
	<g>
		<path fill="#1D87C8" d="M92.37,69.43c-0.11-0.16-0.21-0.31-0.32-0.47c-0.08-0.33-0.15-0.67-0.25-1.08
			c0.81,0.13,1.44,0.23,2.03,0.91c0.63,0.74,0.01,1.39,0.14,2.13C93.44,70.43,92.9,69.93,92.37,69.43"/>
	</g>
	<g>
		<path fill="#1D87C8" d="M99.96,37.84c0.42,0.87-0.69,0.81-0.84,1.49c-0.31-0.33-0.54-0.57-1.05-1.11
			c-0.17,0.28-0.33,0.54-0.54,0.88c-0.16-0.22-0.37-0.49-0.55-0.72c0.05-0.27,0.11-0.57,0.15-0.79
			C98.01,37.66,98.94,37.75,99.96,37.84"/>
	</g>
	<g>
		<path fill="#1D87C8" d="M96.2,49.43c-0.77-0.81-1.4-1.48-2.07-2.19C96.08,46.91,96.16,46.99,96.2,49.43"/>
	</g>
	<g>
		<path fill="#1D87C8" d="M109.47,52.68c-0.63,0.5-1.27,1.01-1.95,1.55c-0.05-0.08-0.2-0.29-0.21-0.31
			c0.75-0.51,1.39-0.95,2.03-1.39C109.38,52.58,109.42,52.63,109.47,52.68"/>
	</g>
	<g>
		<path fill="#1D87C8" d="M117.33,46.36c-0.38,0.23-0.76,0.47-1.27,0.78c-0.03-0.53-0.05-0.84-0.08-1.32
			C116.5,46.03,116.91,46.2,117.33,46.36C117.33,46.36,117.33,46.36,117.33,46.36"/>
	</g>
</g>
</svg>
