<?xml version="1.0" encoding="utf-8"?>
<!-- Generator: Adobe Illustrator 27.6.1, SVG Export Plug-In . SVG Version: 6.00 Build 0)  -->
<svg version="1.1" id="Layer_1" xmlns="http://www.w3.org/2000/svg" xmlns:xlink="http://www.w3.org/1999/xlink" x="0px" y="0px"
	 viewBox="0 0 191.36 102.43" enable-background="new 0 0 191.36 102.43" xml:space="preserve">
<g>
	<path fill="#1D87C8" d="M44.46,59.67c-0.75-0.04-1.56-0.09-2.36-0.14c-0.08-0.01-0.17-0.02-0.24-0.06
		c-0.06-0.03-0.13-0.11-0.13-0.17c-0.02-0.46-0.04-0.91-0.04-1.37c0-2.66,0-5.32,0-7.98c0-0.43-0.02-0.86-0.02-1.28
		c0-0.42-0.25-0.73-0.44-1.07c-0.44-0.76-1.13-1.09-1.98-1.22c-0.82-0.12-1.62-0.02-2.41,0.15c-0.35,0.07-0.69,0.24-1.02,0.39
		c-0.08,0.04-0.16,0.16-0.18,0.25c-0.03,0.2-0.02,0.41-0.02,0.61c0.01,3.1,0.02,6.19,0.02,9.29c0,0.7-0.02,1.41-0.03,2.11
		c0,0.27-0.05,0.32-0.31,0.36c-1.18,0.16-2.38,0.14-3.57,0.12c-0.41-0.01-0.83-0.08-1.24-0.12c-0.15-0.02-0.23-0.11-0.24-0.25
		c-0.03-0.43-0.06-0.86-0.07-1.28c-0.01-0.31,0.02-0.62,0.02-0.93c0-4.11,0.01-8.22,0.01-12.33c0-0.11-0.02-0.23,0.01-0.34
		c0.03-0.12,0.07-0.25,0.16-0.32c0.26-0.22,0.53-0.41,0.81-0.6c0.09-0.06,0.21-0.07,0.31-0.11c0.15-0.06,0.3-0.12,0.43-0.22
		c0.58-0.45,1.23-0.73,1.95-0.91c0.6-0.15,1.22-0.21,1.77-0.53c0.12-0.07,0.27-0.1,0.4-0.12c0.69-0.08,1.38-0.16,2.08-0.22
		c0.47-0.04,0.94-0.05,1.41-0.04c0.9,0.02,1.78,0.16,2.64,0.39c0.08,0.02,0.15,0.07,0.22,0.11c0.11,0.06,0.22,0.16,0.34,0.18
		c0.65,0.08,1.2,0.41,1.72,0.77c0.21,0.14,0.34,0.17,0.56,0.02c0.61-0.41,1.3-0.63,2.01-0.79c0.13-0.03,0.25-0.13,0.38-0.2
		c0.05-0.03,0.11-0.07,0.17-0.08c0.71-0.12,1.41-0.29,2.12-0.33c0.83-0.05,1.67-0.01,2.51,0.04c0.43,0.02,0.86,0.14,1.28,0.24
		c0.2,0.05,0.38,0.19,0.58,0.26c0.43,0.16,0.88,0.28,1.3,0.48c0.64,0.3,1.22,0.7,1.65,1.29c0.31,0.42,0.65,0.83,0.9,1.29
		c0.2,0.36,0.29,0.78,0.44,1.18c0,0.01,0,0.03,0,0.04c0.31,0.67,0.15,1.4,0.28,2.1c0.05,0.29-0.02,0.6-0.02,0.9
		c0,2.74,0,5.48,0,8.21c0,0.55,0,1.09,0,1.64c0,0.22-0.21,0.49-0.42,0.51c-0.34,0.04-0.69,0.08-1.03,0.09
		c-0.76,0.01-1.52,0.01-2.29,0c-0.35-0.01-0.7-0.04-1.05-0.09c-0.41-0.06-0.53-0.31-0.49-0.71c0.04-0.44-0.01-0.88-0.02-1.32
		c0-0.15-0.02-0.29-0.02-0.44c0-2.28-0.01-4.56,0.02-6.84c0.01-0.37,0.05-0.74-0.02-1.11c-0.12-0.6-0.28-1.17-0.59-1.69
		c-0.06-0.1-0.11-0.21-0.19-0.3c-0.34-0.45-0.85-0.6-1.35-0.73c-0.89-0.23-1.77-0.17-2.64,0.11c-0.31,0.1-0.63,0.19-0.95,0.28
		c-0.26,0.08-0.5,0.53-0.47,0.78c0.04,0.4,0.07,0.81,0.07,1.22c0.01,3.38,0,6.76,0,10.13c0,0.05,0,0.1,0,0.15
		c-0.03,0.35-0.06,0.44-0.42,0.45C46.01,59.57,45.26,59.63,44.46,59.67z"/>
	<path fill="#1D87C8" d="M90.04,54.83c0.05-0.1,0.08-0.13,0.09-0.17c0.14-0.41,0.27-0.83,0.42-1.23c0.05-0.14,0.15-0.27,0.22-0.41
		c0.05-0.09,0.1-0.17,0.13-0.26c0.15-0.52,0.3-1.03,0.45-1.55c0.2-0.68,0.42-1.36,0.58-2.05c0.28-1.21,0.53-2.43,0.78-3.64
		c0.12-0.58,0.18-1.18,0.28-1.77c0.02-0.13,0.1-0.25,0.17-0.36c0.16-0.26,0.11-0.53,0.08-0.8c-0.01-0.05-0.04-0.11-0.05-0.16
		c-0.04-0.34,0.04-0.4,0.39-0.42c0.59-0.03,1.18-0.09,1.77-0.14c0.05,0,0.1-0.02,0.14-0.01c0.7,0.22,1.42,0.22,2.15,0.19
		c0.13-0.01,0.27,0.06,0.4,0.08c0.19,0.03,0.38,0.06,0.58,0.08c0.27,0.02,0.29,0.02,0.26,0.29c-0.05,0.45-0.1,0.9-0.18,1.35
		c-0.13,0.79-0.26,1.58-0.43,2.36c-0.2,0.93-0.44,1.86-0.67,2.78c-0.04,0.17-0.17,0.32-0.23,0.49c-0.05,0.12-0.06,0.26-0.08,0.39
		c-0.01,0.08,0.01,0.17-0.02,0.25c-0.34,0.99-0.68,1.98-1.05,2.96c-0.23,0.61-0.48,1.2-0.75,1.79c-0.37,0.8-0.76,1.59-1.17,2.38
		c-0.22,0.41-0.5,0.79-0.72,1.2c-0.59,1.12-1.38,2.11-2.18,3.08c-0.76,0.92-1.51,1.85-2.36,2.7c-0.95,0.94-1.98,1.8-3.03,2.63
		c-0.19,0.15-0.39,0.3-0.59,0.44c-0.16,0.12-0.31,0.11-0.49,0.03c-0.53-0.25-1.03-0.53-1.42-0.97c-0.04-0.05-0.12-0.09-0.12-0.14
		c-0.02-0.28-0.23-0.39-0.44-0.51c-0.1-0.06-0.17-0.19-0.22-0.3c-0.26-0.5-0.5-1-0.75-1.51c-0.07-0.14-0.04-0.23,0.09-0.34
		c1.56-1.23,3.03-2.55,4.29-4.09c0.07-0.09,0.14-0.18,0.21-0.27c0.12-0.15,0.12-0.31,0.01-0.47c-0.01-0.01-0.02-0.02-0.02-0.03
		c-0.03-0.35-0.31-0.58-0.43-0.89c-0.05-0.13-0.12-0.27-0.23-0.35c-0.36-0.3-0.53-0.72-0.75-1.11c-0.16-0.28-0.26-0.59-0.41-0.88
		c-0.08-0.15-0.21-0.28-0.28-0.44c-0.25-0.52-0.48-1.05-0.72-1.57c-0.04-0.09-0.09-0.19-0.16-0.27c-0.13-0.16-0.22-0.32-0.19-0.54
		c0.01-0.07-0.04-0.16-0.08-0.23c-0.08-0.15-0.21-0.28-0.27-0.43c-0.43-1.13-0.86-2.26-1.27-3.39c-0.15-0.41-0.23-0.84-0.34-1.26
		c-0.01-0.02-0.01-0.05-0.01-0.06c0.15-0.36-0.15-0.56-0.29-0.82c-0.1-0.2-0.15-0.42-0.21-0.64c-0.07-0.27-0.14-0.54-0.2-0.82
		c-0.12-0.54-0.22-1.08-0.34-1.62c-0.07-0.3-0.14-0.6-0.23-0.9c-0.05-0.16,0-0.23,0.14-0.25c0.42-0.05,0.83-0.1,1.25-0.14
		c0.67-0.05,1.33-0.1,2-0.13c0.39-0.02,0.79,0,1.18,0.01c0.41,0.01,0.82,0.03,1.22,0.07c0.07,0.01,0.18,0.1,0.18,0.14
		c-0.06,0.73,0.32,1.38,0.44,2.07c0.12,0.69,0.26,1.38,0.43,2.06c0.13,0.54,0.18,1.11,0.45,1.62c0.11,0.21,0.11,0.46,0.18,0.69
		c0.24,0.78,0.45,1.56,0.73,2.33c0.31,0.86,0.68,1.7,1.03,2.56c0.11,0.28,0.19,0.57,0.31,0.85C89.78,54.5,89.91,54.64,90.04,54.83z"
		/>
	<path fill="#1D87C8" d="M135.32,54.39c0-0.51,0.05-1,0.24-1.48c0.1-0.26,0.12-0.55,0.22-0.81c0.31-0.77,0.87-1.35,1.56-1.82
		c0.32-0.22,0.63-0.46,0.98-0.61c0.6-0.25,1.22-0.47,1.86-0.61c0.28-0.06,0.59-0.13,0.87-0.15c0.84-0.07,1.69-0.06,2.53-0.07
		c0.28,0,0.56,0.02,0.84,0.05c0.21,0.02,0.41,0.09,0.61,0.13c0.17,0.03,0.35,0.05,0.52,0.07c0.31,0.05,0.63,0.09,0.93,0.16
		c0.18,0.04,0.24-0.01,0.22-0.18c-0.04-0.43-0.02-0.87-0.14-1.27c-0.22-0.77-0.76-1.28-1.53-1.52c-0.48-0.14-0.95-0.29-1.44-0.39
		c-0.38-0.07-0.77-0.07-1.15-0.09c-0.03,0-0.07,0-0.08,0.02c-0.27,0.34-0.69,0.27-1.05,0.34c-1.04,0.2-1.98,0.64-2.87,1.19
		c-0.27,0.16-0.35,0.13-0.54-0.11c-0.13-0.16-0.31-0.27-0.46-0.42c-0.25-0.26-0.5-0.53-0.73-0.81c-0.11-0.14-0.18-0.31-0.28-0.46
		c-0.26-0.4-0.44-0.83-0.52-1.3c-0.04-0.2,0.03-0.34,0.2-0.46c0.73-0.55,1.54-0.96,2.37-1.34c0.39-0.18,0.81-0.34,1.23-0.43
		c0.77-0.16,1.51-0.45,2.31-0.49c0.8-0.04,1.6-0.11,2.4-0.04c0.77,0.06,1.53,0.12,2.27,0.33c0.89,0.25,1.76,0.57,2.53,1.09
		c0.57,0.39,1.07,0.86,1.43,1.46c0.22,0.37,0.53,0.69,0.7,1.07c0.21,0.5,0.34,1.04,0.47,1.57c0.1,0.39,0.16,0.79,0.23,1.19
		c0.01,0.07,0.02,0.14,0.02,0.21c0,3.25,0,6.5,0.01,9.75c0,0.22-0.08,0.34-0.29,0.4c-0.21,0.06-0.41,0.15-0.61,0.22
		c-0.24,0.08-0.48,0.21-0.72,0.23c-0.45,0.02-0.81,0.3-1.25,0.37c-0.43,0.06-0.85,0.21-1.27,0.29c-1.22,0.21-2.44,0.42-3.69,0.41
		c-0.39,0-0.79,0.06-1.18,0.03c-0.99-0.08-1.99-0.13-2.96-0.31c-1.03-0.19-2.05-0.48-2.85-1.2c-0.69-0.62-1.4-1.26-1.64-2.23
		C135.47,55.7,135.29,55.06,135.32,54.39z M146.59,54.01C146.59,54.01,146.59,54.01,146.59,54.01c0.01-0.43,0.01-0.86,0-1.29
		c0-0.06-0.06-0.17-0.12-0.18c-0.43-0.1-0.87-0.2-1.3-0.25c-0.87-0.09-1.75-0.19-2.63-0.02c-0.44,0.09-0.87,0.18-1.23,0.48
		c-1.11,0.92-0.64,2.74,0.61,3.16c1.06,0.36,2.12,0.41,3.2,0.26c0.45-0.06,0.89-0.15,1.33-0.24c0.05-0.01,0.12-0.12,0.12-0.19
		C146.59,55.16,146.59,54.59,146.59,54.01z"/>
	<path fill="#1D87C8" d="M78.36,53.21c0,1.62,0,3.24,0,4.86c0,0.34-0.01,0.35-0.31,0.47c-1.45,0.57-2.94,0.96-4.47,1.21
		c-0.96,0.16-1.93,0.32-2.91,0.31c-0.37,0-0.73,0.04-1.1,0.03c-0.64-0.01-1.29,0.01-1.92-0.09c-0.8-0.12-1.59-0.3-2.37-0.51
		c-0.79-0.21-1.46-0.66-2.04-1.23c-0.06-0.06-0.07-0.17-0.12-0.25c-0.06-0.09-0.11-0.21-0.19-0.25c-0.53-0.24-0.73-0.7-0.89-1.21
		c-0.04-0.13-0.13-0.24-0.18-0.36c-0.07-0.15-0.14-0.31-0.17-0.47c-0.3-1.36-0.19-2.68,0.51-3.9c0.51-0.9,1.27-1.56,2.19-2.02
		c0.45-0.22,0.93-0.39,1.4-0.58c0.09-0.03,0.19-0.04,0.29-0.05c0.31-0.03,0.63-0.04,0.95-0.07c0.06-0.01,0.14-0.02,0.18-0.06
		c0.15-0.19,0.37-0.17,0.56-0.18c1.4-0.09,2.8-0.07,4.19,0.21c0.24,0.05,0.48,0.13,0.72,0.19c0.27,0.07,0.29,0.02,0.32-0.24
		c0.07-0.67-0.07-1.3-0.45-1.84c-0.2-0.3-0.54-0.54-0.87-0.71c-0.38-0.19-0.82-0.27-1.24-0.4c-0.23-0.07-0.45-0.16-0.68-0.21
		c-0.23-0.04-0.48-0.06-0.71-0.05c-0.18,0.01-0.38,0-0.51,0.19c-0.03,0.05-0.14,0.06-0.21,0.07c-0.76,0.05-1.49,0.26-2.18,0.55
		c-0.48,0.2-0.94,0.48-1.41,0.72c-0.08,0.04-0.21,0.04-0.28-0.01c-0.99-0.55-1.73-1.31-2.03-2.44c-0.06-0.23-0.15-0.45-0.19-0.69
		c-0.02-0.09,0.02-0.24,0.09-0.29c0.39-0.29,0.77-0.59,1.19-0.84c0.73-0.44,1.52-0.77,2.34-1.01c0.15-0.04,0.31-0.05,0.46-0.08
		c0.09-0.02,0.17-0.06,0.26-0.08c0.12-0.03,0.24-0.06,0.36-0.09c0.07-0.01,0.15,0,0.21-0.03c0.37-0.24,0.8-0.22,1.2-0.28
		c0.49-0.06,1-0.11,1.5-0.09c1.01,0.04,2.03,0.06,3.01,0.35c0.18,0.05,0.34,0.18,0.52,0.22c0.83,0.17,1.61,0.48,2.29,0.98
		c0.37,0.28,0.72,0.6,1.02,0.95c0.31,0.35,0.56,0.75,0.81,1.14c0.12,0.19,0.17,0.43,0.25,0.64c0.06,0.16,0.14,0.32,0.19,0.49
		c0.08,0.25,0.13,0.51,0.2,0.76c0.02,0.09,0.01,0.19,0.05,0.27c0.2,0.45,0.22,0.93,0.22,1.4C78.35,50.15,78.35,51.68,78.36,53.21
		C78.35,53.21,78.35,53.21,78.36,53.21z M72.92,54.24c-0.01,0-0.03,0-0.04,0c0-0.48,0-0.96,0-1.43c0-0.15-0.05-0.23-0.2-0.27
		c-0.83-0.21-1.67-0.32-2.52-0.34c-0.4-0.01-0.81,0.04-1.22,0.08c-0.71,0.07-1.31,0.33-1.74,0.94c-0.33,0.47-0.42,0.95-0.2,1.46
		c0.34,0.78,0.98,1.23,1.8,1.42c0.87,0.2,1.74,0.21,2.62,0.07c0.41-0.07,0.81-0.17,1.22-0.22c0.2-0.03,0.27-0.11,0.27-0.29
		C72.92,55.18,72.92,54.71,72.92,54.24z"/>
	<path fill="#1D87C8" d="M119.67,51.1c-0.07,0.46-0.12,0.93-0.22,1.39c-0.13,0.59-0.26,1.18-0.44,1.75c-0.24,0.75-0.67,1.4-1.1,2.06
		c-0.4,0.61-0.87,1.15-1.43,1.62c-0.87,0.73-1.86,1.24-2.93,1.6c-0.84,0.29-1.72,0.43-2.61,0.48c-0.38,0.02-0.76,0.08-1.14,0.07
		c-0.63-0.01-1.27-0.01-1.89-0.17c-0.61-0.16-1.22-0.29-1.82-0.45c-0.37-0.1-0.71-0.26-0.98-0.55c-0.04-0.04-0.11-0.09-0.16-0.09
		c-0.35,0-0.61-0.21-0.87-0.39c-1.06-0.74-1.91-1.68-2.53-2.82c-0.43-0.79-0.74-1.61-0.88-2.5c-0.04-0.25-0.16-0.48-0.2-0.73
		c-0.17-0.91-0.21-1.83-0.05-2.74c0.11-0.64,0.2-1.29,0.38-1.92c0.24-0.87,0.6-1.7,1.13-2.44c0.96-1.33,2.14-2.4,3.68-3.03
		c0.43-0.17,0.87-0.23,1.3-0.33c0.15-0.03,0.28-0.14,0.42-0.21c0.06-0.03,0.12-0.08,0.18-0.1c0.71-0.19,1.43-0.22,2.16-0.22
		c0.48,0,0.96-0.04,1.43,0.01c0.62,0.07,1.23,0.2,1.85,0.31c0.41,0.39,0.98,0.43,1.48,0.62c0.69,0.26,1.3,0.62,1.89,1.05
		c0.62,0.45,1.09,1.04,1.55,1.62c0.38,0.49,0.65,1.08,0.92,1.65c0.2,0.41,0.37,0.86,0.47,1.3c0.16,0.69,0.35,1.39,0.34,2.11
		c-0.01,0.35,0,0.7,0,1.05C119.61,51.1,119.64,51.1,119.67,51.1z M110.13,54.59C110.13,54.59,110.13,54.59,110.13,54.59
		c1.03,0,2.06,0,3.09,0c0.62,0,1.24,0,1.86-0.05c0.69-0.06,1.25-0.36,1.58-1c0.05-0.09,0.1-0.19,0.16-0.27
		c0.21-0.28,0.27-0.59,0.25-0.94c-0.04-0.63-0.35-1.12-0.81-1.51c-0.21-0.18-0.47-0.3-0.72-0.42c-0.19-0.09-0.3-0.21-0.3-0.43
		c0-0.19-0.02-0.38-0.06-0.56c-0.09-0.39-0.28-0.74-0.53-1.06c-0.24-0.31-0.52-0.52-0.87-0.66c-0.43-0.18-0.87-0.26-1.34-0.25
		c-0.07,0-0.17-0.02-0.2-0.07c-0.11-0.16-0.2-0.33-0.29-0.51c-0.06-0.13-0.1-0.28-0.17-0.41c-0.22-0.38-0.48-0.74-0.89-0.96
		c-0.4-0.21-0.77-0.46-1.18-0.64c-0.3-0.14-0.63-0.21-0.94-0.29c-0.1-0.03-0.21-0.02-0.31,0c-0.18,0.05-0.35,0.13-0.54,0.17
		c-0.55,0.12-1.07,0.32-1.51,0.67c-1.12,0.9-1.47,2.12-1.45,3.5c0,0.09-0.04,0.2-0.1,0.26c-0.09,0.09-0.22,0.15-0.34,0.21
		c-0.67,0.39-1.19,0.92-1.42,1.69c-0.19,0.67-0.22,1.34,0.15,1.98c0.61,1.05,1.48,1.61,2.73,1.57
		C107.37,54.56,108.75,54.59,110.13,54.59z"/>
	<path fill="#1D87C8" d="M161.2,47.28c0,3.62,0,7.23,0,10.85c0,0.35,0,0.7,0,1.05c0,0.29-0.04,0.33-0.33,0.39
		c-0.05,0.01-0.11,0.03-0.17,0.03c-0.91,0.03-1.83,0.09-2.74,0.08c-0.67-0.01-1.33-0.1-2-0.16c-0.21-0.02-0.27-0.17-0.27-0.36
		c0-0.76-0.01-1.52-0.01-2.28c0-3.71,0-7.42,0-11.13c0-3.17,0-6.33,0.01-9.5c0-0.25,0.01-0.49,0.04-0.74
		c0.01-0.07,0.05-0.18,0.11-0.2c0.52-0.21,1.07-0.33,1.61-0.25c0.68,0.1,1.36,0.05,2.04,0.06c0.3,0.01,0.61-0.04,0.91-0.02
		c0.19,0.01,0.38,0.08,0.57,0.13c0.19,0.05,0.23,0.18,0.23,0.35c0,0.45,0,0.9,0,1.35C161.2,40.4,161.2,43.84,161.2,47.28z"/>
	<path fill="#1D87C8" d="M122.62,51.63c0-2.46,0-4.91,0-7.37c0-0.17,0.05-0.3,0.19-0.39c0.29-0.18,0.57-0.36,0.86-0.53
		c0.08-0.05,0.17-0.08,0.24-0.14c0.61-0.55,1.38-0.8,2.13-1.08c0.32-0.12,0.69-0.12,0.99-0.26c0.67-0.31,1.39-0.33,2.1-0.4
		c0.52-0.05,1.04-0.09,1.56-0.08c1.18,0.01,2.35,0.1,3.49,0.42c0.29,0.08,0.35,0.21,0.26,0.5c-0.09,0.3-0.2,0.61-0.18,0.92
		c0.02,0.5-0.08,0.97-0.26,1.42c-0.17,0.42-0.37,0.83-0.58,1.24c-0.1,0.19-0.26,0.36-0.41,0.52c-0.05,0.05-0.15,0.08-0.23,0.08
		c-0.4-0.04-0.81-0.09-1.21-0.14c-0.08-0.01-0.15-0.03-0.23-0.02c-0.73,0.08-1.47,0.14-2.2,0.24c-0.29,0.04-0.57,0.15-0.85,0.26
		c-0.09,0.04-0.16,0.15-0.21,0.25c-0.04,0.08-0.02,0.18-0.02,0.27c0,3.77,0,7.54,0,11.32c0,0.22,0,0.44,0.01,0.65
		c0,0.17-0.08,0.23-0.24,0.25c-1.21,0.15-2.43,0.16-3.65,0.09c-0.41-0.02-0.83-0.06-1.24-0.09c-0.17-0.01-0.28-0.08-0.28-0.27
		c0-0.16-0.03-0.32-0.03-0.48C122.62,56.4,122.62,54.01,122.62,51.63z"/>
</g>
</svg>
