<?xml version="1.0" encoding="utf-8"?>
<!-- Generator: Adobe Illustrator 27.6.1, SVG Export Plug-In . SVG Version: 6.00 Build 0)  -->
<svg version="1.1" id="Layer_1" xmlns="http://www.w3.org/2000/svg" xmlns:xlink="http://www.w3.org/1999/xlink" x="0px" y="0px"
	 viewBox="0 0 191.36 102.43" enable-background="new 0 0 191.36 102.43" xml:space="preserve">
<g>
	<path fill="#1D87C8" d="M135.08,58.16c0,0.35,0,0.7,0,1.05c-0.01,0.05-0.02,0.09-0.03,0.14c-0.1,0.77-0.34,1.49-0.77,2.14
		c-1.08,1.66-2.63,2.48-4.6,2.49c-3.49,0.01-6.98,0-10.48,0c-0.17,0-0.34-0.01-0.51-0.03c-2.21-0.25-3.53-2.66-2.52-4.65
		c0.61-1.2,1.62-1.8,2.96-1.81c2.29-0.02,4.58,0,6.88-0.01c0.47,0,0.69-0.41,0.46-0.81c-1.7-2.85-3.4-5.71-5.1-8.56
		c-0.1-0.16-0.1-0.16-0.2,0c-1.82,3.14-3.63,6.28-5.45,9.42c-0.88,1.52-1.76,3.03-2.63,4.55c-0.23,0.4-0.51,0.76-0.86,1.05
		c-0.72,0.6-1.56,0.83-2.48,0.83c-4.17,0-8.35,0-12.52,0c-0.33,0-0.66,0-0.98-0.02c-1.28-0.07-2.39-0.54-3.32-1.42
		c-1.12-1.06-1.66-2.37-1.66-3.9c0-5.7,0-11.41,0-17.11c0-0.14,0.01-0.28,0.02-0.41c0.13-1.21,0.72-2.12,1.76-2.75
		c0.41-0.25,0.86-0.37,1.33-0.46c0.29,0,0.57,0,0.86,0c0.03,0.01,0.06,0.02,0.09,0.02c1.29,0.22,2.2,0.92,2.75,2.1
		c0.23,0.49,0.3,1.02,0.3,1.56c0,3.06,0,6.12,0,9.18c0,1.55,0,3.09,0,4.64c0,0.87,0.61,1.47,1.47,1.47c2.42,0,4.84,0.01,7.26-0.01
		c0.5,0,0.93-0.22,1.2-0.68c2.34-4.05,4.68-8.1,7.03-12.15c0.79-1.37,1.57-2.75,2.39-4.11c0.87-1.44,2.6-2.19,4.25-1.88
		c1.27,0.24,2.22,0.94,2.87,2.05c2.55,4.27,5.09,8.55,7.65,12.82c0.59,0.98,1.15,1.99,1.79,2.94c0.26,0.38,0.44,0.81,0.58,1.25
		C134.96,57.45,135.02,57.8,135.08,58.16z"/>
	<path fill="#1D87C8" d="M85.11,37.9c0.41,0.07,0.81,0.17,1.18,0.37c1.23,0.68,1.92,1.72,1.93,3.13c0.01,6.53,0.01,13.06,0.01,19.59
		c0,1.79-1.35,3.29-3.13,3.51c-1.92,0.23-3.7-1.16-3.94-3.06c-0.02-0.16-0.03-0.33-0.03-0.49c0-6.49,0-12.99,0-19.48
		c0-1.81,1.25-3.27,3.04-3.55c0.03,0,0.05-0.01,0.07-0.02C84.53,37.9,84.82,37.9,85.11,37.9z"/>
	<path fill="#1D87C8" d="M69.81,54.97c-1.55,0-3.1,0-4.65,0c-0.67,0-1.23,0.46-1.39,1.1c-0.04,0.15-0.05,0.3-0.05,0.46
		c0,1.48,0,2.95,0,4.43c0,1.78-1.3,3.26-3.07,3.51c-1.96,0.27-3.79-1.15-4-3.12c-0.02-0.14-0.02-0.29-0.02-0.43
		c0-2.59-0.02-5.18,0.01-7.76c0.02-2.11,1-3.69,2.86-4.7c0.71-0.39,1.48-0.57,2.29-0.57c4.22,0,8.44,0,12.66,0
		c1.71,0,3.21,1.34,3.44,3.02c0.26,1.97-1.02,3.7-2.99,4.02c-0.2,0.03-0.4,0.04-0.6,0.04C72.81,54.97,71.31,54.97,69.81,54.97
		C69.81,54.97,69.81,54.97,69.81,54.97z"/>
	<path fill="#1D87C8" d="M67.93,38.63c2.67,0,5.34,0,8.01,0c1.79,0,3.22,1.19,3.56,2.94c0.37,1.95-1.08,3.9-3.06,4.12
		c-0.15,0.02-0.3,0.03-0.44,0.03c-5.38,0-10.77,0-16.15,0c-1.58,0-2.94-1.02-3.41-2.53c-0.64-2.08,0.8-4.28,2.97-4.53
		c0.17-0.02,0.35-0.03,0.52-0.03C62.6,38.63,65.26,38.63,67.93,38.63z"/>
</g>
</svg>
