<?xml version="1.0" encoding="utf-8"?>
<!-- Generator: Adobe Illustrator 27.6.1, SVG Export Plug-In . SVG Version: 6.00 Build 0)  -->
<svg version="1.1" id="Layer_1" xmlns="http://www.w3.org/2000/svg" xmlns:xlink="http://www.w3.org/1999/xlink" x="0px" y="0px"
	 viewBox="0 0 191.36 102.43" enable-background="new 0 0 191.36 102.43" xml:space="preserve">
<g>
	<g>
		<path fill="#1D87C8" d="M97.8,53.51H77.08c0.08,0.49,0.13,0.93,0.22,1.36c0.87,3.91,3.91,6.73,7.88,7.3
			c3.5,0.5,6.69-0.26,9.48-2.49c0.59-0.47,1.11-1.04,1.67-1.56c0.01,0.05,0.02,0.12,0.02,0.19c0,0.92,0.01,1.84-0.01,2.76
			c0,0.13-0.08,0.31-0.19,0.39c-2.28,1.84-4.88,2.9-7.8,3.16c-2.77,0.24-5.43-0.16-7.88-1.51c-3.36-1.85-5.32-4.71-5.9-8.49
			c-0.44-2.9-0.13-5.72,1.2-8.36c1.68-3.35,4.45-5.26,8.11-5.9c2.36-0.42,4.68-0.27,6.9,0.68c3.58,1.52,5.75,4.25,6.69,7.99
			C97.84,50.49,97.84,51.98,97.8,53.51 M77.13,51.13h17.92c-0.16-3.93-3.09-8.53-8.67-8.62C80.49,42.42,77.47,46.67,77.13,51.13"/>
	</g>
	<g>
		<path fill="#1D87C8" d="M70.14,64.1h-2.44v-0.39c0-4.05,0-8.11,0-12.16c0-1.63-0.22-3.22-0.93-4.72
			c-1.15-2.43-3.11-3.76-5.72-4.19c-4.34-0.72-8.37,1.54-10.51,5.15c-0.09,0.16-0.12,0.38-0.12,0.58c-0.01,5.1,0,10.2,0,15.29v0.44
			h-2.49V40.74h2.48v3.71c0.23-0.26,0.39-0.44,0.55-0.61c2.65-2.73,5.89-3.91,9.67-3.66c1.89,0.13,3.67,0.63,5.26,1.69
			c2.07,1.38,3.24,3.38,3.82,5.75c0.29,1.16,0.42,2.34,0.42,3.53c0,4.17,0,8.33,0,12.5V64.1z"/>
	</g>
	<g>
		<path fill="#1D87C8" d="M111.1,53.97c-0.68,0.81-1.35,1.61-2.02,2.41c-2.11,2.52-4.23,5.04-6.34,7.56
			c-0.08,0.09-0.22,0.17-0.33,0.17c-0.95,0.01-1.91,0.01-2.86,0.01c-0.03,0-0.06-0.02-0.14-0.04c3.4-3.96,6.78-7.9,10.19-11.88
			c-3.28-3.81-6.56-7.61-9.87-11.46c0.16-0.01,0.26-0.02,0.36-0.02c0.89,0,1.77-0.01,2.66,0.01c0.15,0,0.35,0.09,0.45,0.21
			c2.67,3.09,5.34,6.19,8,9.29c0.06,0.07,0.12,0.13,0.2,0.22c0.56-0.65,1.11-1.3,1.65-1.94c2.15-2.52,4.29-5.04,6.44-7.56
			c0.09-0.11,0.25-0.21,0.38-0.21c0.93-0.02,1.86-0.01,2.8-0.01c0.04,0,0.08,0.01,0.2,0.03c-3.33,3.83-6.63,7.63-9.96,11.45
			c3.41,3.95,6.81,7.9,10.27,11.92c-0.46,0-0.84,0-1.21,0c-0.6,0-1.19-0.01-1.79,0.01c-0.24,0.01-0.39-0.08-0.54-0.26
			c-2.82-3.28-5.64-6.55-8.46-9.82C111.18,54.03,111.16,54.02,111.1,53.97"/>
	</g>
	<g>
		<path fill="#1D87C8" d="M126.43,37.73h2.51v2.97h13.84v2.36h-13.8c-0.01,0.12-0.03,0.19-0.03,0.27c0,3.53-0.01,7.05,0.02,10.58
			c0.01,1.36,0.24,2.7,0.72,3.99c0.8,2.15,2.3,3.56,4.54,4.1c2.37,0.57,4.71,0.48,6.94-0.56c0.69-0.32,1.3-0.83,1.94-1.26
			c0.1-0.07,0.18-0.15,0.33-0.28c0,0.96,0.01,1.85-0.01,2.74c0,0.09-0.11,0.21-0.2,0.28c-1,0.76-2.15,1.2-3.37,1.45
			c-2.15,0.44-4.31,0.47-6.44-0.07c-3.29-0.82-5.35-2.95-6.34-6.16c-0.47-1.54-0.64-3.12-0.64-4.72c-0.01-5.11,0-10.22,0-15.33
			V37.73z"/>
	</g>
</g>
</svg>
