<?xml version="1.0" encoding="utf-8"?>
<!-- Generator: Adobe Illustrator 27.6.1, SVG Export Plug-In . SVG Version: 6.00 Build 0)  -->
<svg version="1.1" id="Layer_1" xmlns="http://www.w3.org/2000/svg" xmlns:xlink="http://www.w3.org/1999/xlink" x="0px" y="0px"
	 viewBox="0 0 191.36 102.43" enable-background="new 0 0 191.36 102.43" xml:space="preserve">
<g>
	<g>
		<path fill="#1D87C8" d="M93.08,56.5c0.12,0.63-0.04,0.93-0.71,0.93c-2.19-0.02-4.38,0-6.57-0.03c-0.23,0-0.45-0.29-0.67-0.44
			c0.18-0.2,0.33-0.51,0.56-0.6c1.49-0.56,1.89-1.07,1.91-2.67c0.05-2.85,0.1-5.7,0.13-8.55c0.01-0.54-0.09-1.07-0.1-1.61
			c-0.03-1.18-0.65-1.85-1.74-2.2c-0.28-0.09-0.48-0.4-0.72-0.61c0.28-0.12,0.56-0.34,0.84-0.34c2.16-0.03,4.31-0.03,6.47,0
			c0.25,0,0.49,0.24,0.73,0.36c-0.21,0.18-0.39,0.46-0.63,0.52c-1.1,0.28-1.86,0.92-1.92,2.07c-0.08,1.61-0.02,3.22-0.02,4.98
			c0.8,0,1.59,0,2.37,0c1.71,0,3.43-0.02,5.14,0.01c0.62,0.01,0.93-0.13,0.9-0.84c-0.05-1.27,0-2.54-0.03-3.81
			c-0.03-1.31-0.56-1.94-1.79-2.37c-0.29-0.1-0.51-0.41-0.76-0.63c0.29-0.11,0.58-0.3,0.87-0.3c2.19-0.03,4.38-0.03,6.57,0
			c0.25,0,0.49,0.23,0.73,0.36c-0.21,0.18-0.39,0.45-0.63,0.52c-1.38,0.43-1.97,1.08-1.99,2.53c-0.03,3.43-0.01,6.85,0,10.28
			c0,0.28,0.07,0.57,0.12,0.84c0.14,0.7,0.49,1.26,1.24,1.4c0.8,0.16,1.36-0.3,1.71-0.94c0.49-0.88,0.95-1.79,1.32-2.73
			c1.53-3.82,3.02-7.66,4.56-11.48c0.12-0.31,0.44-0.54,0.66-0.8c0.23,0.26,0.55,0.48,0.68,0.79c1.78,4.2,3.52,8.41,5.29,12.62
			c0.26,0.61,0.49,1.3,0.94,1.74c0.42,0.42,1.13,0.8,1.67,0.76c0.39-0.03,0.83-0.75,1.06-1.24c0.2-0.44,0.2-0.99,0.2-1.49
			c0.02-3.14,0.02-6.28,0-9.42c-0.01-1.83-0.4-2.32-2.12-2.88c-0.19-0.06-0.33-0.29-0.49-0.45c0.17-0.14,0.34-0.41,0.5-0.4
			c3.22,0.1,6.48-0.39,9.66,0.38c2.78,0.67,4.24,3.19,3.39,5.7c-0.53,1.57-2.21,2.7-4.18,2.77c-1.01,0.04-2.03,0.05-3.05,0.02
			c-0.59-0.02-0.78,0.21-0.76,0.78c0.03,1.27-0.01,2.54,0.03,3.81c0.06,1.55,0.55,2.11,2.04,2.57c0.23,0.07,0.38,0.38,0.57,0.57
			c-0.24,0.14-0.47,0.4-0.71,0.4c-4.25,0.02-8.5,0.02-12.75,0c-0.25,0-0.49-0.24-0.74-0.37c0.21-0.18,0.39-0.43,0.64-0.52
			c1.13-0.45,1.51-1.17,1.15-2.32c-1.05-3.4-1.05-3.4-4.55-3.4c-2,0-2.01,0-2.75,1.83c-0.19,0.47-0.37,0.95-0.5,1.43
			c-0.33,1.19,0.04,1.93,1.14,2.49c0.2,0.1,0.31,0.37,0.46,0.56c-0.2,0.11-0.4,0.31-0.6,0.31c-3.62,0.02-7.23,0.02-10.85-0.01
			c-0.19,0-0.52-0.28-0.53-0.44c-0.01-0.18,0.23-0.49,0.43-0.56c1.81-0.65,2.1-1.03,2.12-2.98c0.01-1.11-0.02-2.22,0.01-3.33
			c0.02-0.56-0.16-0.79-0.75-0.79c-2.32,0.02-4.63,0.02-6.95,0c-0.56,0-0.8,0.16-0.78,0.76c0.04,1.17-0.01,2.35,0.02,3.52
			C90.63,55.49,91.15,56.1,93.08,56.5 M124.5,48.15c1.81,0.23,3.38,0.05,4.43-1.55c0.7-1.06,0.64-2.7-0.14-3.76
			c-1.09-1.5-2.64-1.49-4.29-1.34V48.15z M108.54,49.66h4.29c-0.73-1.77-1.41-3.43-2.2-5.34C109.87,46.26,109.22,47.92,108.54,49.66
			"/>
	</g>
	<g>
		<path fill="#1D87C8" d="M42.88,60.43V42.05c0.34-0.02,0.67-0.07,1.01-0.07c4.66,0,9.32,0.01,13.99-0.02
			c0.8-0.01,1.1,0.18,1.09,1.05c-0.04,5.49-0.03,10.97,0,16.46c0,0.78-0.21,1.03-1.01,1.02c-4.73-0.04-9.45-0.02-14.18-0.02
			C43.5,60.47,43.22,60.45,42.88,60.43 M49.02,48.05h3.83c0.03,0.57,0.05,1.08,0.08,1.58h2.3c0-1.1-0.02-2.11,0.01-3.12
			c0.01-0.51-0.22-0.66-0.69-0.66c-2.44,0.01-4.88-0.01-7.32,0.03c-0.21,0-0.6,0.37-0.6,0.57c-0.04,3.17-0.04,6.34,0,9.51
			c0,0.2,0.34,0.56,0.52,0.56c2.5,0.04,5.01,0.04,7.51,0c0.19,0,0.54-0.34,0.55-0.54c0.05-1.07,0.03-2.14,0.03-3.23h-2.31
			c-0.03,0.58-0.05,1.08-0.08,1.61h-3.82V48.05z"/>
	</g>
	<g>
		<path fill="#1D87C8" d="M147.48,39.9c0,2.32,0.01,4.41-0.02,6.5c0,0.24-0.25,0.48-0.38,0.72c-0.21-0.2-0.53-0.37-0.6-0.61
			c-0.49-1.7-1.17-3.28-2.5-4.51c-1.45-1.35-3.16-1.73-5.02-1.17c-2.48,0.74-3.29,3.86-1.4,5.62c0.86,0.8,1.98,1.33,3.03,1.89
			c1.65,0.88,3.41,1.55,4.99,2.53c2.16,1.35,3.19,3.45,2.83,6.01c-0.38,2.71-1.96,4.62-4.58,5.43c-2.77,0.86-5.54,0.92-8.19-0.58
			c-1.03-0.58-1.4-0.45-2.1,0.39c-0.14,0.16-0.4,0.21-0.61,0.32c-0.08-0.22-0.24-0.43-0.24-0.65c-0.02-2.09-0.01-4.18-0.01-6.32
			c0.49-0.18,0.75-0.12,0.98,0.45c0.55,1.3,1.06,2.67,1.86,3.81c1.65,2.36,5.62,2.87,7.63,1.13c2.11-1.84,1.99-5.1-0.34-6.82
			c-0.91-0.67-1.95-1.17-2.95-1.71c-0.98-0.52-2-0.96-2.97-1.49c-2.66-1.46-3.66-3.69-2.99-6.61c0.57-2.5,2.87-4.4,5.53-4.62
			c1.72-0.14,3.33,0.16,4.88,0.93c0.8,0.4,1.68,1.03,2.24-0.38C146.62,40,147.09,40.01,147.48,39.9"/>
	</g>
	<g>
		<path fill="#1D87C8" d="M83.78,57.6c-0.83,2.6-2.55,4.33-5.18,4.91c-3.52,0.79-6.92,0.3-9.85-1.92c-3.54-2.68-4.65-6.44-4.29-10.7
			c0.29-3.45,1.69-6.41,4.67-8.32c3.45-2.21,7.14-2.84,11-0.97c0.31,0.15,0.64,0.28,0.96,0.4c0.76,0.29,1.41,0.26,1.85-0.58
			c0.1-0.19,0.43-0.25,0.65-0.37c0.1,0.21,0.29,0.41,0.29,0.61c0.02,2,0.03,4,0,5.99c0,0.22-0.24,0.43-0.36,0.65
			c-0.26-0.17-0.62-0.28-0.75-0.51c-0.5-0.95-0.82-2-1.4-2.9c-2.65-4.11-6.9-4.39-10.12-0.7c-3.65,4.17-3.46,12.39,0.29,16.49
			c3.22,3.52,8.72,2.54,10.73-1.41C82.6,57.61,82.96,57.25,83.78,57.6"/>
	</g>
	<g>
		<path fill="#1D87C8" d="M128.37,60.92c0.32,0.94-0.23,0.92-0.81,0.92c-4.76,0-9.52,0-14.28,0c-8.66,0-17.32,0-25.98,0H86.2
			c-0.43-0.81-0.03-0.92,0.6-0.92c4.28,0.01,8.57,0.01,12.85,0c9.33,0,18.66,0,27.98,0C127.89,60.92,128.13,60.92,128.37,60.92"/>
	</g>
</g>
</svg>
