<?xml version="1.0" encoding="utf-8"?>
<!-- Generator: Adobe Illustrator 27.6.1, SVG Export Plug-In . SVG Version: 6.00 Build 0)  -->
<svg version="1.1" id="Layer_1" xmlns="http://www.w3.org/2000/svg" xmlns:xlink="http://www.w3.org/1999/xlink" x="0px" y="0px"
	 viewBox="0 0 191.36 102.43" enable-background="new 0 0 191.36 102.43" xml:space="preserve">
<g>
	<g>
		<path fill="#1D87C8" d="M62.79,49.48c0.65-6.53,4.93-12.53,12.59-12.01c1.12,0.08,2.23,0.3,3.29,0.66
			c4.46,1.52,6.69,5.02,7.6,9.39c0.76,3.6,0.51,7.18-1.04,10.56c-2.06,4.49-6.86,7.35-11.8,6.81C65.55,64.05,62.1,56.46,62.79,49.48
			 M64.93,51.2c0,2.61,0.58,4.98,1.7,6.91c3.6,6.24,12.28,6.41,15.87,0.17c2.7-4.7,2.69-9.66-0.08-14.34
			c-3.54-5.97-11.9-5.92-15.58-0.03C65.44,46.14,64.93,48.61,64.93,51.2"/>
	</g>
	<g>
		<path fill="#1D87C8" d="M117.61,64.91c-1.13-0.11-2.24-0.33-3.32-0.64c-4.35-1.26-6.82-4.81-6.3-9.05h2.17
			c0,0.39-0.02,0.77,0,1.16c0.13,2.46,1.24,4.33,3.52,5.36c2.81,1.28,5.73,1.47,8.68,0.56c0.72-0.22,1.43-0.61,2.02-1.06
			c2.82-2.15,2.48-6.38-0.76-7.79c-1.99-0.86-4.21-1.19-6.31-1.79c-1.69-0.48-3.43-0.84-5.03-1.52c-5.07-2.14-4.45-8.58-0.84-10.97
			c3.52-2.33,9.96-2.28,13.35,0.24c2.16,1.61,3.02,3.85,3.14,6.64c-0.63,0-1.23,0.03-1.83-0.02c-0.18-0.02-0.47-0.27-0.48-0.44
			c-0.14-1.79-0.77-3.32-2.23-4.45c-1.58-1.23-3.45-1.66-5.38-1.58c-1.44,0.06-2.93,0.32-4.26,0.82c-1.87,0.71-2.81,2.23-2.8,4.28
			c0.01,2,1.19,3.22,2.93,3.8c2.08,0.69,4.24,1.11,6.37,1.64c0.71,0.18,1.43,0.31,2.14,0.51c3.95,1.07,6.95,3.93,6.13,8.34
			c-0.35,1.89-1.82,3.52-3.44,4.48C122.81,64.77,120.19,65.15,117.61,64.91"/>
	</g>
	<g>
		<path fill="#1D87C8" d="M85.9,38.07c0.69,0,1.33-0.1,1.91,0.04c0.31,0.07,0.65,0.5,0.77,0.84c2.08,5.59,4.12,11.19,6.17,16.78
			c0.69,1.87,1.38,3.74,2.15,5.83c0.21-0.5,0.36-0.81,0.48-1.12c2.55-6.89,5.09-13.77,7.64-20.66c0.69-1.86,0.69-1.86,2.92-1.63
			c-0.07,0.27-0.11,0.54-0.2,0.79c-3.04,8.18-6.09,16.35-9.11,24.53c-0.44,1.19-2.94,1.31-3.39,0.09
			c-3.02-8.26-6.09-16.5-9.14-24.75C86.03,38.61,85.99,38.4,85.9,38.07"/>
	</g>
</g>
</svg>
