<?xml version="1.0" encoding="utf-8"?>
<!-- Generator: Adobe Illustrator 27.6.1, SVG Export Plug-In . SVG Version: 6.00 Build 0)  -->
<svg version="1.1" id="Layer_1" xmlns="http://www.w3.org/2000/svg" xmlns:xlink="http://www.w3.org/1999/xlink" x="0px" y="0px"
	 viewBox="0 0 191.36 102.43" enable-background="new 0 0 191.36 102.43" xml:space="preserve">
<g>
	<path fill="#1D87C8" d="M20.44,62.05c17.26,0,34.52,0,51.82,0c0.06,0.85-0.01,1.69,0.04,2.57c-0.19,0.02-0.36,0.06-0.53,0.06
		c-0.83,0.01-1.66,0.01-2.48,0.01c-16.14,0-32.28,0-48.41,0c-0.08,0-0.17,0-0.25,0c-0.17,0-0.27-0.07-0.27-0.25
		c0.01-0.76,0.01-1.51,0.02-2.27C20.37,62.14,20.4,62.12,20.44,62.05z"/>
	<path fill="#1D87C8" d="M20.36,56.05c0.44-0.09,51.44-0.1,51.9-0.01c0.01,0.33,0.02,0.68,0.03,1.02c0.01,0.41,0.01,0.81,0.03,1.22
		c0.01,0.17-0.06,0.27-0.22,0.29c-0.14,0.02-0.28,0.03-0.42,0.03c-1.12,0-2.25,0-3.37,0c-15.5,0-30.99,0-46.49,0
		c-0.46,0-0.92-0.01-1.42-0.02C20.31,57.7,20.37,56.87,20.36,56.05z"/>
	<path fill="#1D87C8" d="M89.05,55.67c0,3.01,0,6.03,0,9.08c-0.87,0.09-1.71,0.01-2.57,0.06c0-4.08,0-8.1,0-12.16
		c0.09-0.02,0.18-0.04,0.27-0.04c1.08,0,2.16-0.01,3.24,0c0.42,0,0.4,0.01,0.52,0.39c0.22,0.68,0.45,1.35,0.68,2.03
		c0.58,1.68,1.16,3.36,1.75,5.03c0.05,0.13,0.12,0.25,0.18,0.38c0.04,0,0.07-0.01,0.11-0.01c0.89-2.58,1.79-5.17,2.7-7.81
		c1.26-0.01,2.54-0.02,3.82,0.01c0.1,0.39,0.13,11.61,0.03,12.14c-0.81,0-1.63,0-2.48,0c-0.01-0.15-0.03-0.28-0.03-0.42
		c0-2.72,0.01-5.43,0.01-8.15c0-0.16-0.03-0.32-0.11-0.5c-0.04,0.06-0.09,0.12-0.11,0.19c-0.54,1.63-1.08,3.27-1.62,4.9
		c-0.42,1.25-0.85,2.49-1.26,3.74c-0.06,0.18-0.17,0.26-0.33,0.26c-0.5,0.01-1.01,0.01-1.52,0.01c-0.17,0-0.23-0.1-0.28-0.25
		c-0.27-0.85-0.56-1.7-0.84-2.55c-0.55-1.72-1.1-3.44-1.65-5.15c-0.13-0.4-0.25-0.79-0.38-1.19C89.14,55.66,89.09,55.67,89.05,55.67
		z"/>
	<path fill="#1D87C8" d="M144.77,60.95c0.01-0.92-0.02-1.83-0.02-2.75c0-0.92,0-1.85,0-2.77c0-0.92,0.01-1.84,0.02-2.8
		c0.88,0,1.71,0,2.54,0c0.1,0.38,0.09,11.77-0.01,12.16c-0.23,0-0.46,0-0.7,0c-0.77,0-1.54,0-2.32,0.01c-0.25,0-0.4-0.07-0.54-0.3
		c-1.19-2.01-2.41-4.01-3.61-6.01c-0.42-0.71-0.84-1.42-1.26-2.13c-0.03-0.04-0.07-0.08-0.14-0.11c-0.06,0.71-0.04,1.42-0.04,2.12
		c0,0.71,0,1.43,0,2.14c0,0.7,0,1.4,0,2.1c0,0.71,0,1.42,0,2.16c-0.88,0-1.7,0-2.57,0c-0.02-0.17-0.04-0.33-0.04-0.49
		c0-3.74,0.01-7.48,0.02-11.21c0-0.14,0.01-0.27,0.02-0.44c1.19,0,2.35,0,3.52,0c1.66,2.78,3.33,5.56,4.99,8.34
		C144.69,60.97,144.73,60.96,144.77,60.95z"/>
	<path fill="#1D87C8" d="M139,49.85c-0.84,0-1.66,0-2.54,0c-0.03-4.05-0.01-8.09-0.02-12.16c0.17-0.01,0.31-0.02,0.44-0.02
		c0.88,0,1.77,0,2.65-0.01c0.29,0,0.48,0.08,0.64,0.35c0.77,1.32,1.58,2.61,2.36,3.92c0.74,1.24,1.47,2.48,2.21,3.71
		c0.08,0.14,0.18,0.27,0.31,0.39c-0.01-2.78,0.02-5.55,0.02-8.35c0.9,0,1.73,0,2.57,0c0.08,0.27,0.11,11.57,0.03,12.17
		c-1.13,0.04-2.27,0-3.41,0c-1.72-2.87-3.43-5.71-5.14-8.57c-0.16,0.1-0.11,0.24-0.11,0.35c0,2.67,0.01,5.35,0.01,8.02
		C139.02,49.69,139.01,49.74,139,49.85z"/>
	<path fill="#1D87C8" d="M92.17,50.18c-1.25-0.02-2.4-0.36-3.48-0.91c-0.57-0.29-1.04-0.73-1.47-1.23
		c-0.66-0.78-1.07-1.67-1.32-2.64c-0.17-0.68-0.23-1.37-0.17-2.08c0.06-0.64,0.11-1.29,0.36-1.89c0.21-0.5,0.44-1,0.72-1.46
		c0.58-0.93,1.4-1.61,2.4-2.02c0.56-0.23,1.16-0.44,1.76-0.53c2-0.3,3.87,0.08,5.43,1.42c0.84,0.72,1.45,1.62,1.77,2.7
		c0.35,1.17,0.43,2.37,0.2,3.57c-0.32,1.66-1.12,3.04-2.55,3.99c-0.55,0.36-1.17,0.62-1.81,0.76
		C93.41,49.99,92.79,50.07,92.17,50.18z M88.42,43.73c-0.01,0.99,0.26,1.89,0.72,2.5c1.09,1.44,2.92,1.71,4.27,1.23
		c0.96-0.34,1.67-0.96,2.07-1.9c0.47-1.11,0.48-2.24,0.1-3.36c-0.25-0.74-0.69-1.39-1.38-1.8c-1-0.59-2.09-0.71-3.21-0.41
		c-0.74,0.19-1.34,0.61-1.8,1.23C88.62,41.96,88.41,42.81,88.42,43.73z"/>
	<path fill="#1D87C8" d="M127.96,38.91c-0.58,0.67-1.15,1.33-1.75,2.01c-0.12-0.08-0.21-0.13-0.29-0.2
		c-0.77-0.64-1.65-0.92-2.65-0.87c-0.5,0.03-1.01,0.07-1.48,0.28c-1.04,0.47-1.76,1.22-2.04,2.35c-0.27,1.08-0.27,2.14,0.2,3.16
		c0.56,1.2,1.52,1.87,2.83,2.03c0.94,0.12,1.84-0.04,2.71-0.43c0.13-0.06,0.27-0.1,0.27-0.28c0-0.6,0-1.19,0-1.84
		c-0.72,0-1.4,0-2.11,0c0-0.84,0-1.63,0-2.45c1.54-0.03,3.05-0.06,4.58,0c0.02,0.15,0.04,0.26,0.04,0.36c0,1.85-0.01,3.7,0,5.54
		c0,0.34-0.12,0.51-0.42,0.63c-1.44,0.54-2.89,0.97-4.45,0.96c-1.32-0.01-2.56-0.33-3.7-0.96c-0.86-0.48-1.5-1.21-1.97-2.07
		c-0.96-1.75-1.09-3.59-0.54-5.48c0.4-1.38,1.21-2.49,2.42-3.27c0.71-0.46,1.5-0.75,2.34-0.9c1.31-0.23,2.6-0.18,3.87,0.21
		C126.62,37.94,127.35,38.28,127.96,38.91z"/>
	<path fill="#1D87C8" d="M100.78,37.66c0.48,0,0.92,0,1.35,0c1.26,0,2.53,0,3.79,0.02c0.75,0.01,1.47,0.22,2.15,0.53
		c0.96,0.45,1.45,1.26,1.66,2.25c0.18,0.82,0.14,1.64-0.22,2.43c-0.35,0.75-0.85,1.34-1.65,1.63c-0.2,0.07-0.39,0.15-0.61,0.23
		c0.98,1.68,1.94,3.35,2.93,5.05c-0.11,0.03-0.2,0.07-0.29,0.07c-0.79,0.01-1.57,0-2.36,0.01c-0.26,0-0.43-0.08-0.56-0.34
		c-0.65-1.32-1.32-2.62-1.97-3.94c-0.29-0.58-0.32-0.62-0.98-0.61c-0.21,0-0.41,0.02-0.66,0.04c0,1.61,0,3.19,0,4.75
		c-0.34,0.13-2.15,0.16-2.59,0.04C100.78,45.79,100.78,41.75,100.78,37.66z M103.4,42.72c0.88,0,1.7,0.07,2.52-0.05
		c0.15-0.02,0.3-0.06,0.44-0.12c0.5-0.19,0.77-0.61,0.77-1.18c0-0.65-0.22-1.03-0.77-1.2c-0.36-0.12-0.73-0.2-1.1-0.23
		c-0.5-0.04-1.01-0.02-1.51-0.01c-0.12,0-0.24,0.04-0.36,0.07C103.4,40.91,103.4,41.79,103.4,42.72z"/>
	<path fill="#1D87C8" d="M43.16,40.36c0-0.87,0-1.7,0-2.53c0.45-0.11,28.48-0.13,29.09-0.02c0,0.82,0,1.65,0,2.53
		c-0.17,0.02-0.35,0.05-0.52,0.05c-1.25,0-2.5,0-3.75,0c-8.1,0-16.19,0-24.29,0C43.52,40.39,43.34,40.37,43.16,40.36z"/>
	<path fill="#1D87C8" d="M117.56,52.63c0.09-0.01,0.16-0.02,0.23-0.02c1.63,0,3.25-0.01,4.88,0.02c0.73,0.01,1.44,0.18,2.11,0.5
		c0.96,0.46,1.51,1.23,1.71,2.25c0.12,0.63,0.14,1.27-0.03,1.91c-0.29,1.12-0.93,1.89-2.04,2.25c-0.12,0.04-0.23,0.09-0.4,0.16
		c0.99,1.69,1.96,3.35,2.96,5.06c-0.18,0.01-0.29,0.03-0.41,0.03c-0.74,0-1.49-0.01-2.23,0.01c-0.29,0.01-0.46-0.08-0.59-0.35
		c-0.61-1.21-1.24-2.41-1.86-3.62c-0.03-0.05-0.04-0.1-0.07-0.15c-0.15-0.25-0.3-0.5-0.46-0.74c-0.4-0.02-0.81-0.06-1.26,0.03
		c0,1.6,0,3.19,0,4.8c-0.88,0-1.7,0-2.52,0C117.49,64.49,117.47,53.14,117.56,52.63z M120.13,57.67c0.86,0.01,1.65,0.08,2.45-0.03
		c0.15-0.02,0.3-0.06,0.45-0.11c0.56-0.2,0.85-0.6,0.86-1.21c0.01-0.62-0.23-1.07-0.79-1.24c-0.11-0.03-0.21-0.08-0.32-0.11
		c-0.83-0.19-1.67-0.11-2.51-0.09c-0.04,0-0.07,0.03-0.14,0.07C120.13,55.84,120.13,56.72,120.13,57.67z"/>
	<path fill="#1D87C8" d="M57.72,46.47c-4.48,0-8.95,0-13.43,0c-0.31,0-0.62,0-0.93,0c-0.16,0-0.27-0.07-0.27-0.25
		c0-0.7,0.01-1.4,0.02-2.1c0-0.21,0.15-0.24,0.32-0.24c0.45-0.01,0.9-0.04,1.35-0.04c8.36,0,16.72,0,25.09,0
		c0.67,0,1.35,0.01,2.02,0.03c0.38,0.01,0.4,0.03,0.41,0.41c0.01,0.64,0.01,1.29,0.03,1.93c0,0.16-0.05,0.24-0.2,0.26
		c-0.14,0.01-0.28,0.01-0.42,0.01C67.04,46.47,62.38,46.47,57.72,46.47C57.72,46.47,57.72,46.47,57.72,46.47z"/>
	<path fill="#1D87C8" d="M72.25,52.48c-0.1,0.02-0.19,0.05-0.29,0.05c-9.59,0-19.18,0-28.82,0c0-0.86,0-1.7,0-2.59
		c0.19-0.01,0.39-0.04,0.59-0.04c1.85,0,3.7,0,5.55,0c7.22,0,14.45,0.01,21.67,0.01c0.42,0,0.83,0,1.29,0
		C72.25,50.8,72.25,51.63,72.25,52.48z"/>
	<path fill="#1D87C8" d="M159.33,52.61c0.01,0.86,0.02,1.65-0.01,2.5c-1.83,0-3.61,0-5.42,0c0,0.76,0,1.47,0,2.22
		c0.16,0.01,0.32,0.04,0.48,0.04c1.29,0,2.58,0,3.87,0c0.24,0,0.47,0,0.77,0c0.01,0.82,0.02,1.6-0.01,2.42
		c-0.15,0.01-0.29,0.03-0.42,0.03c-1.39,0-2.78,0-4.17,0c-0.11,0-0.22,0-0.34,0c-0.13,0.01-0.21,0.08-0.21,0.21
		c0,0.74,0,1.48,0,2.27c1.92,0,3.8,0,5.73,0c0,0.81,0,1.57,0,2.38c-0.16,0.03-0.32,0.07-0.48,0.07c-2.5,0.01-5,0.01-7.49,0.01
		c-0.11,0-0.22-0.02-0.36-0.03c0-4.04,0-8.06,0-12.14C153.96,52.6,156.62,52.61,159.33,52.61z"/>
	<path fill="#1D87C8" d="M154.5,37.72c0.11-0.02,0.19-0.05,0.28-0.05c0.53-0.01,1.07,0,1.6-0.01c0.22,0,0.36,0.08,0.45,0.3
		c0.5,1.22,1.01,2.43,1.52,3.64c0.38,0.9,0.79,1.79,1.17,2.69c0.55,1.29,1.11,2.57,1.65,3.86c0.23,0.54,0.44,1.09,0.67,1.67
		c-0.13,0.02-0.24,0.06-0.36,0.06c-0.72,0-1.43-0.02-2.15-0.01c-0.26,0-0.4-0.08-0.5-0.34c-0.24-0.64-0.53-1.27-0.76-1.91
		c-0.08-0.23-0.21-0.31-0.43-0.31c-0.39,0-0.79,0.01-1.18,0c-0.93,0-1.85,0.01-2.78-0.01c-0.28-0.01-0.43,0.09-0.53,0.35
		c-0.24,0.66-0.52,1.3-0.78,1.95c-0.03,0.08-0.08,0.15-0.11,0.21c-0.75,0.1-2.46,0.09-2.79-0.02
		C151.15,45.77,152.83,41.74,154.5,37.72z M156.96,44.99c-0.46-1.22-0.9-2.36-1.34-3.5c-0.02-0.06-0.09-0.1-0.17-0.19
		c-0.07,0.15-0.13,0.25-0.17,0.36c-0.37,0.98-0.73,1.96-1.1,2.94c-0.04,0.11-0.06,0.23-0.1,0.4
		C155.06,44.98,155.97,45.03,156.96,44.99z"/>
	<path fill="#1D87C8" d="M102.51,64.8c1.72-4.11,3.4-8.13,5.09-12.18c0.67,0,1.32,0,1.98,0c0.17,0,0.23,0.11,0.29,0.26
		c0.5,1.19,1,2.37,1.51,3.56c0.41,0.97,0.82,1.93,1.23,2.89c0.66,1.55,1.33,3.11,1.99,4.66c0.1,0.24,0.21,0.48,0.34,0.76
		c-0.16,0.03-0.26,0.06-0.36,0.06c-0.73,0-1.46,0-2.19,0c-0.36,0-0.35-0.01-0.48-0.34c-0.26-0.65-0.53-1.29-0.78-1.95
		c-0.07-0.18-0.17-0.24-0.34-0.25c-0.1,0-0.2-0.01-0.29-0.01c-1.23,0-2.47,0-3.7,0c-0.42,0-0.43,0-0.58,0.39
		c-0.25,0.61-0.5,1.22-0.73,1.83c-0.07,0.19-0.16,0.33-0.38,0.33C104.27,64.8,103.44,64.8,102.51,64.8z M107.25,59.96
		c0.44,0.09,2.47,0.07,2.76-0.04c-0.03-0.11-0.04-0.24-0.08-0.35c-0.37-1-0.74-1.99-1.11-2.98c-0.03-0.09-0.12-0.16-0.19-0.25
		C108.31,56.71,107.23,59.56,107.25,59.96z"/>
	<path fill="#1D87C8" d="M164.15,61.47c0.15,0.17,0.24,0.31,0.36,0.41c0.75,0.65,1.62,0.86,2.59,0.64c0.21-0.05,0.42-0.15,0.61-0.27
		c0.68-0.44,0.73-1.23,0.13-1.78c-0.35-0.32-0.78-0.48-1.22-0.64c-0.5-0.18-1-0.36-1.51-0.53c-0.47-0.16-0.89-0.42-1.28-0.72
		c-0.53-0.41-0.91-0.9-1.01-1.58c-0.07-0.45-0.18-0.9-0.1-1.37c0.13-0.82,0.45-1.52,1.06-2.09c0.79-0.75,1.73-1.18,2.83-1.21
		c0.42-0.01,0.84-0.03,1.26-0.02c0.93,0.02,1.75,0.38,2.5,0.89c0.14,0.09,0.25,0.22,0.42,0.36c-0.59,0.66-1.16,1.3-1.75,1.96
		c-0.15-0.1-0.27-0.19-0.4-0.27c-0.91-0.57-1.84-0.65-2.78-0.11c-0.6,0.34-0.67,1.25-0.12,1.68c0.27,0.21,0.59,0.39,0.91,0.51
		c0.76,0.3,1.53,0.55,2.29,0.84c0.62,0.24,1.13,0.62,1.45,1.21c0.07,0.13,0.17,0.27,0.21,0.41c0.22,0.85,0.31,1.69,0.04,2.56
		c-0.31,1.02-0.94,1.73-1.9,2.16c-2.16,0.96-4.2,0.72-6.11-0.68c-0.3-0.22-0.3-0.3-0.07-0.57
		C163.07,62.69,163.58,62.12,164.15,61.47z"/>
	<path fill="#1D87C8" d="M163.59,37.69c0.9,0,1.72,0,2.58,0c0.01,0.17,0.03,0.3,0.03,0.44c0,2.92,0,5.85,0,8.77
		c0,0.49,0,0.5,0.48,0.5c1.28,0,2.55,0,3.83,0c0.17,0,0.33,0,0.53,0c0,0.82,0,1.6,0,2.42c-0.17,0.02-0.34,0.05-0.52,0.06
		c-2.12,0.01-4.24,0.01-6.35,0.01c-0.18,0-0.36-0.01-0.57-0.02C163.59,45.78,163.59,41.73,163.59,37.69z"/>
	<path fill="#1D87C8" d="M112.06,37.67c0.88-0.01,1.72-0.01,2.59,0c0,4.09,0,8.11,0,12.18c-0.87,0-1.72,0-2.59,0
		C112.06,45.79,112.06,41.77,112.06,37.67z"/>
	<path fill="#1D87C8" d="M131.01,37.69c0.84,0,1.66,0,2.48,0c0.01,0.01,0.02,0.02,0.03,0.03c0.01,0.01,0.02,0.02,0.03,0.03
		c0.01,0.07,0.02,0.14,0.02,0.21c0,3.89,0,7.77,0,11.66c0,0.04-0.01,0.08-0.02,0.12c-0.01,0.03-0.03,0.05-0.06,0.1
		c-0.8,0-1.62,0-2.47,0C131.01,45.79,131.01,41.76,131.01,37.69z"/>
	<path fill="#1D87C8" d="M129.75,64.75c0-4.04,0-8.06,0-12.12c0.85,0,1.68,0,2.55,0c0,4.04,0,8.06,0,12.07
		C132.01,64.82,130.53,64.85,129.75,64.75z"/>
	<path fill="#1D87C8" d="M23.58,39.09c0.01,0.98-0.82,1.66-1.66,1.65c-0.87-0.01-1.57-0.77-1.58-1.7c-0.01-0.88,0.75-1.65,1.62-1.66
		C22.84,37.39,23.59,38.17,23.58,39.09z"/>
	<path fill="#1D87C8" d="M23.58,51.26c0,0.88-0.72,1.66-1.66,1.64c-0.72-0.01-1.59-0.63-1.58-1.68c0.01-0.93,0.76-1.69,1.64-1.68
		C22.86,49.55,23.58,50.34,23.58,51.26z"/>
	<path fill="#1D87C8" d="M23.58,45.19c0,0.91-0.74,1.65-1.62,1.64c-0.92-0.01-1.62-0.74-1.62-1.68c0-0.89,0.75-1.66,1.62-1.66
		C22.83,43.48,23.59,44.28,23.58,45.19z"/>
	<path fill="#1D87C8" d="M31.41,45.15c0.01,0.93-0.7,1.67-1.62,1.68c-0.88,0.01-1.6-0.74-1.61-1.65c-0.01-0.86,0.73-1.71,1.57-1.7
		C30.63,43.49,31.4,44.25,31.41,45.15z"/>
	<path fill="#1D87C8" d="M39.14,51.24c0.02,1-0.78,1.63-1.55,1.67c-0.87,0.04-1.64-0.71-1.67-1.6c-0.03-0.96,0.71-1.76,1.64-1.77
		C38.24,49.52,39.15,50.2,39.14,51.24z"/>
	<path fill="#1D87C8" d="M29.76,40.72c-0.89,0-1.59-0.74-1.58-1.66c0-0.78,0.74-1.71,1.61-1.67c0.89,0.04,1.63,0.78,1.62,1.7
		C31.4,40.03,30.71,40.72,29.76,40.72z"/>
	<path fill="#1D87C8" d="M29.79,52.89c-0.78,0.04-1.61-0.7-1.6-1.65c0.01-0.93,0.73-1.7,1.61-1.7c0.84,0,1.59,0.76,1.6,1.63
		C31.42,52.15,30.73,52.89,29.79,52.89z"/>
	<path fill="#1D87C8" d="M37.54,37.38c0.86,0,1.62,0.81,1.61,1.72c-0.02,1.07-0.87,1.62-1.62,1.64c-0.74,0.01-1.63-0.73-1.6-1.65
		C35.94,38.14,36.65,37.38,37.54,37.38z"/>
	<path fill="#1D87C8" d="M35.92,45.2c0.02-0.97,0.75-1.74,1.64-1.71c0.83,0.02,1.6,0.81,1.58,1.66c-0.03,1.09-0.82,1.7-1.56,1.71
		C36.66,46.86,35.91,46.08,35.92,45.2z"/>
</g>
</svg>
