<?xml version="1.0" encoding="utf-8"?>
<!-- Generator: Adobe Illustrator 27.6.1, SVG Export Plug-In . SVG Version: 6.00 Build 0)  -->
<svg version="1.1" id="Layer_1" xmlns="http://www.w3.org/2000/svg" xmlns:xlink="http://www.w3.org/1999/xlink" x="0px" y="0px"
	 viewBox="0 0 191.36 102.43" enable-background="new 0 0 191.36 102.43" xml:space="preserve">
<g>
	<path fill="#1D87C8" d="M79.94,56.18c12.07-12.25,22.25-25.76,30.13-41.01c-0.57,1.7-1.1,3.41-1.73,5.08
		c-3.73,9.86-8.03,19.46-13.53,28.48c-1.14,1.86-2.48,3.6-3.78,5.36c-0.22,0.29-0.64,0.54-1.01,0.6
		C86.68,55.21,83.34,55.68,79.94,56.18z"/>
	<path fill="#1D87C8" d="M20.26,86.63c-0.9,0-1.56,0-2.3,0c0-6.86,0-13.68,0-20.62c1.05,0,2.07-0.07,3.07,0.03
		c0.38,0.04,0.77,0.41,1.06,0.72c4.72,5.2,9.43,10.41,14.14,15.62c0.15,0.17,0.3,0.33,0.67,0.72c0-5.84,0-11.42,0-17.04
		c0.9,0,1.64,0,2.44,0c0,6.85,0,13.64,0,20.5c-1.28,0.16-2.36,0.28-3.41-0.93c-4.69-5.38-9.49-10.67-14.25-15.99
		c-0.4-0.45-0.8-0.88-1.41-1.55C20.26,74.44,20.26,80.48,20.26,86.63z"/>
	<path fill="#1D87C8" d="M149.21,86.68c0.92-1.79,1.77-3.46,2.63-5.13c2.52-4.9,5.06-9.78,7.54-14.7c0.35-0.7,0.77-0.79,1.46-0.88
		c1.54-0.2,2.3,0.44,2.97,1.81c3.03,6.12,6.19,12.17,9.29,18.25c0.08,0.16,0.15,0.32,0.29,0.65c-0.72,0-1.33,0.09-1.89-0.03
		c-0.4-0.08-0.9-0.35-1.09-0.69c-0.71-1.24-1.35-2.53-1.94-3.84c-0.29-0.65-0.67-0.89-1.38-0.88c-3.89,0.03-7.78-0.01-11.68,0.04
		c-0.4,0.01-0.95,0.39-1.17,0.75c-0.64,1.06-1.21,2.18-1.69,3.32c-0.41,1-0.97,1.54-2.1,1.33
		C150.12,86.63,149.74,86.68,149.21,86.68z M161.34,67.79c-1.95,3.93-3.77,7.58-5.62,11.31c3.84,0,7.47,0,11.26,0
		C165.11,75.33,163.3,71.7,161.34,67.79z"/>
	<path fill="#1D87C8" d="M42.9,86.68c1.89-3.69,3.67-7.18,5.46-10.66C49.91,73,51.49,70,53,66.96c0.35-0.71,0.75-0.92,1.54-0.99
		c1.46-0.12,2.23,0.35,2.91,1.73c2.98,6.06,6.13,12.04,9.21,18.05c0.13,0.26,0.24,0.53,0.42,0.94c-0.76,0-1.4,0.07-2.01-0.03
		c-0.33-0.05-0.75-0.31-0.91-0.59c-0.73-1.32-1.33-2.71-2.08-4.02c-0.21-0.36-0.76-0.75-1.17-0.75c-3.93-0.06-7.86-0.06-11.79,0
		c-0.41,0.01-0.98,0.37-1.2,0.74c-0.67,1.13-1.28,2.32-1.78,3.53c-0.38,0.91-0.91,1.3-1.88,1.13C43.9,86.63,43.51,86.68,42.9,86.68z
		 M55.01,67.8c-1.95,3.92-3.76,7.58-5.61,11.31c3.8,0,7.44,0,11.26,0C58.77,75.32,56.95,71.67,55.01,67.8z"/>
	<path fill="#1D87C8" d="M148.55,71.25c-0.92,0.42-1.53,0.7-2.12,0.97c-0.66-0.84-1.21-1.65-1.87-2.36
		c-2.73-2.92-9.03-2.87-11.63-1.48c-1.07,0.57-2.2,1.31-2.89,2.27c-2.15,2.97-2.49,6.3-1.07,9.67c1.36,3.22,4.18,4.41,7.43,4.73
		c2.53,0.25,5.04,0.02,7.15-1.55c1.16-0.86,2.09-2.02,3.22-3.15c0.49,0.25,1.15,0.58,1.85,0.93c-1.34,2.53-3.24,4.28-5.88,5.13
		c-3.44,1.12-6.92,1.13-10.35-0.03c-4.34-1.47-6.83-5.64-6.65-10.5c0.26-7.01,5.33-10.27,11.08-10.36c3.39-0.06,6.58,0.47,9.2,2.77
		C146.96,69.1,147.64,70.16,148.55,71.25z"/>
	<path fill="#1D87C8" d="M87.54,66.06c0.85,0,1.56,0,2.54,0c-0.14,4.91,0,9.8-0.51,14.62c-0.38,3.68-3.26,5.82-7.63,6.37
		c-2.54,0.32-5.11,0.29-7.63-0.54c-3.41-1.12-5.39-3.44-5.55-6.95c-0.2-4.45-0.05-8.91-0.05-13.46c0.72,0,1.42,0,2.28,0
		c0,0.37,0,0.76,0,1.16c0,3.37,0,6.73,0,10.1c0,5.03,2.07,7.41,7.08,7.81c1.59,0.13,3.26-0.07,4.81-0.44
		c2.92-0.69,4.61-3.03,4.64-6.19c0.04-3.71,0.01-7.41,0.01-11.12C87.54,67.01,87.54,66.59,87.54,66.06z"/>
	<path fill="#1D87C8" d="M93.58,68.11c0-0.78,0-1.37,0-2.03c7.21,0,14.36,0,21.58,0c0,0.64,0,1.26,0,1.97c-3.15,0-6.27,0-9.56,0
		c0,6.22,0,12.35,0,18.55c-0.86,0-1.56,0-2.41,0c0-6.13,0-12.26,0-18.49C99.93,68.11,96.81,68.11,93.58,68.11z"/>
	<path fill="#1D87C8" d="M106.55,28.55c-0.18,5.27-0.96,10.43-2.82,15.39c-1.34,3.57-3.08,6.89-5.8,9.62
		c-0.33,0.33-0.77,0.64-1.22,0.75c-2.37,0.61-4.75,1.16-7.19,1.66C99.07,49.22,104.13,39.71,106.55,28.55z"/>
	<path fill="#1D87C8" d="M121.45,86.63c-0.78,0-1.49,0-2.27,0c0-6.86,0-13.68,0-20.56c0.77,0,1.47,0,2.27,0
		C121.45,72.9,121.45,79.72,121.45,86.63z"/>
</g>
</svg>
